<?xml version="1.0" encoding="UTF-8" standalone="no"?>
<!-- Created with Inkscape (http://www.inkscape.org/) -->

<svg
   version="1.1"
   id="svg1"
   width="875.77881"
   height="957.46149"
   viewBox="0 0 875.77881 957.46149"
   sodipodi:docname="231b.svg"
   inkscape:version="1.3.2 (091e20ef0f, 2023-11-25)"
   xmlns:inkscape="http://www.inkscape.org/namespaces/inkscape"
   xmlns:sodipodi="http://sodipodi.sourceforge.net/DTD/sodipodi-0.dtd"
   xmlns="http://www.w3.org/2000/svg"
   xmlns:svg="http://www.w3.org/2000/svg">
  <defs
     id="defs1" />
  <sodipodi:namedview
     id="namedview1"
     pagecolor="#ffffff"
     bordercolor="#000000"
     borderopacity="0.25"
     inkscape:showpageshadow="2"
     inkscape:pageopacity="0.0"
     inkscape:pagecheckerboard="0"
     inkscape:deskcolor="#d1d1d1"
     showgrid="false"
     inkscape:zoom="0.77"
     inkscape:cx="438.31169"
     inkscape:cy="439.61039"
     inkscape:window-width="1920"
     inkscape:window-height="1011"
     inkscape:window-x="0"
     inkscape:window-y="0"
     inkscape:window-maximized="1"
     inkscape:current-layer="layer1" />
  <g
     inkscape:groupmode="layer"
     id="layer1"
     inkscape:label="Layer 1"
     transform="translate(-202.02347,-161.47713)"
     style="display:inline;fill:#803300">
    <path
       style="fill:#000000"
       d="m 610.1589,1105.2193 c -6.551,-7.5456 -15.10393,-17.4583 -19.00652,-22.0282 -10.08905,-11.8141 -24.15599,-26.7596 -24.13243,-25.6396 0.011,0.5217 1.98292,7.361 4.3821,15.1985 2.39919,7.8375 4.11777,14.25 3.81908,14.25 -0.2987,0 -3.95815,-2.5529 -8.13211,-5.6731 -19.956,-14.9181 -37.95157,-36.85 -48.19227,-58.7338 -1.72229,-3.6805 -3.24019,-6.5571 -3.37312,-6.3924 -0.13293,0.1646 0.60503,6.1493 1.63991,13.2993 1.03489,7.15 1.75109,13.675 1.59156,14.5 -0.18261,0.9443 -5.24796,-3.3159 -13.67349,-11.5 -31.40931,-30.5094 -43.86159,-47.87164 -53.6343,-74.78227 -1.8411,-5.06975 -3.36992,-8.23639 -3.39738,-7.03698 -0.15424,6.73681 7.65215,57.88765 12.33416,80.81885 1.34752,6.5998 2.35242,12.0972 2.2331,12.2165 -0.11931,0.1194 -3.74294,-8.318 -8.05251,-18.7496 -4.30957,-10.4316 -7.90792,-18.9665 -7.99635,-18.9665 -0.0884,0 0.0307,4.3784 0.26478,9.7298 0.5073,11.599 1.1213,11.7695 -11.81767,-3.2808 C 412.91506,986.74227 395.28185,960.41877 379.31383,929.29553 374.74122,920.38307 371,913.6868 371,914.41493 c 0,0.72813 1.15848,6.89514 2.5744,13.70447 4.54884,21.87597 11.4126,59.22694 10.96586,59.67368 C 383.66668,988.66666 362.53137,967.20637 354.70592,957.5 337.05411,935.60541 322.55805,909.4052 313.48656,883 l -4.63793,-13.5 0.46359,9 c 0.25497,4.95 1.13639,10.9125 1.95871,13.25 0.82233,2.3375 1.31286,4.25 1.09007,4.25 -0.83617,0 -15.36017,-22.84926 -20.02279,-31.5 -6.67523,-12.3848 -13.4646,-27.18934 -17.65612,-38.5 -9.70325,-26.18382 -21.4326,-68.09333 -27.70745,-99 -1.7308,-8.525 -3.27667,-15.63103 -3.43528,-15.79117 -0.31797,-0.32106 -3.07958,17.83056 -4.15193,27.28993 -0.37402,3.29932 -0.9517,13.87432 -1.28373,23.5 L 237.5,779.5 232.64903,748 c -2.66803,-17.325 -4.98658,-31.64355 -5.15234,-31.819 -0.40995,-0.43395 -2.20767,8.13112 -3.06259,14.59144 -0.38374,2.89985 -1.01352,5.46763 -1.3995,5.70617 -0.38598,0.23855 -1.47928,-4.00853 -2.42957,-9.43796 -7.97746,-45.57911 -7.07907,-95.09862 2.53776,-139.88286 1.10336,-5.13822 1.86011,-9.48751 1.68166,-9.6651 -0.17845,-0.17758 -3.67158,6.82929 -7.76252,15.57082 -4.09094,8.74152 -7.57186,15.75989 -7.73539,15.59636 -0.16353,-0.16352 3.05272,-10.39139 7.14722,-22.72859 l 7.44455,-22.43128 -6.70916,7.48127 c -3.69003,4.1147 -8.61637,9.5147 -10.94742,12 l -4.23826,4.51873 3.06801,-8.5 c 8.85038,-24.52019 22.09359,-53.63207 33.66315,-74 3.28037,-5.775 5.85803,-10.63201 5.72814,-10.79336 -0.12989,-0.16135 -7.02713,4.45115 -15.32719,10.25 C 220.85552,510.25549 213.84979,515 213.58731,515 c -1.87102,0 11.788,-25.23867 22.03367,-40.71307 7.52022,-11.35806 22.54077,-30.34834 28.25626,-35.72402 4.08465,-3.84179 3.93986,-4.62319 -0.62724,-3.38516 -5.66145,1.53469 -14.77606,6.65488 -20.00014,11.23521 l -4.66146,4.08704 3.37236,-6 c 10.40455,-18.51143 20.11656,-31.46398 35.53924,-47.39736 6.6,-6.81855 11.52655,-12.56387 10.94788,-12.76738 -4.47185,-1.57266 -14.6654,-8.88668 -19.32588,-13.8666 C 264.207,365.21677 254.81875,350 256.49351,350 c 0.33141,0 2.94345,1.48809 5.80453,3.30686 7.85471,4.99321 8.60154,5.22658 4.01166,1.25357 -8.88846,-7.69385 -17.21709,-21.0212 -21.19491,-33.91577 -2.81699,-9.13159 -2.6787,-9.80546 0.98881,-4.81842 2.81345,3.82569 10.6272,10.17376 12.52274,10.17376 0.4213,0 -0.60705,-1.4625 -2.28521,-3.25 C 245.73021,311.44772 237.38706,291.86411 235.5723,274 l -0.66032,-6.5 2.98639,6 c 1.64251,3.3 4.8592,7.8 7.14821,10 l 4.16181,4 -3.52094,-7.05972 c -4.34181,-8.7056 -6.37579,-15.56133 -7.69605,-25.94028 -0.98187,-7.71874 -0.34913,-23.17496 0.89892,-21.9584 0.33532,0.32687 1.57552,3.60123 2.75599,7.27635 l 2.1463,6.68205 0.1037,-7.14466 c 0.1961,-13.51204 6.48809,-27.19224 16.67568,-36.25671 5.0509,-4.49407 4.82414,-4.75101 -2.22909,-2.52573 -3.37278,1.06411 6.05924,-6.68367 12.59845,-10.34879 3.54275,-1.98564 10.06775,-4.88659 14.5,-6.44653 7.68164,-2.70359 7.82473,-2.80776 3.05865,-2.22681 -2.75,0.33521 -8.05355,1.62446 -11.78567,2.86502 -7.73127,2.56987 -7.62111,2.16444 0.78567,-2.89132 8.21797,-4.9422 17.87537,-7.71463 27.46539,-7.88471 10.08786,-0.1789 7.81575,-1.80951 -3.4284,-2.46042 -8.98191,-0.51996 -8.57675,-0.90736 4.46301,-4.26748 14.77684,-3.80774 36.23686,-3.55123 52.61278,0.62887 28.36094,7.23939 53.91813,27.99989 71.23513,57.86539 l 4.65209,8.02316 0.30226,-5.21464 c 0.38566,-6.65354 2.28452,-6.71835 12.54191,-0.42807 3.10789,1.90589 4.61734,2.22678 7.88098,1.67539 4.55101,-0.76889 3.42921,-2.3886 -1.72515,-2.49084 l -3,-0.0595 3.5,-1.84134 c 1.925,-1.01274 6.2,-2.43272 9.5,-3.15551 4.0547,-0.8881 5.18946,-1.41792 3.5,-1.63416 -1.375,-0.17599 -4.075,-0.60273 -6,-0.9483 -3.34532,-0.60055 -3.38951,-0.66157 -1,-1.38063 1.375,-0.41377 5.65,-0.81881 9.5,-0.90009 l 7,-0.14778 -5.90569,-3.04666 c -4.28379,-2.20994 -5.5268,-3.28083 -4.52606,-3.89932 2.99988,-1.85403 15.83872,-3.20012 25.92417,-2.71803 10.41058,0.49763 10.46645,0.4882 6.05197,-1.02063 -4.28259,-1.46376 -4.36025,-1.56037 -2,-2.4879 1.35059,-0.53075 6.28061,-0.97245 10.95561,-0.98155 7.95734,-0.0155 11.70843,0.81274 21.5,4.7472 1.40969,0.56645 0.96696,-0.31236 -1.5,-2.97747 l -3.5,-3.78111 9,0.60326 c 17.70137,1.1865 35.74813,5.89049 51.50856,13.426 4.39529,2.10152 7.99144,3.59499 7.99144,3.31884 0,-0.27616 -1.6875,-2.25911 -3.75,-4.40656 -2.74277,-2.85573 -3.21281,-3.74728 -1.75,-3.31927 7.34435,2.1489 43.72599,11.78029 51.76215,13.70311 l 9.76215,2.3358 9.16649,-4.44975 c 5.04157,-2.44737 14.3736,-7.51657 20.73785,-11.2649 l 11.57136,-6.81514 -5.5,5.63116 -5.5,5.63116 5.5,-2.23997 c 8.57539,-3.49248 21.53191,-6.56751 32.78922,-7.78201 C 729.83412,203.7027 761,203.62512 761,205 c 0,0.55 -0.7875,1.02749 -1.75,1.06109 -0.9625,0.0336 -4.225,0.92681 -7.25,1.9849 -4.0691,1.4233 -4.6007,1.7934 -2.04332,1.42257 8.28097,-1.20078 37.14979,-2.26619 43.54332,-1.60698 l 7,0.72173 -4.25,0.79625 C 791.73627,210.22521 790.4275,212 794.31763,212 c 3.37678,0 15.46598,3.34488 20.68237,5.72246 l 4.5,2.05106 -4.5,0.81715 c -4.36683,0.79296 -4.41122,0.8372 -1.5,1.49492 1.65,0.37278 5.25,0.73367 8,0.80199 4.98004,0.12371 23.52218,2.66898 26.63679,3.65642 1.18981,0.37721 2.5204,-1.05989 4.87253,-5.26254 13.74089,-24.55149 38.06422,-44.53327 65.28087,-53.62867 18.81391,-6.28733 42.70455,-7.92963 61.20981,-4.20771 12.44049,2.50213 13.02476,3.16909 3.3614,3.83719 -4.59877,0.31795 -10.3864,1.27854 -12.8614,2.13465 l -4.5,1.55657 5.67674,-0.48687 c 11.54005,-0.98974 27.30742,2.72921 37.75696,8.90551 l 3.5663,2.10787 -4,0.25031 c -2.2,0.13768 -6.025,0.53379 -8.5,0.88025 l -4.5,0.62992 6.3443,1.32618 c 8.441,1.7645 14.1668,4.65788 19.9095,10.06082 l 4.7462,4.46536 -4.8345,-0.63036 -4.8344,-0.63036 5.1148,6.67339 c 2.8132,3.67036 6.029,8.46505 7.1461,10.65486 2.8234,5.53423 5.905,18.13979 5.9233,24.22959 0.018,5.8316 1.8598,4.58658 2.0863,-1.40996 0.1099,-2.90824 0.2958,-2.57009 1.0996,2 1.2613,7.17157 0.2511,35.2901 -1.6334,45.46303 -0.8113,4.37967 -1.3267,8.11138 -1.1454,8.2927 0.6239,0.62385 4.615,-6.93706 6.6468,-12.59182 l 2.0351,-5.66391 -0.5777,6.7273 c -1.0119,11.78429 -5.9303,24.89043 -13.144,35.02501 -3.9846,5.59811 -4.3324,6.9886 -0.9541,3.81484 7.0133,-6.58865 3.5306,3.10081 -5.1814,14.41561 -3.7086,4.81656 -4.091,5.645 -1.962,4.25 1.4545,-0.95302 2.9388,-1.73276 3.2984,-1.73276 0.8242,0 -3.4847,5.78739 -9.8652,13.25 -4.8126,5.62889 -4.7147,7.10621 0.2817,4.25 4.1787,-2.38877 4.3247,-1.73761 0.9529,4.25 -4.4374,7.88004 -10.9044,16.12198 -16.8309,21.45038 l -4.9614,4.46075 6.2279,8.41943 c 3.4254,4.63069 10.2518,12.64744 15.1697,17.81499 6.503,6.83293 8.2599,9.18448 6.4418,8.62169 -4.1233,-1.27636 -9.5242,-4.24905 -13.1165,-7.21944 -3.2883,-2.71911 -3.3343,-2.72749 -1.6329,-0.2978 12.4174,17.73304 36.2225,54.96385 41.6778,65.18343 4.9783,9.32602 15.0716,32.00058 15.0716,33.85833 0,2.74246 -17.3589,-8.29922 -25.799,-16.41034 l -4.2991,-4.13142 6.4345,13.5 c 3.539,7.425 10.3597,24.525 15.1572,38 4.7975,13.475 9.7983,27.16325 11.1129,30.41833 1.3146,3.25507 2.2251,6.0834 2.0233,6.28516 -0.8784,0.87845 -12.0913,-4.1727 -16.1642,-7.2816 -2.4561,-1.87477 -4.4656,-3.17382 -4.4656,-2.88677 0,0.28705 1.2959,3.09658 2.8798,6.2434 7.5836,15.06675 14.8624,34.72832 19.6013,52.94704 2.576,9.90331 6.9296,34.19708 6.2501,34.87656 -1.0429,1.04296 -9.2108,-6.24075 -11.9629,-10.66796 -1.687,-2.71379 -3.1601,-4.93416 -3.2735,-4.93416 -0.1135,0 0.36,3.2625 1.0522,7.25 4.8885,28.16129 4.5058,56.65655 -1.155,85.98414 -2.2924,11.87655 -7.263,29.92605 -9.189,33.36764 -0.5769,1.03088 -1.8705,-2.38422 -4.0895,-10.79699 -4.3781,-16.59761 -18.1784,-53.07319 -19.558,-51.6936 -0.2195,0.21946 -1.3548,7.59673 -2.5229,16.39392 -6.9146,52.07406 -21.6405,103.44413 -44.00133,153.49489 -8.95088,20.03496 -31.50095,62.0136 -29.54489,55 1.49007,-5.34273 1.60263,-25.4108 0.17388,-31 l -1.40594,-5.5 -1.83022,4.5 c -4.40289,10.82548 -17.85247,36.32703 -23.99682,45.5 -11.98674,17.89513 -33.36442,43.27755 -32.00452,38 1.60307,-6.22123 3.56444,-20.6513 4.15836,-30.5935 0.61594,-10.311 -0.90879,-34.88413 -2.31106,-37.24564 -0.27405,-0.46153 -2.52705,3.13847 -5.00666,8 -10.63353,20.84813 -26.09487,45.28563 -41.37792,65.40007 -11.01248,14.49387 -28.1898,34.54547 -28.56418,33.34387 -0.15507,-0.4976 3.93196,-13.8366 9.08228,-29.64206 5.15032,-15.8055 9.04598,-28.54058 8.65702,-28.3002 -0.38895,0.24039 -3.58244,5.16392 -7.09664,10.94119 -3.5142,5.77726 -6.48163,10.41193 -6.59429,10.29927 -0.11266,-0.11266 0.20954,-3.80442 0.716,-8.20392 1.1811,-10.2598 -0.53574,-27.25809 -3.68174,-36.45256 -0.27353,-0.79941 -2.29803,3.92559 -4.4989,10.5 C 810.58142,978.42354 798.55459,1000.3825 784.24717,1018 777.6985,1026.0637 764,1039.9959 764,1038.5925 c 0,-0.4696 0.70815,-5.3081 1.57367,-10.7522 0.86552,-5.444 1.42802,-10.327 1.25,-10.8509 -0.17802,-0.524 -2.89652,2.5266 -6.04111,6.779 -5.90572,7.9862 -23.78256,26.5032 -23.78256,24.6342 0,-0.5807 1.3654,-5.9184 3.03423,-11.8616 1.66883,-5.9432 2.86701,-10.9731 2.66262,-11.1775 -0.20438,-0.2044 -7.06944,8.1556 -15.25567,18.5777 -8.18624,10.4221 -14.99815,18.8352 -15.13758,18.6957 -0.13943,-0.1394 0.35834,-4.0522 1.10615,-8.6952 0.74781,-4.6429 1.26371,-8.552 1.14644,-8.6869 -0.11727,-0.1348 -2.38976,3.1907 -5.04998,7.3901 -2.66021,4.1994 -7.57488,10.5723 -10.92148,14.162 -6.20135,6.6519 -18.64152,17.4696 -19.31506,16.7961 -0.20447,-0.2045 0.81793,-4.5071 2.272,-9.5613 1.45407,-5.0543 2.46339,-9.37 2.24293,-9.5904 -0.22046,-0.2205 -7.34968,7.8684 -15.84271,17.9753 -8.49304,10.1069 -15.59406,18.2309 -15.78005,18.0533 -0.18599,-0.1776 0.82651,-2.3103 2.25,-4.7393 1.42349,-2.429 2.58816,-4.7227 2.58816,-5.0972 0,-0.3745 -3.03334,2.5346 -6.74075,6.4647 -7.14535,7.5744 -14.42576,13.491 -22.97436,18.6706 l -5.2151,3.1599 z"
       id="path1" />
    <path
       id="path2"
       style="fill:#803300"
       d="M 939.35159 178.08846 C 926.27829 177.92076 913.19307 181.50156 900.83206 188.69979 C 894.45623 192.41265 886.25196 199.13716 882.89652 203.40291 C 880.85254 206.00141 881.07524 205.93024 885.49417 202.55721 C 897.10619 193.69355 909.81706 189.56503 925.50003 189.56502 C 937.63203 189.56501 945.45198 191.17745 958.00003 196.26619 C 965.05289 199.1264 979.40875 206.92585 978.77933 207.55525 C 978.62122 207.71336 974.66869 206.69914 969.99613 205.3033 C 959.23004 202.08713 943.07126 201.70306 933.01761 204.42244 C 910.37438 210.54717 894.44715 226.05494 889.09964 247.18611 C 886.76208 256.4232 885.49215 268.00057 886.81644 268.00057 C 887.35324 268.00057 889.17509 266.42557 890.86527 264.50057 C 894.45064 260.41705 895.20767 260.16255 894.58206 263.25057 C 894.33135 264.48807 893.86433 268.20057 893.54495 271.50057 L 892.96488 277.50057 L 897.41019 268.50057 C 899.92647 263.40496 904.15522 256.9303 907.16019 253.57674 C 910.0793 250.31901 915.79662 245.48151 919.86331 242.82674 C 926.39037 238.56583 926.91977 238.00181 924.37894 238.01229 C 918.11035 238.03819 905.26651 242.80179 900.74417 246.77791 C 897.57543 249.56393 897.99021 247.48625 901.71097 241.94393 C 909.88048 229.77492 922.46339 220.46153 937.50003 215.44979 C 944.40304 213.14899 946.7464 212.83865 954.60159 213.18221 C 962.37793 213.52232 964.66464 214.05299 970.29495 216.82479 C 979.05487 221.13727 987.70917 229.9341 992.39652 239.28963 L 996.0098 246.50057 L 995.46292 237.50057 L 994.91605 228.50057 L 996.90238 233.35799 C 999.74743 240.31682 1002.0377 251.15169 1002.7266 260.91463 C 1003.7172 274.95085 1005.3719 266.95881 1005.4004 248.00057 C 1005.4234 232.73204 1005.2253 230.90349 1002.7481 223.50057 C 994.87122 199.96184 977.3658 184.66828 952.39456 179.51033 C 948.06715 178.61648 943.70936 178.14436 939.35159 178.08846 z M 339.40433 188.68611 C 333.24449 188.66953 326.95726 189.40987 321.54495 190.90682 C 312.85202 193.31115 299.01443 199.77079 294.41214 203.57283 C 291.64136 205.86184 291.81967 205.83657 298.09183 203.05135 C 305.14989 199.91713 317.3023 196.58642 325.59378 195.51424 C 332.07145 194.6766 341.98357 196.46193 348.82425 199.69783 C 360.11914 205.04076 373.21594 217.7541 380.55472 230.50057 L 383.43363 235.50057 L 376.7012 229.36775 C 369.10932 222.45307 356.98488 215.89786 347.00003 213.30916 C 333.08898 209.70254 316.00601 211.43683 303.543 217.71932 C 298.41148 220.30607 285.5847 229.91923 286.30472 230.63924 C 286.52213 230.85666 289.22738 229.51382 292.31449 227.65486 C 302.28178 221.65287 310.80146 219.49846 324.50003 219.51619 C 338.91729 219.53479 343.94227 221.08909 355.67386 229.15877 C 362.85901 234.10115 384.00003 253.35426 384.00003 254.95565 C 384.00003 255.34215 381.36187 254.35103 378.13675 252.75252 C 374.91163 251.154 370.29913 249.62664 367.88675 249.35799 L 363.50003 248.86971 L 369.33206 252.12361 C 382.34844 259.39002 391.72915 272.76204 392.75199 285.50447 C 393.04391 289.14112 393.60875 291.75378 394.00589 291.30916 C 394.40302 290.86454 396.99678 287.09345 399.77152 282.93025 C 402.54625 278.76706 407.15717 272.80026 410.01761 269.67049 C 415.96124 263.16721 415.95381 263.30098 411.29495 248.524 C 402.4878 220.58949 381.79428 198.86576 356.50003 191.00057 C 351.59658 189.47585 345.56417 188.7027 339.40433 188.68611 z M 555.918 229.90096 C 555.60236 230.14445 557.69948 231.1981 562.23831 233.03572 C 565.39406 234.31339 567.84298 235.48965 567.68167 235.65096 C 567.52036 235.81228 562.01479 235.23233 555.44534 234.3619 C 546.70986 233.20447 538.79853 232.91617 526.00003 233.28963 C 505.05918 233.90069 498.92291 235.3208 512.54886 236.40291 C 523.0368 237.23581 543.17741 240.04759 561.50003 243.2369 L 574.50003 245.50057 L 558.00003 246.1119 C 535.34445 246.95174 535.60219 246.93475 536.19534 247.52791 C 536.48572 247.8183 540.39497 248.47504 544.88284 248.9869 C 557.35102 250.40891 565.54416 252.73948 576.50003 257.97908 C 590.43575 264.64377 592.45791 266.53577 581.85745 262.99275 C 572.43405 259.84314 556.95017 256.63181 554.21683 257.26033 C 553.1896 257.49654 554.20633 258.14116 556.75003 258.8658 C 559.08753 259.53169 561.00003 260.20043 561.00003 260.35213 C 561.00003 260.50382 555.93753 260.46214 549.75003 260.25838 C 543.56254 260.05458 535.80003 260.26149 532.50003 260.71736 L 526.50003 261.54744 L 540.94339 263.33455 C 564.67018 266.27068 590.73874 273.96266 607.82425 283.06893 C 613.05742 285.8581 613.22743 286.05164 610.00003 285.56111 C 607.31937 285.15368 608.3728 285.92632 614.50003 288.86385 C 623.63052 293.2412 633.86081 300.63942 637.64456 305.60018 L 640.22269 308.98104 L 647.05863 302.65096 C 663.90098 287.05748 685.30804 275.81889 707.00003 271.18025 C 727.79506 266.73341 750.68507 266.02083 770.50003 269.20369 L 778.50003 270.48885 L 761.50003 271.12166 C 733.61692 272.16061 712.71414 276.53605 695.50003 284.93611 C 683.14934 290.96295 673.91507 297.88504 667.92581 305.60408 C 661.24813 314.21038 661.03355 314.96104 666.54691 310.42244 C 672.89949 305.19301 679.32287 300.86819 685.00003 298.00057 L 689.50003 295.72713 L 681.40628 304.1783 C 673.40498 312.53176 665.30219 323.5391 661.14261 331.70955 C 659.96375 334.02514 659.00003 336.17398 659.00003 336.48494 C 659.00003 336.7959 661.85667 334.62812 665.34769 331.66658 C 682.97498 316.7129 702.54116 307.31072 724.48441 303.25057 C 734.57279 301.38392 770.06512 301.09906 780.00003 302.80525 L 785.50003 303.75057 L 779.00003 303.88533 C 732.39219 304.85387 690.40103 318.79105 666.37503 341.26619 C 659.90181 347.32158 651.65275 357.7839 648.44925 364.00057 L 646.64456 367.50057 L 645.37503 358.83455 C 643.05603 343.00111 636.86072 328.14433 627.54105 316.07088 C 601.42658 282.24012 554.64742 269.49634 500.89456 281.57088 C 491.98907 283.57133 488.57594 285.20242 495.03909 284.36971 C 507.34456 282.78428 535.05641 287.65211 553.24808 294.59432 C 563.67112 298.5719 580.19444 306.14013 579.64847 306.68611 C 579.4386 306.89598 575.94359 306.17025 571.88284 305.07479 C 554.59442 300.41096 546.62373 299.5512 520.50003 299.53377 C 500.44374 299.52037 493.7203 299.87097 486.50003 301.30721 C 466.82738 305.22044 450.19505 310.8926 432.50003 319.72322 C 422.35839 324.78437 402.48268 336.93758 404.27542 336.98104 C 404.70165 336.99134 408.1792 335.42472 412.00394 333.49861 C 432.77823 323.03685 455.86045 316.96711 486.47074 313.91854 C 506.50361 311.9234 526.51196 314.14695 545.69339 320.49861 C 553.6816 323.1438 576.53193 333.8007 575.79495 334.53768 C 575.57003 334.76261 571.81219 333.40629 567.44339 331.524 C 538.33085 318.98087 499.25156 317.41203 470.76566 327.64119 C 461.31627 331.03443 453.06182 335.18567 445.00003 340.59822 C 433.72833 348.16586 432.81972 349.31799 441.09964 345.54354 C 445.27943 343.63816 452.70444 340.8448 457.59964 339.3365 C 465.96318 336.75955 467.6159 336.59571 485.00003 336.62361 C 495.96857 336.64121 504.72135 337.1043 506.50003 337.76033 C 509.11389 338.7244 508.78154 338.79437 503.92386 338.31502 C 496.30123 337.56281 482.34411 339.56401 473.68167 342.65096 C 466.1844 345.32268 462.07735 347.78057 467.50003 346.35018 C 469.15003 345.91495 475.22504 345.57478 481.00003 345.59432 C 498.73475 345.65432 513.44579 350.08161 528.9512 360.02791 C 533.42572 362.8982 536.93192 365.40071 536.74417 365.58846 C 536.55642 365.7762 533.72454 364.85674 530.4512 363.54354 C 510.61495 355.58557 481.21641 356.42706 464.40042 365.43416 C 461.70489 366.87797 460.40003 367.82727 461.50003 367.54549 C 472.86282 364.63482 486.67252 364.23316 497.50003 366.49861 C 504.94827 368.05702 518.52898 374.28577 523.50003 378.42244 C 525.95674 380.4668 525.05107 380.21364 518.49613 377.024 C 504.84286 370.38032 496.64267 368.55135 480.50003 368.55135 C 469.00735 368.55135 465.1051 368.95108 458.70902 370.78377 C 443.82887 375.04742 429.51084 383.83619 421.12503 393.85213 C 418.85672 396.56138 417.00003 399.04268 417.00003 399.36775 C 417.00003 399.69282 420.18841 397.89688 424.08597 395.37557 C 447.22157 380.40923 475.44853 373.23602 494.90628 377.37947 C 508.65675 380.30759 518.40738 385.93508 532.68949 399.18611 C 545.68403 411.24254 560.77143 422.99596 566.81449 425.76815 C 569.7372 427.10891 571.94393 428.3887 571.71878 428.61385 C 571.49363 428.839 567.63939 427.96174 563.15433 426.66268 C 558.66926 425.36362 555.00003 424.42705 555.00003 424.5826 C 555.00003 424.73816 558.77482 427.14529 563.3887 429.93221 C 575.26101 437.10342 581.98382 436.56161 587.31839 428.00057 C 589.23495 424.92484 589.49739 423.10653 589.47659 413.00057 C 589.4558 402.88656 589.13586 400.74334 586.83011 395.22127 C 583.01302 386.07967 578.28317 378.6478 571.66214 371.3951 C 563.30086 362.2361 566.4707 363.49765 576.3262 373.25057 C 588.5915 385.38821 594.20606 397.59968 597.04105 418.30525 C 597.6579 422.81047 598.31316 426.64572 598.49613 426.82869 C 599.12141 427.45396 603.17329 424.83825 607.16605 421.23104 C 609.36011 419.24884 612.35164 415.34796 613.81449 412.56307 C 616.07233 408.26468 616.46549 406.29179 616.418 399.50057 C 616.29995 382.61949 609.22584 366.49404 593.60745 347.50643 L 589.50003 342.51229 L 593.58402 345.70955 C 599.60033 350.41859 609.95054 361.69005 614.34183 368.31697 C 622.09086 380.0111 628.87315 397.59331 631.54495 412.91463 C 632.35386 417.55323 633.18272 421.51529 633.38675 421.71932 C 633.88373 422.2163 638.36075 414.48778 640.46488 409.50057 C 642.53731 404.58848 644.99221 392.28322 645.02152 386.66268 C 645.04142 382.84791 645.32918 383.31326 648.46488 392.25252 C 650.3465 397.61667 652.19515 402.50827 652.57425 403.12166 C 652.95335 403.73505 654.68007 400.00889 656.41019 394.84236 C 665.65185 367.24474 684.01765 349.68913 716.2305 337.65682 C 728.83899 332.94723 750.21272 328.88872 761.3223 329.09627 C 766.24481 329.18817 766.033 329.29073 757.02738 331.15486 C 730.60959 336.62327 709.25462 349.43309 694.78714 368.4908 C 684.26058 382.35724 680.93502 394.38759 684.36722 406.19393 C 686.25549 412.68936 693.10618 420.99276 699.09769 424.0494 C 705.653 427.39367 706.00003 427.07473 706.00003 417.70955 C 706.00003 402.69933 710.93381 390.28357 720.83206 380.38533 C 728.00091 373.21648 731.78249 371.22505 725.99027 377.66854 C 717.34577 387.28498 713.0334 398.0597 713.01175 410.10213 C 712.99745 418.04716 715.43544 422.476 721.44339 425.41854 C 724.89068 427.10692 726.01272 427.19979 730.79886 426.19588 C 733.86117 425.55356 737.76539 423.84199 739.73245 422.27791 C 745.06601 418.03704 750.00271 414.88276 749.97464 415.73494 C 749.93804 416.84651 737.94163 429.25283 735.00003 431.22127 L 732.50003 432.8951 L 735.00003 432.93611 C 739.03894 433.00171 747.69625 430.36899 752.2637 427.68611 C 754.59351 426.31761 760.52584 421.74472 765.44534 417.52596 C 776.08355 408.40307 780.18981 405.90239 789.50003 402.87166 C 804.10505 398.11733 818.73727 400.61607 841.16409 411.69393 C 848.33435 415.23571 854.02113 418.3115 853.80277 418.52986 C 853.58441 418.74823 851.40249 418.32765 848.95316 417.59627 C 843.12216 415.8551 831.00003 414.59073 831.00003 415.72322 C 831.00003 416.20835 833.13754 417.38097 835.75003 418.32869 C 842.01568 420.60167 856.24666 428.24044 856.68949 429.56893 C 856.88131 430.14439 854.44268 431.66688 851.26956 432.95174 C 843.1345 436.2458 842.75489 437.00057 849.23441 437.00057 C 856.76752 437.00057 858.02085 437.57802 870.09769 446.63729 C 903.2853 471.5325 926.60772 505.92601 937.08988 545.42635 L 940.02933 556.50057 L 939.5762 541.50057 C 938.59972 509.12597 928.97318 479.27094 910.55667 451.50057 C 906.90923 446.00057 904.95494 442.6638 906.21292 444.0865 C 939.93631 482.22582 956.21314 514.81336 961.54495 554.86385 C 963.47207 569.33961 963.43853 610.38144 961.48441 628.00057 C 959.54631 645.4755 956.64856 660.9007 956.22464 656.00057 C 955.41315 646.62045 950.52393 627.00057 948.99808 627.00057 C 948.60711 627.00057 947.98418 630.99854 947.61527 635.88533 C 945.34926 665.90271 934.22827 709.65114 921.01956 740.50057 C 910.17426 765.83015 889.48944 802.9382 873.11917 826.43611 C 863.14375 840.75486 863.18519 840.68388 866.00394 838.70955 C 872.79791 833.95087 886.17392 821.59143 893.168 813.60994 C 907.75243 796.96654 919.56074 777.34084 926.93753 757.48299 C 930.3773 748.22338 930.49097 748.4343 928.53909 760.45955 C 927.73933 765.38685 927.23491 769.56943 927.41995 769.75447 C 927.60498 769.93951 929.86548 766.49601 932.44144 762.10213 C 941.48986 746.66797 949.24461 723.98748 950.65238 708.84041 C 951.00524 705.0438 951.61428 701.73795 952.00784 701.49471 C 953.00668 700.8774 956.71151 714.26341 957.54495 721.50057 C 958.13432 726.61835 958.37223 727.1419 959.15433 725.06697 C 961.15919 719.74802 966.38734 698.8406 968.54886 687.50057 L 970.83597 675.50057 L 970.918 692.91658 C 970.9629 702.49573 971.2448 710.08979 971.543 709.79158 C 972.79235 708.54223 980.36387 684.5003 983.44534 672.00057 C 989.7475 646.43648 991.47112 630.93883 991.33988 601.00057 C 991.26618 584.17813 990.71097 570.93995 989.82034 564.75057 C 989.04871 559.38807 988.52248 555.00057 988.65042 555.00057 C 989.42353 555.00057 998.35814 567.58652 1001.4434 573.02205 L 1005.1211 579.50057 L 1004.4688 573.00057 C 1001.6226 544.62033 992.16481 506.94223 981.00394 479.51229 C 978.80128 474.09885 977.00755 469.4061 977.01761 469.08455 C 977.02771 468.76301 979.54565 472.32557 982.61331 477.00057 C 993.91495 494.22384 1001.9736 513.21868 1006.3711 533.00057 C 1010.869 553.23385 1016.0716 597.41569 1015.9453 614.30525 L 1015.8926 621.50057 L 1014.1231 615.97127 C 1012.1003 609.65107 1007.0773 599.87125 1003.6504 595.58065 L 1001.3184 592.66072 L 1000.6875 613.08065 C 999.46077 652.82946 994.9867 682.60532 983.34183 728.50057 C 974.81147 762.12076 959.49943 808.93173 945.4805 844.25057 C 944.12625 847.66241 945.79065 845.91418 950.24222 839.25057 C 960.47187 823.93768 966.50096 813.01105 974.08011 796.04354 C 977.71308 787.9104 977.89012 787.69966 978.67972 790.54354 C 979.1313 792.16999 979.50003 797.88807 979.50003 803.25057 C 979.50003 808.61306 979.57064 813.00057 979.65628 813.00057 C 980.11796 813.00057 986.81768 797.92732 990.99027 787.50057 C 1007.4934 746.26142 1017.1651 701.85182 1018.7051 660.25057 C 1019.036 651.31308 1019.6412 644.00057 1020.0489 644.00057 C 1021.6516 644.00057 1029.1657 661.15403 1031.2344 669.53377 L 1033.4239 678.399 L 1034.961 672.2701 C 1035.807 668.89909 1036.8375 665.80821 1037.25 665.40291 C 1037.6625 664.99761 1038.0146 672.50345 1038.0313 682.0826 C 1038.0663 701.9045 1038.9844 702.51164 1041.6172 684.44979 C 1043.9828 668.22065 1043.9629 638.64633 1041.5762 623.00057 C 1039.4999 609.3911 1035.3363 592.71258 1031.1524 581.25057 C 1029.4961 576.71307 1028.321 573.00057 1028.543 573.00057 C 1028.765 573.00057 1030.535 575.35674 1032.4746 578.2369 L 1036 583.47322 L 1036 579.6158 C 1036 572.93295 1033.0158 554.94414 1029.9297 543.024 C 1026.0585 528.07131 1020.8709 514.075 1014.4668 501.2994 C 1011.6273 495.63486 1009.4247 491.00057 1009.5703 491.00057 C 1009.7159 491.00057 1011.9338 491.90057 1014.5 493.00057 C 1017.0662 494.10057 1019.5555 495.00057 1020.0313 495.00057 C 1022.4569 495.00057 1010.3201 469.33475 1001.4571 455.72127 L 994.80277 445.50057 L 1000.0567 450.50057 L 1005.3125 455.50057 L 1003 451.50057 C 996.08642 439.54302 977.29336 414.3562 963.1387 398.07674 C 929.72803 359.65064 904.87641 339.44507 868.50003 321.13143 C 861.90004 317.80867 856.84434 315.07035 857.26566 315.04549 C 859.61887 314.90667 885.36665 325.04904 896.52933 330.51229 C 919.14748 341.58208 939.39469 356.06975 958.39066 374.77596 C 968.54811 384.77847 969.1288 385.19778 967.01566 381.00057 C 956.19642 359.51089 934.47756 335.48767 912.68363 320.90096 C 907.83508 317.65582 904.13425 315.00057 904.45902 315.00057 C 905.29864 315.00057 917.77636 321.33794 927.22269 326.56307 C 931.63419 329.00324 935.44528 331.00057 935.69144 331.00057 C 936.96164 331.00057 922.28601 314.57242 914.06449 306.79158 C 895.56222 289.28109 874.97489 275.73486 851.00003 265.29549 C 846.26204 263.23242 845.98495 262.97421 849.00003 263.43221 C 852.31306 263.93547 852.39319 263.88252 850.50003 262.42635 C 846.70868 259.51014 830.47248 251.16817 819.50003 246.49861 C 793.68027 235.5105 771.23103 231.36537 742.60355 232.3033 C 717.11482 233.1384 698.33366 236.70846 685.81253 243.09627 C 683.71612 244.16577 682.00003 244.84287 682.00003 244.60018 C 682.00003 244.35749 684.58755 242.32218 687.75003 240.07869 C 690.91251 237.83519 693.12785 236.00057 692.67386 236.00057 C 689.22766 236.00057 654.26788 254.89725 646.11527 261.16658 C 644.8036 262.17525 643.17974 263.00057 642.50784 263.00057 C 641.83594 263.00057 637.28403 260.69375 632.39261 257.87557 C 614.89178 247.79247 594.37986 239.91135 564.07034 231.62166 C 558.9609 230.22422 556.23364 229.65747 555.918 229.90096 z M 480.35941 238.71736 C 479.65644 238.7482 478.49101 238.9114 476.86136 239.2076 C 464.1133 241.52464 451.96582 246.33283 441.00003 253.40291 C 435.25405 257.10758 434.84644 258.16481 440.24027 255.37557 C 444.3686 253.24072 456.92003 248.98725 458.92581 249.04354 C 459.79198 249.06784 458.77068 250.00034 456.65628 251.1158 C 450.62542 254.2974 452.92036 254.26023 460.56449 251.05135 C 464.37913 249.45002 471.4534 247.14864 476.28519 245.93807 C 481.11698 244.72751 484.94199 243.61697 484.78519 243.46932 C 484.6284 243.32167 480.90003 243.56053 476.50003 244.00057 C 472.10004 244.44061 468.37224 244.68004 468.21683 244.53377 C 468.06142 244.38751 470.76142 243.23828 474.21683 241.97908 C 480.41158 239.72161 482.4683 238.62485 480.35941 238.71736 z M 1016.2871 290.93416 C 1016.0866 290.94488 1015.6949 291.63376 1015.1075 293.1119 C 1014.5855 294.42567 1012.5941 299.04976 1010.6836 303.38924 L 1007.211 311.27986 L 1005.6914 308.38924 L 1004.1719 305.50057 L 1003.4844 308.50057 C 1000.2301 322.68075 993.40318 338.09583 986.2598 347.3951 C 978.7192 357.21147 978.93761 356.42493 983.96097 355.62166 C 986.39446 355.23253 990.51256 353.7568 993.11136 352.34236 C 997.86915 349.75285 1005.393 342.99683 1007.1328 339.75057 C 1008.4583 337.27752 1007.5185 337.55117 1002.1797 341.19393 L 997.50003 344.38729 L 1002.0684 338.94393 C 1007.6313 332.31576 1011.9953 325.9411 1014.9375 320.1451 C 1017.3532 315.38632 1016.8245 315.44495 1010.3321 320.65486 C 1008.0395 322.49457 1005.9307 324.00057 1005.6465 324.00057 C 1005.3622 324.00057 1006.8654 320.28806 1008.9864 315.75057 C 1011.1073 311.21307 1013.7557 303.91591 1014.8731 299.53572 C 1016.242 294.16947 1016.7284 290.91059 1016.2871 290.93416 z M 282.1055 302.50057 L 282.05277 307.91658 L 282.00003 313.3326 L 278.54105 309.41658 C 275.70023 306.19936 275.07697 305.85771 275.05081 307.50057 C 275.01261 309.90052 279.33873 319.47335 280.89652 320.43611 C 281.50305 320.81096 282.00003 321.56353 282.00003 322.10799 C 282.00003 322.65245 278.99746 321.41975 275.32816 319.36775 C 271.65884 317.31577 269.04772 316.28135 269.52542 317.06893 C 270.00313 317.85651 274.43847 323.45057 279.38089 329.50057 C 284.32332 335.55056 288.83741 341.11987 289.41214 341.87752 C 289.98688 342.63516 287.16239 341.59619 283.13675 339.56893 L 275.81839 335.88338 L 277.65824 339.01815 C 280.54498 343.93443 290.07257 352.49499 296.05472 355.54744 C 301.40686 358.27844 308.29109 360.80051 310.74808 360.93221 C 311.43446 360.96901 309.02332 357.06306 305.39066 352.25057 C 297.65546 342.0031 288.09979 323.05895 284.58402 311.00057 L 282.1055 302.50057 z M 383.50003 341.68416 L 379.50003 344.024 C 369.98193 349.58997 350.5546 363.23302 339.00003 372.46541 C 326.32044 382.59673 299.21357 408.37179 291.64456 417.49471 C 286.77853 423.35974 287.03016 423.23397 303.50003 411.52596 C 309.00003 407.61615 314.08853 404.05399 314.80863 403.6119 C 315.52873 403.16981 312.28887 407.38841 307.60745 412.9869 C 298.76408 423.56264 288.63895 438.16322 282.97855 448.50057 C 278.90372 455.94224 279.27383 455.58483 299.55667 432.50057 C 318.53105 410.90548 342.42702 384.86281 361.45706 365.03963 C 369.13353 357.04322 377.23354 348.5167 379.45706 346.09236 L 383.50003 341.68416 z M 493.12503 387.37361 C 490.89893 387.40964 488.62679 387.5892 486.31449 387.91268 C 477.10269 389.20135 466.55482 392.18042 460.75003 395.13338 C 455.29233 397.90977 456.15625 398.16221 462.75003 395.71736 C 467.40268 393.99226 470.79016 393.57583 480.50003 393.54158 C 491.13328 393.50408 493.51622 393.83284 501.42972 396.42635 C 506.83139 398.19666 513.18337 401.24166 517.50394 404.13143 C 524.87244 409.05978 538.25052 422.22853 541.53324 427.78572 C 544.36902 432.58633 544.43687 430.8823 541.68167 424.06111 C 531.95989 399.99241 514.64401 387.02532 493.12503 387.37361 z M 449.58206 411.00057 C 449.10584 411.00057 445.51675 411.95068 441.60745 413.1119 C 422.22507 418.86926 405.57037 430.63756 392.97659 447.47322 C 391.29287 449.72407 393.562 448.00969 404.10159 439.07479 C 413.23375 431.33304 426.76979 422.65807 439.47464 416.40291 C 445.51016 413.43135 450.05829 411.00057 449.58206 411.00057 z M 679.11527 435.10018 C 675.6985 435.10307 672.35933 435.57917 668.1973 436.52986 C 659.11159 438.60528 654.11519 441.62779 650.25003 447.38533 C 647.52078 451.45083 646.99822 451.84825 646.98441 449.86385 C 646.95441 445.55102 642.77352 439.64574 637.99613 437.16854 C 633.9479 435.06943 632.55412 434.88747 624.00003 435.33455 C 611.2186 436.00257 600.03146 438.47036 591.09183 442.59627 C 583.09474 446.28716 582.22569 447.43036 588.52738 445.96932 C 604.8795 442.1781 625.33378 448.42763 637.24808 460.85604 L 641.50003 465.29158 L 636.71878 462.07479 C 626.37045 455.11608 613.55199 451.05408 601.83792 451.01815 C 593.77468 450.99345 582.02129 453.44819 575.81644 456.45369 C 570.39111 459.08161 562.61986 464.93696 566.50003 463.47322 C 580.66163 458.13099 589.26984 458.90484 606.18363 467.03768 C 614.51042 471.04154 614.232 471.22853 604.04105 468.47518 C 596.87456 466.53895 582.35452 466.59468 574.64456 468.58846 C 568.06956 470.28874 556.72135 475.25124 551.00003 478.9283 L 547.50003 481.1783 L 552.8848 480.53768 C 561.70334 479.48715 577.74564 479.83929 595.65824 481.47908 C 606.92241 482.51024 626.57454 483.10362 655.00003 483.2701 C 696.49155 483.51309 697.65173 483.57457 703.88675 485.81697 C 716.53422 490.3656 727.85403 499.74268 732.41995 509.45369 C 735.64262 516.30779 737.00003 526.21156 737.00003 542.87557 C 737.00003 563.71667 731.89469 584.10796 723.60941 596.35994 C 719.92612 601.80665 717.56157 603.75282 702.67386 613.58846 C 687.6803 623.49403 676.37841 632.73009 674.02542 637.00057 C 673.31141 638.29643 674.92102 638.51289 685.84964 638.59041 C 699.50053 638.68721 707.51163 640.15794 718.85355 644.65291 C 726.92079 647.85008 737.27696 654.44965 741.9473 659.36971 C 743.84269 661.36645 745.73733 663.00057 746.15824 663.00057 C 747.02876 663.00057 748.25912 658.73568 751.168 645.63533 C 752.47568 639.74611 753.43232 630.63641 753.85941 620.00057 L 754.52152 603.50057 L 755.7598 612.56697 C 757.4738 625.105 757.31415 648.98522 755.42972 661.87557 L 753.85941 672.6158 L 756.99027 685.05721 C 758.71169 691.90021 760.38189 698.17557 760.7012 699.00057 C 761.46162 700.96522 763.3767 692.06708 766.18949 673.50057 L 766.18753 673.50057 C 768.17847 660.35891 768.46161 654.66 768.46488 627.50057 L 768.46878 596.50057 L 764.1973 568.00057 C 755.69969 511.29282 752.30802 496.82317 744.27347 483.01815 C 738.95245 473.87553 726.04408 461.0206 718.25784 457.1119 C 698.44975 447.16819 675.46151 449.58321 655.64652 463.69002 C 650.40163 467.424 650.42305 466.84893 655.78324 460.1744 C 660.29785 454.55278 668.00279 449.56347 675.44144 447.44197 C 685.87878 444.46525 706.35734 447.03083 717.36136 452.69393 C 721.49141 454.8194 720.26541 452.83405 714.50003 448.05916 C 707.84228 442.54521 699.04908 438.3132 690.50003 436.51033 C 686.02658 435.56695 682.53204 435.09728 679.11527 435.10018 z M 845.11331 439.26619 C 843.87399 439.33565 842.79342 439.52552 842.00003 439.85018 C 839.7322 440.77817 839.91795 440.88517 844.00003 441.00643 C 850.02718 441.18546 854.08776 442.83022 848.75003 442.93025 C 845.16431 442.99745 843.18007 445.00057 846.69925 445.00057 C 849.057 445.00057 847.56623 446.30414 840.99808 449.98494 L 835.50003 453.06502 L 839.50003 452.47127 C 843.2843 451.90851 843.3933 451.96092 841.51761 453.46736 C 838.93427 455.54216 830.58614 458.00057 826.11917 458.00057 C 821.83584 458.00057 823.07916 459.8588 828.04105 460.87361 L 831.26566 461.53377 L 824.88284 468.11775 C 821.37212 471.73913 816.02503 476.11582 813.00003 477.84236 C 806.71878 481.42745 807.58093 481.89145 815.23831 479.04549 L 820.50003 477.09041 L 817.00003 480.08455 C 809.104 486.84117 796.18394 490.49089 785.25784 489.05135 C 780.12105 488.37456 780.05095 488.39994 781.75784 490.2994 C 786.75488 495.86014 800.06968 503.75734 811.00003 507.6451 L 817.50003 509.9576 L 811.00003 509.96346 C 800.34312 509.97376 787.17325 506.13058 777.64066 500.22713 C 771.23594 496.26073 774.48858 499.47797 784.27933 506.79354 C 806.98291 523.75742 830.43031 534.58152 849.78714 537.03572 C 862.28816 538.6207 881.77282 535.68766 893.75003 530.41854 C 896.63753 529.14824 899.00003 528.45561 899.00003 528.87947 C 899.00003 529.9934 894.98588 533.48813 891.50003 535.40877 L 888.50003 537.06307 L 893.00003 536.41854 C 895.47503 536.06476 899.07503 535.15851 901.00003 534.40486 C 904.36269 533.08837 904.28421 533.23455 899.00003 538.10018 C 887.33665 548.83973 871.95768 555.49761 855.6973 556.84822 L 846.50003 557.6119 L 850.75394 558.84627 C 856.53016 560.52074 870.63341 566.61069 873.31839 568.59041 C 875.35015 570.08849 874.61002 570.16131 862.50003 569.649 C 849.96988 569.11892 840.78948 567.39455 830.12503 563.56893 C 827.71838 562.70559 825.50894 562.00057 825.21683 562.00057 C 824.92473 562.00057 827.79503 564.22158 831.59378 566.93807 C 835.39254 569.65455 840.30003 573.50322 842.50003 575.48885 C 846.00081 578.64852 846.18802 579.01982 844.00003 578.47322 C 838.19322 577.02259 824.62945 569.7411 812.50003 561.56111 C 795.41305 550.03778 791.72392 548.26399 800.00003 555.5533 C 808.68993 563.20705 832.2474 587.08523 831.67386 587.65877 C 831.42345 587.90917 819.9719 580.69655 806.22659 571.62947 C 779.85854 554.23581 776.20337 551.03786 768.65042 538.75838 C 766.53304 535.31596 765.05685 533.40057 765.37113 534.50057 C 766.67863 539.07684 771.07151 567.59384 772.68753 582.00057 C 775.20177 604.41478 775.22088 662.36305 772.72074 680.00057 C 766.17258 726.19551 759.75484 756.461 741.86722 825.50057 C 733.23159 858.83093 729.07325 871.32854 722.80863 882.77986 C 708.66261 908.63784 682.06667 932.84412 656.75003 942.90096 C 648.40689 946.21552 637.53332 949.00057 632.93753 949.00057 C 631.32166 949.00057 630.00003 949.50772 630.00003 950.12947 C 630.00003 952.201 655.37679 950.59014 663.50003 948.00252 C 672.23764 945.21918 678.31445 942.16903 684.43558 937.49666 C 687.05384 935.4981 689.44715 934.1137 689.75394 934.42049 C 690.06073 934.72728 688.91042 937.23302 687.1973 939.98885 C 685.48418 942.74468 684.41942 945.00057 684.83011 945.00057 C 685.2408 945.00057 689.15806 942.11447 693.53714 938.58846 C 700.44397 933.02712 704.84823 928.31443 710.34378 920.59627 C 711.58122 918.85836 711.65886 918.96762 711.23636 921.84627 C 710.98173 923.58117 711.00959 925.00057 711.29886 925.00057 C 712.07382 925.00057 719.98449 911.02292 725.96292 899.09041 C 728.83162 893.36472 734.68255 880.0897 738.96488 869.59041 C 746.6068 850.85414 759.55102 820.15192 784.95706 760.50057 C 803.92436 715.96685 808.4886 700.70906 809.63284 678.00057 C 810.50733 660.64561 807.23987 633.36758 801.5762 610.7408 C 800.37046 605.92374 799.7309 602.33105 800.15628 602.75643 C 801.907 604.50715 811.33428 630.01202 814.59378 641.81697 C 820.34007 662.62832 823.03175 680.74896 823.81253 703.87947 L 824.50003 724.25838 L 830.31253 716.18221 C 842.65486 699.02819 851.18137 678.98544 855.06449 658.00057 L 857.00784 647.50057 L 856.50784 659.09236 C 855.31537 686.80114 846.65454 716.31458 830.418 748.00057 L 824.0137 760.50057 L 829.05863 755.00057 C 835.62698 747.84028 847.70768 729.81482 853.54105 718.47127 C 857.57411 710.62859 858.44005 710.08773 856.44925 716.65682 C 856.14207 717.67041 857.28021 715.89707 858.97855 712.71541 C 865.78518 699.96386 876.00855 672.57188 882.57034 649.50057 C 884.73486 641.8901 885.81951 639.14664 885.53519 642.00057 C 884.05764 656.83239 884.03301 657.55675 885.10159 655.00057 C 885.6764 653.62557 887.11274 648.22556 888.293 643.00057 C 890.13048 634.86613 890.44253 630.31142 890.46878 611.31307 C 890.48568 599.10986 890.80085 589.93531 891.168 590.92635 C 892.93739 595.7024 896.1155 618.95062 896.64652 631.00057 C 897.62323 653.16396 894.15964 678.45991 887.34183 698.96932 C 876.94558 730.24337 850.84439 771.22155 822.06644 801.44588 L 814.50003 809.39119 L 821.50003 803.26815 C 829.6816 796.11089 848.0258 776.14476 857.54886 764.03182 C 886.76113 726.87503 909.92396 681.45224 916.90824 647.62361 C 918.50765 639.87674 918.93344 638.8653 919.7305 640.91854 C 920.51861 642.94868 921.01342 641.66548 922.81449 632.91854 C 927.72929 609.0496 928.50274 600.77513 928.42581 573.00057 C 928.34381 543.38133 927.45249 536.83176 922.00589 525.85408 L 918.86722 519.52596 L 921.48441 521.98494 L 924.10159 524.44393 L 922.2598 520.47127 C 913.85393 502.33713 903.32814 486.296 889.54886 470.61971 C 882.5019 462.60258 861.54126 443.8488 857.00784 441.50447 C 853.96953 439.9333 848.83129 439.05783 845.11331 439.26619 z M 499.543 439.68807 C 498.9824 439.68027 499.01936 441.52591 500.04105 444.62166 C 501.63991 449.46625 507.555 455.88124 512.50003 458.13338 C 517.22035 460.28317 524.29456 460.46138 528.50003 458.53572 C 531.39641 457.2095 531.25826 457.15877 524.50003 457.05916 C 513.3672 456.89506 505.36764 451.85185 501.40824 442.50057 C 500.58982 440.56764 499.92657 439.6934 499.543 439.68807 z M 798.64456 446.75447 C 798.20184 446.71699 797.00633 447.56886 795.06058 449.32674 C 784.9434 458.467 774.99591 459.87956 765.60745 453.50838 C 762.81871 451.61588 762.16553 451.43697 762.87894 452.76033 C 767.29145 460.94552 779.35972 464.26476 788.09183 459.69393 C 790.7967 458.27806 793.75541 455.53023 795.75003 452.58065 C 798.32956 448.7661 799.29162 446.80925 798.64456 446.75447 z M 324.17777 456.11971 C 322.00333 456.66601 309.77787 466.61386 303.33792 473.18807 C 288.13533 488.70762 276.48908 509.65526 271.61331 530.25057 C 270.72608 533.99822 271.26272 533.72142 274.51956 528.75057 C 278.40483 522.82058 286.65112 513.3853 290.08792 510.93807 L 292.96683 508.88729 L 290.05472 515.37752 C 285.85608 524.73549 280.43911 542.02457 278.09769 553.54158 C 275.96968 564.00889 274.01632 581.0293 274.9512 580.9576 C 275.25279 580.9345 277.75004 578.03539 280.50003 574.51424 C 285.70848 567.84524 287.6265 566.45342 286.43558 570.20565 C 286.05068 571.41838 285.73812 581.8809 285.74222 593.45565 C 285.75222 621.471 287.76762 638.89505 293.97659 664.62947 C 296.54032 675.25537 304.07306 699.36534 305.86331 702.6783 C 306.21371 703.32673 306.50502 697.70172 306.51175 690.1783 C 306.52405 676.39751 308.5039 665.64312 312.39261 658.22127 C 313.67226 655.77896 313.7991 655.99762 315.47659 663.53768 C 322.34771 694.42203 336.54486 724.68758 355.92386 749.76229 C 362.63917 758.45129 373.72725 771.00057 374.68949 771.00057 C 374.95011 771.00057 374.2655 769.53807 373.168 767.75057 C 349.01523 728.41289 330.07563 682.08411 320.33011 638.50057 C 318.85431 631.90057 317.34755 626.14427 316.98245 625.70955 C 315.32294 623.73358 306.09967 642.5752 305.93753 648.27205 C 305.87433 650.49331 305.871 650.49391 305.01761 648.38143 C 303.19128 643.86018 300.87319 619.52408 300.31449 599.00057 C 299.0339 551.95875 305.55565 509.74366 320.43949 468.72518 C 322.87315 462.01821 324.6876 456.35415 324.47269 456.13924 C 324.42176 456.08831 324.32273 456.08329 324.17777 456.11971 z M 369.63675 468.45174 C 369.199 468.66866 367.18773 472.74082 364.16214 479.90486 C 356.28336 498.56043 351.31236 516.41372 348.51175 536.11775 C 346.53971 549.99232 346.56361 578.80407 348.55863 593.10799 C 352.94555 624.56093 364.99794 656.64152 382.70511 684.00057 C 389.47197 694.45592 397.24322 704.94175 398.25003 704.97518 C 398.66253 704.98888 399.00003 702.98748 399.00003 700.52791 C 399.00003 696.73151 398.07637 694.65439 392.88675 686.77791 C 383.73594 672.88934 371.76743 647.72699 366.03909 630.3326 C 356.64755 601.81475 353.41641 579.23717 354.27152 548.11971 C 354.99468 521.80402 359.64825 496.26735 367.53909 475.3033 C 369.36664 470.44796 369.97723 468.28302 369.63675 468.45174 z M 489.23245 469.07869 C 488.98231 469.07861 489.05708 469.25175 489.50003 469.60994 C 495.69498 474.61942 509.28903 478.95499 519.00003 479.01815 C 527.00765 479.07025 525.2018 480.69519 516.0762 481.649 C 510.11656 482.2719 508.52056 483.21856 511.50003 484.3619 C 512.32503 484.67848 513.00003 485.46291 513.00003 486.10604 C 513.00003 486.9571 510.89069 487.08761 505.25003 486.5865 C 488.19117 485.07105 476.8113 480.65363 468.46292 472.30525 C 465.36875 469.21107 464.13951 468.39478 464.99808 470.00447 C 467.57772 474.84098 478.47673 484.61773 484.78128 487.75057 C 492.99522 491.8322 500.62614 493.33673 510.27933 492.77791 L 518.12699 492.32283 L 513.31253 495.32479 C 506.01052 499.87943 497.41422 503.64115 488.00003 506.40096 C 480.96868 508.46222 480.13985 508.90186 483.2012 508.94588 C 485.23663 508.97518 489.28664 508.49136 492.2012 507.86971 C 495.11577 507.24806 499.86275 505.69738 502.75003 504.4244 C 508.25977 501.99518 522.81232 492.32306 529.3223 486.76424 L 533.14652 483.50057 L 524.3223 483.69783 C 516.65246 483.86955 516.08274 483.77411 519.95511 482.96541 C 525.28532 481.85221 534.25897 477.60515 536.14652 475.3033 C 537.35718 473.8269 537.23639 473.7311 535.00003 474.39705 C 533.62503 474.80651 528.16787 475.39359 522.87308 475.69979 C 511.94729 476.33162 502.15869 474.61976 493.00003 470.47908 C 490.96981 469.56121 489.64935 469.07883 489.23245 469.07869 z M 663.91214 486.54158 C 658.92344 486.54322 653.31806 486.56192 647.00003 486.59041 C 597.32291 486.81441 594.70993 487.04679 584.793 492.10604 C 578.85694 495.13439 570.19284 503.68741 567.3223 509.35213 C 563.97611 515.95551 562.68408 524.24427 564.36331 528.34627 L 565.65433 531.50057 L 566.28324 526.22322 C 567.17806 518.71155 571.53069 509.68715 576.44339 505.15877 C 583.32929 498.81157 588.24411 497.48588 604.50003 497.59041 C 612.20002 497.63991 636.27505 497.78277 658.00003 497.90877 C 705.48731 498.18418 705.51017 498.18762 714.17581 507.18221 C 717.42727 510.55709 721.39842 516.09392 723.21878 519.79158 C 726.09747 525.63904 726.50568 527.52738 726.83792 536.50252 C 727.30898 549.22784 725.82443 555.30846 718.45902 570.81893 C 710.93222 586.66926 708.95963 589.23318 699.41409 595.58455 C 689.78875 601.98904 682.98694 604.88202 670.29495 607.96541 C 659.66272 610.54841 654.04883 613.78813 651.09183 619.0494 C 647.62244 625.22234 648.41286 627.30539 652.0137 621.47908 C 656.11568 614.84195 659.30535 613.31551 676.05081 609.98885 C 698.87755 605.45407 704.63391 602.22515 714.61527 588.34432 C 724.34606 574.81195 730.62174 556.71116 731.67386 539.1451 C 733.0802 515.66508 726.58356 500.87292 710.80081 491.62361 C 703.52917 487.36215 698.83309 486.53016 663.91214 486.54158 z M 695.43167 512.82479 C 689.80742 512.78825 682.86614 514.34141 672.77152 517.58455 C 664.92231 520.10631 655.19802 522.80631 651.16214 523.58455 C 641.70013 525.40914 628.97625 525.37307 622.00003 523.50057 C 618.97504 522.68863 616.27503 522.0279 616.00003 522.03182 C 613.93437 522.06132 626.0928 528.25774 631.48245 529.92244 C 643.05662 533.49734 653.76628 534.18231 671.48441 532.48494 C 683.43222 531.34035 688.20605 531.24367 691.3555 532.08065 C 696.12128 533.34716 705.00003 537.93065 705.00003 539.12361 C 705.00003 540.32647 712.2184 545.00057 714.0762 545.00057 C 714.96328 545.00057 716.48537 544.12114 717.45706 543.04744 C 718.89894 541.45417 719.15378 539.72188 718.84574 533.62166 C 718.51398 527.05192 718.09462 525.68345 715.37699 522.32283 C 713.67647 520.21998 709.9185 517.26307 707.02738 515.75057 C 703.38282 513.84391 699.80609 512.8532 695.43167 512.82479 z M 625.64066 533.05916 C 625.01321 533.09146 625.36352 533.654 626.41995 534.30916 C 630.76513 537.00384 636.27363 542.61118 638.80472 546.91658 C 641.04892 550.73399 641.49467 552.67073 641.47269 558.50057 C 641.44419 566.04948 639.86732 570.24277 635.13675 575.33846 C 629.72206 581.17106 621.85215 583.29618 610.80277 581.90877 C 599.31266 580.46602 592.02047 575.40008 587.35745 565.62166 C 584.46561 559.5574 582.16487 561.37878 584.46878 567.90877 C 587.43929 576.32808 593.79439 582.10224 602.9512 584.70174 C 609.54478 586.57357 621.45388 585.73735 627.29691 582.9908 C 641.4032 576.36006 646.97615 558.46433 639.21292 544.72322 C 636.45041 539.83348 628.40135 532.91685 625.64066 533.05916 z M 676.01956 539.10018 C 675.62686 539.07442 674.40447 539.67509 672.36527 540.91854 C 666.18872 544.6848 661.99118 552.58171 662.0098 560.399 C 662.0301 568.90931 669.28321 579.09967 677.92777 582.76424 C 686.17165 586.25895 698.4782 586.32751 705.168 582.91463 C 711.32599 579.77306 715.54211 572.82161 717.39847 562.75057 C 717.93185 559.85685 717.7669 559.00057 716.67386 559.00057 C 715.73644 559.00057 715.04189 560.62838 714.61917 563.81502 C 713.85123 569.60407 710.10457 575.70363 705.293 579.00057 C 700.37133 582.37295 690.94691 582.95797 684.8887 580.26619 C 668.35654 572.92062 662.19173 552.54242 673.39652 542.274 C 675.65801 540.2015 676.52447 539.13329 676.01956 539.10018 z M 595.91214 598.27791 L 598.05472 600.55721 C 601.3424 604.05677 608.79066 606.80518 619.64066 608.5201 C 629.7494 610.11787 638.25746 613.41797 641.49613 616.99666 C 643.8063 619.54939 644.36422 619.54932 642.99808 616.99666 C 641.37062 613.95572 635.34767 608.23148 631.89847 606.44783 C 627.99642 604.43001 616.85206 602.04997 611.00003 601.98494 C 608.52503 601.95744 604.11677 601.11175 601.20511 600.10604 L 595.91214 598.27791 z M 272.55667 625.93611 C 272.3041 625.81584 272.12793 626.78836 271.82034 628.52205 C 270.58181 635.50308 270.98643 659.14186 272.52933 669.99861 C 275.45316 690.57249 280.36392 707.2081 288.99417 725.76424 C 293.64394 735.76183 295.39394 737.60958 291.95902 728.8951 C 286.92511 716.12397 280.91119 687.05137 281.07034 676.25643 L 281.14066 671.50057 L 282.87503 676.50057 C 283.82954 679.25056 287.22109 689.29109 290.41019 698.81307 C 295.97013 715.41391 297.95476 719.93305 295.96683 711.46736 C 289.15496 682.45863 286.10892 670.93919 281.57034 657.00057 C 278.61542 647.92558 275.37302 636.90997 274.36331 632.52205 C 273.33465 628.0517 272.88141 626.09076 272.55667 625.93611 z " />
    <path
       id="path3"
       style="fill:#ff8080"
       d="M 622.96488 646.32869 C 611.44894 646.39353 607.58768 646.91302 598.74808 648.6158 C 591.73434 649.96688 583.85933 651.98349 581.24808 653.09627 C 575.12843 655.70413 563.40932 663.30236 564.79495 663.76424 C 565.3802 663.95933 570.91106 662.91259 577.08597 661.43611 C 585.42378 659.44246 589.82274 658.88675 594.17972 659.28182 C 597.61468 659.59329 602.83515 659.21777 606.77347 658.37361 C 614.98248 656.614 655.56587 657.27966 674.50003 659.48494 C 681.10003 660.25365 690.28065 661.15006 694.90042 661.47713 C 703.79815 662.10708 720.81155 665.14641 725.00003 666.85408 C 730.64628 669.15609 729.0101 667.68097 721.50003 663.69979 C 717.10004 661.36729 712.36841 658.69864 710.98441 657.76815 C 706.75988 654.92788 700.23327 653.06677 690.64652 651.96736 C 685.61591 651.39045 677.45003 649.95092 672.50003 648.76815 C 664.66427 646.89584 660.13668 646.58811 637.50003 646.38924 C 631.49249 646.33646 626.80352 646.30708 622.96488 646.32869 z M 720.50003 835.50057 L 719.22269 844.78768 C 716.63548 863.58679 708.7619 882.20621 699.89456 890.50057 C 693.80763 896.19418 685.41192 900.21634 672.42191 903.65682 C 663.66021 905.97741 660.51344 906.29315 645.50003 906.36385 C 626.87537 906.45155 616.6856 904.98604 603.68753 900.34822 C 590.02572 895.47359 583.06063 891.1803 573.83402 881.94783 C 565.02606 873.13429 564.28528 873.48539 570.53909 883.50643 C 578.7761 896.70531 597.74432 907.2637 620.65433 911.40291 C 631.81799 913.41988 659.02255 913.42548 668.793 911.41268 C 687.1629 907.62749 700.28211 900.06775 708.51956 888.524 C 717.32403 876.18565 721.32704 862.17768 720.81058 845.50057 L 720.50003 835.50057 z M 702.8262 874.79354 C 702.03152 874.79157 698.59736 875.93203 694.5137 877.57869 C 688.95501 879.82014 684.37432 881.00057 681.2305 881.00057 C 678.59098 881.00057 673.97081 881.85358 670.96488 882.89705 C 659.89732 886.739 605.2551 885.5527 591.25003 881.16658 C 587.81254 880.09002 585.00003 879.31915 585.00003 879.45369 C 585.00003 879.58823 589.29275 882.5221 594.53909 885.97322 C 603.27415 891.71927 604.72766 892.33065 611.78909 893.22127 C 616.03024 893.75619 621.97504 894.80317 625.00003 895.54744 C 630.70325 896.95067 645.4825 896.81151 663.50003 895.18611 C 672.81573 894.34573 684.76477 890.59998 690.50003 886.72127 C 694.1332 884.26419 703.00003 875.85433 703.00003 874.8658 C 703.00003 874.81704 702.93973 874.79382 702.8262 874.79354 z " />
    <path
       id="path4"
       style="display:inline;fill:#ffdd55"
       d="M 681.75589 663.0201 C 679.58919 663.07368 677.28397 663.74873 675.25003 664.98885 C 672.48268 666.67614 672.00003 667.54596 672.00003 670.84822 C 672.00003 678.76448 676.6963 695.00057 678.98636 695.00057 C 679.39352 695.00057 680.88697 692.41306 682.30472 689.25057 C 687.03289 678.70372 688.71207 664.87008 685.418 663.60604 C 684.30534 663.17907 683.05591 662.98795 681.75589 663.0201 z M 599.21683 665.37557 C 598.74813 665.3853 598.30383 665.43259 597.89652 665.52205 C 595.00674 666.15675 595.00003 666.17693 595.00003 673.86971 C 595.00003 681.29112 596.86186 691.00587 599.07816 695.14705 C 600.5121 697.82639 602.10545 696.39584 605.37113 689.49861 C 608.99226 681.85067 610.78886 671.65565 608.91409 669.3951 C 607.0082 667.09699 602.4977 665.30743 599.21683 665.37557 z M 710.31058 667.00057 C 706.05804 667.00057 704.46799 667.58075 700.31839 670.65096 C 697.60396 672.6593 694.433 675.64106 693.27152 677.27596 L 691.15824 680.24861 L 695.94925 689.37361 C 698.58402 694.39287 701.46078 701.20057 702.34183 704.50057 C 703.73194 709.70728 710.00003 745.61633 710.00003 748.37361 C 710.00003 750.68516 716.33741 743.05269 719.01956 737.51033 C 727.14155 720.72726 730.87109 683.36115 725.3555 674.024 C 722.94413 669.94188 716.64318 667.00057 710.31058 667.00057 z M 573.18167 668.37947 C 566.7777 668.47057 564.90621 670.44939 561.42581 677.56307 C 558.77963 682.97168 558.73808 683.35375 559.27347 697.28963 C 559.64464 706.95125 560.48207 714.00862 561.89066 719.3365 C 563.98026 727.24029 570.69161 741.88767 573.81253 745.35604 C 575.43443 747.15849 575.52605 747.08035 576.18167 743.3658 C 576.55694 741.23967 577.57189 734.3107 578.43558 727.96736 C 580.27118 714.48577 583.58105 700.8965 587.91214 689.05916 C 591.4114 679.49534 591.81138 674.15392 589.25003 671.21346 C 587.83255 669.58617 585.77307 669.08514 578.41409 668.57869 C 576.3781 668.43857 574.65951 668.35845 573.18167 668.37947 z M 614.00003 671.89119 L 614.02152 678.19588 C 614.03612 682.38032 614.73207 686.01395 616.09183 689.00057 C 618.05679 693.31644 618.20226 693.41874 619.61527 691.50057 C 620.42558 690.40057 621.77293 687.14615 622.60941 684.2701 C 623.44589 681.39404 623.98769 677.56904 623.81449 675.7701 C 623.51209 672.62926 623.31128 672.48856 618.75003 672.19588 L 614.00003 671.89119 z M 658.50003 672.50057 L 658.53128 678.00057 C 658.56778 684.45502 660.82679 693.22433 662.32425 692.72518 C 662.8982 692.53386 664.29265 690.60438 665.42386 688.43807 C 666.82823 685.74864 667.48377 682.59744 667.49027 678.50057 L 667.50003 672.50057 L 663.00003 672.50057 L 658.50003 672.50057 z M 632.39456 673.45174 C 627.96406 673.51612 626.12672 676.82654 627.92777 682.28377 C 628.94995 685.38101 632.3434 690.00057 633.59574 690.00057 C 633.88024 690.00057 634.94996 688.08807 635.97269 685.75057 C 636.99541 683.41307 637.9822 679.95778 638.16605 678.07283 C 638.45706 675.0892 638.15824 674.55457 635.86331 673.94002 C 634.57748 673.59571 633.41699 673.43688 632.39456 673.45174 z M 648.92581 673.48299 C 647.65981 673.49109 646.35926 673.67389 645.50003 674.00057 C 641.86845 675.3813 641.91667 682.55938 645.58792 686.92244 C 647.01182 688.61464 648.53911 690.00057 648.9805 690.00057 C 649.42189 690.00057 650.45268 688.31307 651.27152 686.25057 C 652.09035 684.18807 653.06894 680.64892 653.44534 678.38729 C 654.10892 674.40028 654.03628 674.25704 651.06449 673.66268 C 650.43232 673.53625 649.68542 673.47813 648.92581 673.48299 z M 565.89456 802.56502 C 565.40214 802.86935 565.00647 809.05413 565.0137 816.30916 C 565.036 838.6871 569.49674 855.00635 578.19534 864.524 C 583.93389 870.80289 584.20986 870.82063 592.7012 865.40486 C 595.56231 863.58005 598.59982 860.73876 599.4512 859.09236 C 601.209 855.69316 601.50433 847.8127 599.9805 844.96541 C 599.42017 843.91842 595.48267 840.39355 591.2305 837.13338 C 579.40533 828.06694 576.68131 824.70703 571.47269 812.75643 C 568.89712 806.84706 566.38697 802.26069 565.89456 802.56502 z M 709.45902 805.18416 C 708.77994 805.24698 707.4585 807.92827 704.01566 815.37361 C 699.3685 825.42336 697.67051 828.01524 692.75199 832.56893 C 689.56664 835.518 684.83205 839.38569 682.2305 841.16268 C 676.4987 845.07778 675.32398 846.539 674.52542 850.75057 C 673.5089 856.11162 674.95626 860.86012 678.71878 864.51424 C 682.03285 867.73282 689.33758 871.99694 691.54105 871.99861 C 692.11404 871.99905 694.43054 870.08807 696.68753 867.75057 C 703.48583 860.70979 706.8618 852.47815 709.50394 836.50057 C 710.99802 827.46562 711.31637 812.08421 710.12503 806.5201 C 709.94257 805.6679 709.76769 805.15561 709.45902 805.18416 z M 603.04495 847.50057 L 603.02152 856.55916 C 602.99862 865.87396 603.6173 867.7082 607.50003 869.85799 C 610.72083 871.64126 612.47085 870.78144 612.81253 867.24861 C 613.12598 864.00761 609.25256 855.46614 604.99222 850.00057 L 603.04495 847.50057 z M 672.95511 847.50057 L 671.00589 850.00057 C 669.93409 851.37557 667.69531 855.03725 666.02933 858.13924 C 660.97354 867.55292 662.47666 872.45035 669.31644 868.85018 C 672.69269 867.07306 672.97033 866.13266 672.96292 856.50057 L 672.95511 847.50057 z M 619.34378 854.774 L 617.17191 859.82283 C 615.00602 864.85759 614.40212 869.06868 615.66605 870.3326 C 616.77088 871.43744 621.51742 871.08279 622.80081 869.7994 C 624.61094 867.98927 624.17137 864.00028 621.62699 859.13729 L 619.34378 854.774 z M 657.00003 856.00838 C 655.96263 856.00838 653.00003 864.64982 653.00003 867.67635 C 653.00003 871.18806 654.08363 871.97996 658.50003 871.69393 C 661.2829 871.5137 661.48104 871.24724 661.22855 868.00057 C 660.95802 864.52192 657.95585 856.00838 657.00003 856.00838 z M 628.07816 858.00057 C 626.90098 858.00057 625.00003 863.60634 625.00003 867.07869 C 625.00003 871.86175 630.89466 875.32214 632.39261 871.41854 C 632.72646 870.54856 633.00003 868.95445 633.00003 867.87752 C 633.00003 865.45843 629.28362 858.00057 628.07816 858.00057 z M 637.92386 859.00057 C 637.00306 859.00057 634.00003 866.51681 634.00003 868.82088 C 634.00003 869.79975 634.53925 871.1394 635.19925 871.7994 C 636.89293 873.49307 641.94784 873.29936 642.63284 871.51424 C 643.23814 869.93692 639.12261 859.00057 637.92386 859.00057 z M 646.80472 859.20174 C 646.58084 859.20911 646.36385 859.27537 646.15433 859.40486 C 644.51077 860.42064 643.61005 868.84756 644.85355 871.57674 C 646.16783 874.46128 647.06388 874.57917 649.94925 872.24275 C 651.90011 870.66304 652.01979 870.04286 651.1348 866.10408 C 650.20789 861.97871 648.37188 859.15016 646.80472 859.20174 z " />
    <path
       style="fill:#ff0000"
       d="m 656.28426,849.42634 c 11.47702,-2.97399 21.69677,-9.46247 27.03359,-17.1635 4.07049,-5.87372 9.58681,-19.66411 10.86392,-27.15899 1.11345,-6.5345 0.54121,-16.31601 -1.11093,-18.98922 -0.70654,-1.14321 -1.72718,-1.15666 -6.20766,-0.0818 -12.61512,3.02632 -26.37826,10.39212 -33.98145,18.1863 -4.44023,4.55177 -9.80364,14.6288 -9.99594,18.78088 -0.16663,3.59784 -1.75527,-4.49152 -1.82816,-9.30902 -0.0912,-6.02926 -1.82798,-3.3419 -2.63001,4.06954 l -0.72932,6.73948 -1.715,-6 c -3.91183,-13.68577 -7.89687,-19.07815 -18.4833,-25.01081 -6.657,-3.73059 -18.52566,-7.84986 -25.6266,-8.89426 -5.37064,-0.7899 -5.61759,-0.47359 -6.49752,8.32239 -1.1659,11.65463 4.0771,26.81412 13.76733,39.80653 5.5389,7.42642 9.90281,10.97549 16.85679,13.70924 11.28254,4.43541 29.49614,5.78873 40.28426,2.99325 z"
       id="path5" />
    <path
       id="path6"
       style="fill:#ffff00"
       d="M 787.74222 428.00057 C 783.55094 428.00057 781.3435 429.53322 780.668 432.91072 C 779.83325 437.08445 776.75155 438.54051 771.85941 437.07479 C 763.74162 434.64264 759.25786 441.89937 764.86917 448.38729 C 767.48102 451.40715 772.04493 452.91948 778.67386 452.9615 C 783.90749 452.9947 785.31959 452.6004 787.95902 450.37947 C 791.82267 447.12843 794.0375 441.99259 794.29886 435.6783 C 794.52692 430.16836 792.67482 428.00057 787.74222 428.00057 z M 511.3262 430.39705 C 510.52439 430.4003 509.48768 431.05615 508.33597 432.3951 C 504.9521 436.32907 505.11369 442.79173 508.7012 447.05525 C 513.69751 452.99302 520.33137 454.39505 527.66995 451.06307 C 533.59371 448.37347 535.98363 442.89071 532.49417 439.99471 C 531.28957 438.99498 530.09292 438.9943 526.53324 439.9908 C 524.08429 440.67646 520.92697 440.94658 519.51566 440.59236 C 515.98342 439.70598 513.00003 436.48623 513.00003 433.55916 C 513.00003 431.46824 512.35711 430.39287 511.3262 430.39705 z " />
  </g>
</svg>
