<?xml version="1.0" encoding="UTF-8" standalone="no"?>
<!-- Created with Inkscape (http://www.inkscape.org/) -->

<svg
   version="1.1"
   id="svg1"
   width="880"
   height="880"
   viewBox="0 0 880 880"
   sodipodi:docname="rock-by-the-sea-publicdomainvectors.org.svg"
   inkscape:version="1.3.2 (091e20e, 2023-11-25, custom)"
   xmlns:inkscape="http://www.inkscape.org/namespaces/inkscape"
   xmlns:sodipodi="http://sodipodi.sourceforge.net/DTD/sodipodi-0.dtd"
   xmlns="http://www.w3.org/2000/svg"
   xmlns:svg="http://www.w3.org/2000/svg">
  <defs
     id="defs1">
    <clipPath
       clipPathUnits="userSpaceOnUse"
       id="clipPath5">
      <path
         d="M 0,660 H 660 V 0 H 0 Z"
         transform="translate(-1.1929,-231.25101)"
         id="path5" />
    </clipPath>
    <clipPath
       clipPathUnits="userSpaceOnUse"
       id="clipPath7">
      <path
         d="M 0,660 H 660 V 0 H 0 Z"
         transform="translate(-1.1929,-658.66992)"
         id="path7" />
    </clipPath>
    <clipPath
       clipPathUnits="userSpaceOnUse"
       id="clipPath9">
      <path
         d="M 0,660 H 660 V 0 H 0 Z"
         transform="translate(-661.43362,-364.20411)"
         id="path9" />
    </clipPath>
    <clipPath
       clipPathUnits="userSpaceOnUse"
       id="clipPath11">
      <path
         d="M 0,660 H 660 V 0 H 0 Z"
         id="path11" />
    </clipPath>
    <clipPath
       clipPathUnits="userSpaceOnUse"
       id="clipPath13">
      <path
         d="M 0,660 H 660 V 0 H 0 Z"
         transform="translate(-661.43362,1.5702975)"
         id="path13" />
    </clipPath>
    <clipPath
       clipPathUnits="userSpaceOnUse"
       id="clipPath15">
      <path
         d="M 0,660 H 660 V 0 H 0 Z"
         transform="translate(-331.31251,1.5702975)"
         id="path15" />
    </clipPath>
    <clipPath
       clipPathUnits="userSpaceOnUse"
       id="clipPath17">
      <path
         d="M 0,660 H 660 V 0 H 0 Z"
         transform="translate(-131.3511,-527.90921)"
         id="path17" />
    </clipPath>
    <clipPath
       clipPathUnits="userSpaceOnUse"
       id="clipPath19">
      <path
         d="M 0,660 H 660 V 0 H 0 Z"
         transform="translate(-249.0151,-349.32131)"
         id="path19" />
    </clipPath>
    <clipPath
       clipPathUnits="userSpaceOnUse"
       id="clipPath21">
      <path
         d="M 0,660 H 660 V 0 H 0 Z"
         transform="translate(-237.85351,-397.22461)"
         id="path21" />
    </clipPath>
    <clipPath
       clipPathUnits="userSpaceOnUse"
       id="clipPath23">
      <path
         d="M 0,660 H 660 V 0 H 0 Z"
         transform="translate(-240.64501,-98.181602)"
         id="path23" />
    </clipPath>
    <clipPath
       clipPathUnits="userSpaceOnUse"
       id="clipPath25">
      <path
         d="M 0,660 H 660 V 0 H 0 Z"
         transform="translate(-661.43362,-252.71191)"
         id="path25" />
    </clipPath>
    <clipPath
       clipPathUnits="userSpaceOnUse"
       id="clipPath27">
      <path
         d="M 0,660 H 660 V 0 H 0 Z"
         transform="translate(-503.87111,1.5702975)"
         id="path27" />
    </clipPath>
    <clipPath
       clipPathUnits="userSpaceOnUse"
       id="clipPath29">
      <path
         d="M 0,660 H 660 V 0 H 0 Z"
         transform="translate(-478.71971,-585.00291)"
         id="path29" />
    </clipPath>
    <clipPath
       clipPathUnits="userSpaceOnUse"
       id="clipPath31">
      <path
         d="M 0,660 H 660 V 0 H 0 Z"
         transform="translate(-514.61521,-567.01612)"
         id="path31" />
    </clipPath>
    <clipPath
       clipPathUnits="userSpaceOnUse"
       id="clipPath33">
      <path
         d="M 0,660 H 660 V 0 H 0 Z"
         transform="translate(-299.6299,-562.77052)"
         id="path33" />
    </clipPath>
    <clipPath
       clipPathUnits="userSpaceOnUse"
       id="clipPath35">
      <path
         d="M 0,660 H 660 V 0 H 0 Z"
         transform="translate(-347.53031,-538.76812)"
         id="path35" />
    </clipPath>
    <clipPath
       clipPathUnits="userSpaceOnUse"
       id="clipPath37">
      <path
         d="M 0,660 H 660 V 0 H 0 Z"
         transform="translate(-524.05571,-457.02391)"
         id="path37" />
    </clipPath>
    <clipPath
       clipPathUnits="userSpaceOnUse"
       id="clipPath39">
      <path
         d="M 0,660 H 660 V 0 H 0 Z"
         transform="translate(-546.54881,-445.75291)"
         id="path39" />
    </clipPath>
  </defs>
  <sodipodi:namedview
     id="namedview1"
     pagecolor="#ffffff"
     bordercolor="#000000"
     borderopacity="0.25"
     inkscape:showpageshadow="2"
     inkscape:pageopacity="0.0"
     inkscape:pagecheckerboard="0"
     inkscape:deskcolor="#d1d1d1"
     inkscape:zoom="0.67272727"
     inkscape:cx="439.25676"
     inkscape:cy="440"
     inkscape:window-width="1440"
     inkscape:window-height="830"
     inkscape:window-x="-6"
     inkscape:window-y="-6"
     inkscape:window-maximized="1"
     inkscape:current-layer="g1">
    <inkscape:page
       x="0"
       y="0"
       inkscape:label="1"
       id="page1"
       width="880"
       height="880"
       margin="0 0 1.7733333 1.59052"
       bleed="0" />
  </sodipodi:namedview>
  <g
     id="g1"
     inkscape:groupmode="layer"
     inkscape:label="1">
    <g
       id="group-MC0">
      <path
         id="path2"
         d="M 1.193,0 H 660 V 658.669 H 1.193 Z"
         style="fill:#9cb4d2;fill-opacity:1;fill-rule:nonzero;stroke:none"
         transform="matrix(1.3333333,0,0,-1.3333333,0,880)" />
      <path
         id="path3"
         d="M 0,0 H -128.36 L 468.544,-113.151 V 0 Z"
         style="fill:#cadaeb;fill-opacity:1;fill-rule:nonzero;stroke:none"
         transform="matrix(1.3333333,0,0,-1.3333333,255.2736,1.774)" />
      <path
         id="path4"
         d="m 0,0 v 96.02 c 11.371,-1.864 20.047,-11.734 20.047,-23.632 0,-3.995 -0.979,-7.761 -2.708,-11.073 4.726,-1.258 9.02,-3.578 12.612,-6.686 2.255,1.979 5.21,3.179 8.445,3.179 7.076,0 12.811,-5.736 12.811,-12.811 0,-2.329 -0.621,-4.513 -1.708,-6.395 4.813,-0.361 9.22,-2.171 12.789,-4.998 4.105,3.997 9.711,6.459 15.894,6.459 3.691,0 7.178,-0.878 10.262,-2.435 3.019,7.689 10.509,13.133 19.27,13.133 11.27,0 20.435,-9.009 20.69,-20.218 2.643,1.615 5.75,2.545 9.075,2.545 2.233,0 4.367,-0.419 6.329,-1.184 2.602,5.862 7.654,10.395 13.856,12.297 -0.275,1.369 -0.419,2.785 -0.419,4.234 0,11.816 9.578,21.394 21.393,21.394 1.114,0 2.209,-0.086 3.276,-0.25 2.006,8.927 9.98,15.597 19.512,15.597 11.045,0 19.998,-8.953 19.998,-19.998 0,-2.091 -0.321,-4.108 -0.917,-6.002 9.086,-1.76 16.268,-8.857 18.152,-17.898 0.982,0.119 1.983,0.182 2.997,0.182 8.645,0 16.241,-4.495 20.58,-11.275 1.941,12.485 11.765,22.361 24.223,24.382 -1.152,2.926 -1.783,6.114 -1.783,9.449 0,14.255 11.555,25.812 25.81,25.812 14.257,0 25.812,-11.557 25.812,-25.812 0,-11.925 -8.087,-21.959 -19.075,-24.922 2.085,-4.028 3.263,-8.6 3.263,-13.447 0,-16.182 -13.118,-29.3 -29.301,-29.3 -11.094,0 -20.746,6.168 -25.721,15.26 -2.471,-10.869 -12.193,-18.98 -23.808,-18.98 -9.334,0 -17.443,5.236 -21.552,12.933 -3.704,-6.081 -10.398,-10.143 -18.04,-10.143 -9.21,0 -17.04,5.9 -19.922,14.127 -4.07,-5.469 -10.581,-9.011 -17.921,-9.011 -4.896,0 -9.422,1.577 -13.102,4.249 -3.195,-4.006 -8.118,-6.573 -13.64,-6.573 -8.917,0 -16.27,6.691 -17.313,15.327 -3.464,-2.615 -7.777,-4.167 -12.452,-4.167 -2.709,0 -5.297,0.523 -7.667,1.469 -2.779,-9.45 -11.515,-16.351 -21.865,-16.351 -5.059,0 -9.732,1.65 -13.513,4.44 C 60.395,-5.529 54.381,-8.304 47.72,-8.304 38.737,-8.304 30.934,-3.26 26.983,4.149 21.888,0.693 15.739,-1.328 9.119,-1.328 5.95,-1.328 2.889,-0.861 0,0"
         style="fill:#e5eff9;fill-opacity:1;fill-rule:evenodd;stroke:none"
         transform="matrix(1.3333333,0,0,-1.3333333,1.5905333,571.66533)"
         clip-path="url(#clipPath5)" />
      <path
         id="path6"
         d="m 0,0 h 173.639 c 22.318,-23.164 36.046,-54.661 36.046,-89.368 0,-71.149 -57.676,-128.826 -128.824,-128.826 -30.627,0 -58.753,10.696 -80.861,28.545 z"
         style="fill:#e5eff9;fill-opacity:1;fill-rule:evenodd;stroke:none"
         transform="matrix(1.3333333,0,0,-1.3333333,1.5905333,1.7734667)"
         clip-path="url(#clipPath7)" />
      <path
         id="path8"
         d="m 0,0 -410.558,96.735 -20.463,-63.25 18.602,-48.368 57.67,-56.739 -20.463,-64.181 -40.926,-43.716 -4.651,-86.503 -54.879,-30.696 -26.975,-53.018 -79.062,-16.038 H 0 Z"
         style="fill:#463d3b;fill-opacity:1;fill-rule:evenodd;stroke:none"
         transform="matrix(1.3333333,0,0,-1.3333333,881.91147,394.39453)"
         clip-path="url(#clipPath9)" />
      <path
         id="path10"
         d="M 661.434,-1.57 H 1.193 v 246.328 h 660.241 z"
         style="fill:#486fa7;fill-opacity:1;fill-rule:evenodd;stroke:none"
         transform="matrix(1.3333333,0,0,-1.3333333,0,880)"
         clip-path="url(#clipPath11)" />
      <path
         id="path12"
         d="m 0,0 h -581.705 l 79.062,16.038 26.975,53.019 54.879,30.695 4.651,86.504 40.926,43.716 5.215,16.356 369.997,0 z"
         style="fill:#1c3251;fill-opacity:1;fill-rule:evenodd;stroke:none"
         transform="matrix(1.3333333,0,0,-1.3333333,881.91147,882.09373)"
         clip-path="url(#clipPath13)" />
      <path
         id="path14"
         d="m 0,0 h -251.584 l 79.063,16.038 26.974,53.019 54.88,30.695 4.65,86.504 40.926,43.716 5.215,16.356 H 216.278 L 188.374,193.702 205.118,115.568 33.04,37.436 Z"
         style="fill:#284470;fill-opacity:1;fill-rule:evenodd;stroke:none"
         transform="matrix(1.3333333,0,0,-1.3333333,441.75,882.09373)"
         clip-path="url(#clipPath15)" />
      <path
         id="path16"
         d="m 0,0 c 8.99,0 16.278,-7.288 16.278,-16.277 0,-8.99 -7.288,-16.278 -16.278,-16.278 -8.989,0 -16.277,7.288 -16.277,16.278 C -16.277,-7.288 -8.989,0 0,0 m -32.089,-51.157 c 6.678,0 12.092,-5.414 12.092,-12.093 0,-6.678 -5.414,-12.091 -12.092,-12.091 -6.678,0 -12.092,5.413 -12.092,12.091 0,6.679 5.414,12.093 12.092,12.093 m -68.366,84.642 c 10.017,0 18.138,-8.12 18.138,-18.137 0,-10.018 -8.121,-18.138 -18.138,-18.138 -10.018,0 -18.138,8.12 -18.138,18.138 0,10.017 8.12,18.137 18.138,18.137 m 54.879,79.993 c 11.044,0 19.998,-8.954 19.998,-19.998 0,-11.044 -8.954,-19.998 -19.998,-19.998 -11.045,0 -19.998,8.954 -19.998,19.998 0,11.044 8.953,19.998 19.998,19.998 m 0,-93.015 c 7.449,0 13.487,-6.038 13.487,-13.487 0,-7.449 -6.038,-13.487 -13.487,-13.487 -7.449,0 -13.487,6.038 -13.487,13.487 0,7.449 6.038,13.487 13.487,13.487 m 105.571,3.722 c 5.138,0 9.301,-4.165 9.301,-9.303 0,-5.136 -4.163,-9.301 -9.301,-9.301 -5.137,0 -9.302,4.165 -9.302,9.301 0,5.138 4.165,9.303 9.302,9.303 M 16.743,91.154 c 13.613,0 24.649,-11.035 24.649,-24.648 0,-13.613 -11.036,-24.649 -24.649,-24.649 -13.613,0 -24.648,11.036 -24.648,24.649 0,13.613 11.035,24.648 24.648,24.648"
         style="fill:#cadaeb;fill-opacity:1;fill-rule:evenodd;stroke:none"
         transform="matrix(1.3333333,0,0,-1.3333333,175.1348,176.12107)"
         clip-path="url(#clipPath17)" />
      <path
         id="path18"
         d="M 0,0 -11.162,47.903 7.441,100.689 412.419,14.883 0,113.71 -20.463,46.972 Z"
         style="fill:#cadaeb;fill-opacity:1;fill-rule:evenodd;stroke:none"
         transform="matrix(1.3333333,0,0,-1.3333333,332.02013,414.23827)"
         clip-path="url(#clipPath19)" />
      <path
         id="path20"
         d="m 0,0 112.547,-81.849 197.19,-70.618 H 53.583 l 15.248,47.824 -57.669,56.74 z"
         style="fill:#3a312e;fill-opacity:1;fill-rule:evenodd;stroke:none"
         transform="matrix(1.3333333,0,0,-1.3333333,317.138,350.3672)"
         clip-path="url(#clipPath21)" />
      <path
         id="path22"
         d="M 0,0 58.594,-41.383 -54.879,-30.695 Z M 4.651,86.504 79.522,32.561 166.957,32.096 89.755,62.79 45.576,130.22 Z"
         style="fill:#3c5f94;fill-opacity:1;fill-rule:evenodd;stroke:none"
         transform="matrix(1.3333333,0,0,-1.3333333,320.86,749.0912)"
         clip-path="url(#clipPath23)" />
      <path
         id="path24"
         d="M 0,0 -161.167,60.925 0,41.856 Z m -292.225,173.408 62.112,-77.257 146.964,-22.324 -88.366,38.136 -10.953,38.19 z"
         style="fill:#574d4c;fill-opacity:1;fill-rule:evenodd;stroke:none"
         transform="matrix(1.3333333,0,0,-1.3333333,881.91147,543.0508)"
         clip-path="url(#clipPath25)" />
      <path
         id="path26"
         d="m 0,0 79.993,61.159 44.649,-12.092 32.92,59.531 V 0 Z"
         style="fill:#151d29;fill-opacity:1;fill-rule:evenodd;stroke:none"
         transform="matrix(1.3333333,0,0,-1.3333333,671.82813,882.09373)"
         clip-path="url(#clipPath27)" />
      <path
         id="path28"
         d="M 0,0 C 3.489,-0.527 6.733,-2.058 9.443,-4.255 14.602,4.729 24.854,9.834 36.664,8.05 45.536,6.71 53.526,1.747 59.143,-5.108 c 2.349,0.486 4.88,0.564 7.521,0.165 12.317,-1.862 22.306,-13.358 22.306,-25.677 0,-12.319 -9.989,-20.797 -22.306,-18.936 -2.641,0.399 -5.172,1.241 -7.521,2.436 -5.617,-5.157 -13.607,-7.705 -22.479,-6.365 -11.81,1.784 -22.062,9.988 -27.221,20.529 -2.71,-1.377 -5.954,-1.927 -9.443,-1.4 -9.488,1.433 -17.179,10.286 -17.179,19.773 C -17.179,-5.096 -9.488,1.434 0,0"
         style="fill:#ffffff;fill-opacity:1;fill-rule:evenodd;stroke:none"
         transform="matrix(1.3333333,0,0,-1.3333333,638.29293,99.996133)"
         clip-path="url(#clipPath29)" />
      <path
         id="path30"
         d="M 0,0 37.672,-7.999 75.341,-15.997 37.672,-12.614 0,-9.23 -37.672,-1.231 -75.343,6.768 -37.672,3.384 Z"
         style="fill:#ffffff;fill-opacity:1;fill-rule:evenodd;stroke:none"
         transform="matrix(1.3333333,0,0,-1.3333333,686.1536,123.97853)"
         clip-path="url(#clipPath31)" />
      <path
         id="path32"
         d="M 0,0 C 4.657,-0.704 8.986,-2.747 12.604,-5.678 19.485,6.31 33.168,13.123 48.927,10.741 60.766,8.953 71.43,2.33 78.923,-6.816 c 3.136,0.648 6.513,0.752 10.034,0.219 16.44,-2.484 29.767,-17.824 29.767,-34.263 0,-16.441 -13.327,-27.753 -29.767,-25.27 -3.521,0.532 -6.898,1.655 -10.034,3.252 C 71.43,-69.761 60.766,-73.161 48.927,-71.373 33.168,-68.992 19.485,-58.045 12.604,-43.977 8.986,-45.815 4.657,-46.55 0,-45.847 -12.659,-43.935 -22.924,-32.121 -22.924,-19.46 -22.924,-6.8 -12.659,1.912 0,0"
         style="fill:#ffffff;fill-opacity:1;fill-rule:evenodd;stroke:none"
         transform="matrix(1.3333333,0,0,-1.3333333,399.50653,129.63933)"
         clip-path="url(#clipPath33)" />
      <path
         id="path34"
         d="M 0,0 50.271,-10.674 100.538,-21.348 50.271,-16.832 0,-12.316 -50.268,-1.643 -100.539,9.031 -50.268,4.516 Z"
         style="fill:#ffffff;fill-opacity:1;fill-rule:evenodd;stroke:none"
         transform="matrix(1.3333333,0,0,-1.3333333,463.37373,161.64253)"
         clip-path="url(#clipPath35)" />
      <path
         id="path36"
         d="m 0,0 c 2.187,-0.33 4.221,-1.29 5.916,-2.666 3.234,5.629 9.659,8.829 17.059,7.71 5.559,-0.84 10.567,-3.949 14.086,-8.245 1.471,0.305 3.057,0.353 4.713,0.103 7.719,-1.166 13.977,-8.37 13.977,-16.09 0,-7.72 -6.258,-13.033 -13.977,-11.866 -1.656,0.25 -3.242,0.777 -4.713,1.527 -3.519,-3.232 -8.527,-4.829 -14.086,-3.99 -7.4,1.12 -13.825,6.26 -17.059,12.866 C 4.221,-21.515 2.187,-21.86 0,-21.529 c -5.946,0.898 -10.764,6.445 -10.764,12.39 0,5.946 4.818,10.037 10.764,9.139"
         style="fill:#ffffff;fill-opacity:1;fill-rule:evenodd;stroke:none"
         transform="matrix(1.3333333,0,0,-1.3333333,698.74093,270.6348)"
         clip-path="url(#clipPath37)" />
      <path
         id="path38"
         d="M 0,0 23.606,-5.013 47.213,-10.025 23.606,-7.905 0,-5.784 -23.607,-0.772 -47.212,4.241 -23.607,2.12 Z"
         style="fill:#ffffff;fill-opacity:1;fill-rule:evenodd;stroke:none"
         transform="matrix(1.3333333,0,0,-1.3333333,728.73173,285.6628)"
         clip-path="url(#clipPath39)" />
    </g>
  </g>
</svg>
