<?xml version="1.0" encoding="UTF-8" standalone="no"?>
<!-- Created with Inkscape (http://www.inkscape.org/) -->

<svg
   version="1.1"
   id="svg1"
   width="880"
   height="880"
   viewBox="0 0 880 880"
   sodipodi:docname="nature-trail-landscape-publicdomainvectors.org.svg"
   inkscape:version="1.3.2 (091e20e, 2023-11-25, custom)"
   xmlns:inkscape="http://www.inkscape.org/namespaces/inkscape"
   xmlns:sodipodi="http://sodipodi.sourceforge.net/DTD/sodipodi-0.dtd"
   xmlns="http://www.w3.org/2000/svg"
   xmlns:svg="http://www.w3.org/2000/svg">
  <defs
     id="defs1">
    <clipPath
       clipPathUnits="userSpaceOnUse"
       id="clipPath4">
      <path
         d="M 0,660 H 660 V 0 H 0 Z"
         transform="translate(-296.47561,-516.73291)"
         id="path4" />
    </clipPath>
    <clipPath
       clipPathUnits="userSpaceOnUse"
       id="clipPath6">
      <path
         d="M 0,660 H 660 V 0 H 0 Z"
         transform="translate(-661.43261,-540.51611)"
         id="path6" />
    </clipPath>
    <clipPath
       clipPathUnits="userSpaceOnUse"
       id="clipPath8">
      <path
         d="M 0,660 H 660 V 0 H 0 Z"
         transform="translate(-335.24121,-73.044902)"
         id="path8" />
    </clipPath>
    <clipPath
       clipPathUnits="userSpaceOnUse"
       id="clipPath10">
      <path
         d="M 0,660 H 660 V 0 H 0 Z"
         transform="translate(-190.0044,-399.36771)"
         id="path10" />
    </clipPath>
    <clipPath
       clipPathUnits="userSpaceOnUse"
       id="clipPath12">
      <path
         d="M 0,660 H 660 V 0 H 0 Z"
         transform="translate(-205.64451,-411.78421)"
         id="path12" />
    </clipPath>
    <clipPath
       clipPathUnits="userSpaceOnUse"
       id="clipPath14">
      <path
         d="M 0,660 H 660 V 0 H 0 Z"
         transform="translate(-220.1074,-402.88181)"
         id="path14" />
    </clipPath>
    <clipPath
       clipPathUnits="userSpaceOnUse"
       id="clipPath16">
      <path
         d="M 0,660 H 660 V 0 H 0 Z"
         transform="translate(-233.4004,-418.34381)"
         id="path16" />
    </clipPath>
    <clipPath
       clipPathUnits="userSpaceOnUse"
       id="clipPath18">
      <path
         d="M 0,660 H 660 V 0 H 0 Z"
         transform="translate(-338.99511,-419.51461)"
         id="path18" />
    </clipPath>
    <clipPath
       clipPathUnits="userSpaceOnUse"
       id="clipPath20">
      <path
         d="M 0,660 H 660 V 0 H 0 Z"
         transform="translate(-349.65431,-434.97661)"
         id="path20" />
    </clipPath>
    <clipPath
       clipPathUnits="userSpaceOnUse"
       id="clipPath22">
      <path
         d="M 0,660 H 660 V 0 H 0 Z"
         transform="translate(-367.10641,-423.96531)"
         id="path22" />
    </clipPath>
    <clipPath
       clipPathUnits="userSpaceOnUse"
       id="clipPath24">
      <path
         d="M 0,660 H 660 V 0 H 0 Z"
         transform="translate(-394.40631,-410.14451)"
         id="path24" />
    </clipPath>
    <clipPath
       clipPathUnits="userSpaceOnUse"
       id="clipPath26">
      <path
         d="M 0,660 H 660 V 0 H 0 Z"
         transform="translate(-417.01661,-431.00391)"
         id="path26" />
    </clipPath>
    <clipPath
       clipPathUnits="userSpaceOnUse"
       id="clipPath28">
      <path
         d="M 0,660 H 660 V 0 H 0 Z"
         transform="translate(-436.21881,-411.08111)"
         id="path28" />
    </clipPath>
    <clipPath
       clipPathUnits="userSpaceOnUse"
       id="clipPath30">
      <path
         d="M 0,660 H 660 V 0 H 0 Z"
         transform="translate(-503.03521)"
         id="path30" />
    </clipPath>
    <clipPath
       clipPathUnits="userSpaceOnUse"
       id="clipPath32">
      <path
         d="M 0,660 H 660 V 0 H 0 Z"
         transform="translate(-661.43261,-426.32321)"
         id="path32" />
    </clipPath>
    <clipPath
       clipPathUnits="userSpaceOnUse"
       id="clipPath34">
      <path
         d="M 0,660 H 660 V 0 H 0 Z"
         transform="translate(-661.43261,-297.02641)"
         id="path34" />
    </clipPath>
    <clipPath
       clipPathUnits="userSpaceOnUse"
       id="clipPath36">
      <path
         d="M 0,660 H 660 V 0 H 0 Z"
         transform="translate(-434.42091)"
         id="path36" />
    </clipPath>
    <clipPath
       clipPathUnits="userSpaceOnUse"
       id="clipPath38">
      <path
         d="M 0,660 H 660 V 0 H 0 Z"
         transform="translate(-169.854)"
         id="path38" />
    </clipPath>
    <clipPath
       clipPathUnits="userSpaceOnUse"
       id="clipPath40">
      <path
         d="M 0,660 H 660 V 0 H 0 Z"
         transform="translate(-93.019502,-364.93161)"
         id="path40" />
    </clipPath>
    <clipPath
       clipPathUnits="userSpaceOnUse"
       id="clipPath42">
      <path
         d="M 0,660 H 660 V 0 H 0 Z"
         transform="translate(-165.5059,-347.73731)"
         id="path42" />
    </clipPath>
    <clipPath
       clipPathUnits="userSpaceOnUse"
       id="clipPath44">
      <path
         d="M 0,660 H 660 V 0 H 0 Z"
         transform="translate(-139.87161,-332.13531)"
         id="path44" />
    </clipPath>
    <clipPath
       clipPathUnits="userSpaceOnUse"
       id="clipPath46">
      <path
         d="M 0,660 H 660 V 0 H 0 Z"
         transform="translate(-426.84081,-392.10501)"
         id="path46" />
    </clipPath>
    <clipPath
       clipPathUnits="userSpaceOnUse"
       id="clipPath48">
      <path
         d="M 0,660 H 660 V 0 H 0 Z"
         transform="translate(-450.50201,-421.15431)"
         id="path48" />
    </clipPath>
    <clipPath
       clipPathUnits="userSpaceOnUse"
       id="clipPath50">
      <path
         d="M 0,660 H 660 V 0 H 0 Z"
         transform="translate(-473.46001,-409.90971)"
         id="path50" />
    </clipPath>
    <clipPath
       clipPathUnits="userSpaceOnUse"
       id="clipPath52">
      <path
         d="M 0,660 H 660 V 0 H 0 Z"
         transform="translate(-509.37701,-433.33541)"
         id="path52" />
    </clipPath>
    <clipPath
       clipPathUnits="userSpaceOnUse"
       id="clipPath54">
      <path
         d="M 0,660 H 660 V 0 H 0 Z"
         transform="translate(-539.28611,-455.82521)"
         id="path54" />
    </clipPath>
    <clipPath
       clipPathUnits="userSpaceOnUse"
       id="clipPath56">
      <path
         d="M 0,660 H 660 V 0 H 0 Z"
         transform="translate(-587.77831,-451.14011)"
         id="path56" />
    </clipPath>
    <clipPath
       clipPathUnits="userSpaceOnUse"
       id="clipPath58">
      <path
         d="M 0,660 H 660 V 0 H 0 Z"
         transform="translate(-523.63961,-450.20361)"
         id="path58" />
    </clipPath>
    <clipPath
       clipPathUnits="userSpaceOnUse"
       id="clipPath60">
      <path
         d="M 0,660 H 660 V 0 H 0 Z"
         transform="translate(-579.37111,-431.92971)"
         id="path60" />
    </clipPath>
    <clipPath
       clipPathUnits="userSpaceOnUse"
       id="clipPath62">
      <path
         d="M 0,660 H 660 V 0 H 0 Z"
         transform="translate(-616.82711,-453.95071)"
         id="path62" />
    </clipPath>
    <clipPath
       clipPathUnits="userSpaceOnUse"
       id="clipPath64">
      <path
         d="M 0,660 H 660 V 0 H 0 Z"
         transform="translate(-629.55662,-477.84521)"
         id="path64" />
    </clipPath>
    <clipPath
       clipPathUnits="userSpaceOnUse"
       id="clipPath66">
      <path
         d="M 0,660 H 660 V 0 H 0 Z"
         transform="translate(-486.88571,-357.92971)"
         id="path66" />
    </clipPath>
    <clipPath
       clipPathUnits="userSpaceOnUse"
       id="clipPath68">
      <path
         d="M 0,660 H 660 V 0 H 0 Z"
         transform="translate(-573.77932,-368.46881)"
         id="path68" />
    </clipPath>
    <clipPath
       clipPathUnits="userSpaceOnUse"
       id="clipPath70">
      <path
         d="M 0,660 H 660 V 0 H 0 Z"
         transform="translate(-536.71091,-423.02881)"
         id="path70" />
    </clipPath>
    <clipPath
       clipPathUnits="userSpaceOnUse"
       id="clipPath72">
      <path
         d="M 0,660 H 660 V 0 H 0 Z"
         transform="translate(-32.111301,-448.79741)"
         id="path72" />
    </clipPath>
    <clipPath
       clipPathUnits="userSpaceOnUse"
       id="clipPath74">
      <path
         d="M 0,660 H 660 V 0 H 0 Z"
         transform="translate(-60.690902,-426.30761)"
         id="path74" />
    </clipPath>
    <clipPath
       clipPathUnits="userSpaceOnUse"
       id="clipPath76">
      <path
         d="M 0,660 H 660 V 0 H 0 Z"
         transform="translate(-92.3164,-453.01271)"
         id="path76" />
    </clipPath>
    <clipPath
       clipPathUnits="userSpaceOnUse"
       id="clipPath78">
      <path
         d="M 0,660 H 660 V 0 H 0 Z"
         transform="translate(-122.53611,-416.46921)"
         id="path78" />
    </clipPath>
    <clipPath
       clipPathUnits="userSpaceOnUse"
       id="clipPath80">
      <path
         d="M 0,660 H 660 V 0 H 0 Z"
         transform="translate(-105.5601,-429.12011)"
         id="path80" />
    </clipPath>
    <clipPath
       clipPathUnits="userSpaceOnUse"
       id="clipPath82">
      <path
         d="M 0,660 H 660 V 0 H 0 Z"
         transform="translate(-154.8643,-404.28811)"
         id="path82" />
    </clipPath>
    <clipPath
       clipPathUnits="userSpaceOnUse"
       id="clipPath84">
      <path
         d="M 0,660 H 660 V 0 H 0 Z"
         transform="translate(-196.3276,-400.53911)"
         id="path84" />
    </clipPath>
  </defs>
  <sodipodi:namedview
     id="namedview1"
     pagecolor="#ffffff"
     bordercolor="#000000"
     borderopacity="0.25"
     inkscape:showpageshadow="2"
     inkscape:pageopacity="0.0"
     inkscape:pagecheckerboard="0"
     inkscape:deskcolor="#d1d1d1"
     inkscape:zoom="0.67272727"
     inkscape:cx="439.25676"
     inkscape:cy="440"
     inkscape:window-width="1440"
     inkscape:window-height="830"
     inkscape:window-x="-6"
     inkscape:window-y="-6"
     inkscape:window-maximized="1"
     inkscape:current-layer="g1">
    <inkscape:page
       x="0"
       y="0"
       inkscape:label="1"
       id="page1"
       width="880"
       height="880"
       margin="0 0 1.288 3.20052"
       bleed="0" />
  </sodipodi:namedview>
  <g
     id="g1"
     inkscape:groupmode="layer"
     inkscape:label="1">
    <g
       id="group-MC0">
      <path
         id="path2"
         d="M 2.4,0 H 659.999 V 659.034 H 2.4 Z"
         style="fill:#c0ddf4;fill-opacity:1;fill-rule:nonzero;stroke:none"
         transform="matrix(1.3333333,0,0,-1.3333333,0,880)" />
      <path
         id="path3"
         d="m 0,0 c 17.724,0 32.139,-14.161 32.553,-31.785 4.276,2.908 9.44,4.61 15.003,4.61 0.258,0 0.511,-0.004 0.768,-0.012 2.949,12.368 14.073,21.564 27.343,21.564 15.525,0 28.111,-12.587 28.111,-28.111 0,-1.042 -0.058,-2.071 -0.17,-3.084 4.729,2.277 10.032,3.552 15.631,3.552 19.924,0 36.076,-16.152 36.076,-36.076 0,-19.924 -16.152,-36.075 -36.076,-36.075 -2.721,0 -5.373,0.303 -7.921,0.875 -6.474,-13.322 -20.134,-22.505 -35.94,-22.505 -6.799,0 -13.199,1.702 -18.803,4.698 -2.053,-1.123 -4.234,-2.041 -6.515,-2.724 -8.637,-11.366 -22.298,-18.706 -37.673,-18.706 -6.707,0 -13.087,1.399 -18.867,3.918 -5.512,-2.266 -11.549,-3.517 -17.878,-3.517 -9.624,0 -18.57,2.889 -26.028,7.844 -2.724,-0.526 -5.536,-0.807 -8.412,-0.807 -24.278,0 -43.964,19.641 -44.04,43.898 -4.516,0.705 -8.663,2.521 -12.154,5.16 -4.778,-7.522 -13.182,-12.512 -22.753,-12.512 -14.879,0 -26.94,12.06 -26.94,26.939 0,14.88 12.061,26.94 26.94,26.94 6.017,0 11.572,-1.973 16.056,-5.307 4.801,7.688 13.335,12.804 23.066,12.804 1.434,0 2.843,-0.112 4.217,-0.327 l -10e-4,0.093 c 0,16.688 13.531,30.219 30.219,30.219 1.543,0 3.059,-0.116 4.539,-0.34 -0.056,0.645 -0.087,1.298 -0.087,1.957 0,12.305 9.974,22.277 22.277,22.277 11.3,0 20.632,-8.412 22.081,-19.316 C -10.798,-1.397 -5.562,0 0,0"
         style="fill:#a3c4ea;fill-opacity:1;fill-rule:evenodd;stroke:none"
         transform="matrix(1.3333333,0,0,-1.3333333,395.3008,191.0228)"
         clip-path="url(#clipPath4)" />
      <path
         id="path5"
         d="m 0,0 v -160.94 c -17.013,2.237 -30.401,15.98 -32.095,33.161 -0.375,-0.009 -0.75,-0.014 -1.125,-0.014 -1.346,0 -2.679,0.051 -4.001,0.148 -5.598,-22.683 -26.078,-39.504 -50.489,-39.504 -11.731,0 -22.553,3.886 -31.252,10.438 -4.125,-22.462 -23.804,-39.486 -47.461,-39.486 -13.054,0 -24.897,5.187 -33.585,13.611 -8.167,1.482 -15.2,6.222 -19.703,12.826 -3.693,-1.342 -7.679,-2.074 -11.835,-2.074 -13.383,0 -24.994,7.583 -30.774,18.687 -2.753,-1.746 -6.018,-2.757 -9.52,-2.757 -9.833,0 -17.803,7.972 -17.803,17.803 0,9.834 7.97,17.805 17.803,17.805 3.206,0 6.212,-0.849 8.811,-2.331 4.77,10.316 14.462,17.89 26.06,19.711 -0.132,1.217 -0.2,2.452 -0.2,3.703 0,18.889 15.314,34.203 34.203,34.203 1.263,0 2.509,-0.072 3.737,-0.205 4.127,11.869 13.407,21.328 25.165,25.691 -1.41,3.083 -2.197,6.509 -2.197,10.121 0,12.148 8.893,22.219 20.524,24.061 2.052,7.491 5.802,14.28 10.806,19.931 -2.069,4.753 -3.218,9.997 -3.218,15.51 0,21.477 17.41,38.887 38.885,38.887 18.848,0 34.562,-13.408 38.127,-31.205 6.869,4.333 15,6.842 23.719,6.842 24.583,0 44.51,-19.927 44.51,-44.51 0,-0.131 -0.003,-0.261 -0.005,-0.392 C -1.95,-0.159 -0.977,-0.065 0,0 M -659.032,-182.062 V 63.325 c 20.438,-0.879 36.738,-17.725 36.738,-38.38 0,-5.501 -1.158,-10.731 -3.242,-15.462 12.635,-4.671 22.102,-15.873 24.307,-29.508 4.599,2.96 10.073,4.677 15.949,4.677 16.302,0 29.516,-13.215 29.516,-29.517 0,-0.149 -0.003,-0.299 -0.005,-0.449 4.822,2.873 10.456,4.522 16.475,4.522 17.816,0 32.257,-14.441 32.257,-32.256 0,-6.398 -1.863,-12.363 -5.077,-17.377 4.753,1.293 9.753,1.988 14.915,1.988 23.151,0 43.056,-13.878 51.86,-33.766 13.128,-0.656 23.572,-11.509 23.572,-24.799 0,-13.714 -11.118,-24.832 -24.832,-24.832 -0.192,0 -0.387,0.003 -0.58,0.007 -9.546,-17.848 -28.364,-29.993 -50.02,-29.993 -17.376,0 -32.924,7.821 -43.323,20.131 -11.521,-17.59 -31.402,-29.21 -54,-29.21 -21.592,0 -40.704,10.609 -52.413,26.897 -4.148,0.281 -8.19,0.94 -12.097,1.94"
         style="fill:#f0f8fd;fill-opacity:1;fill-rule:evenodd;stroke:none"
         transform="matrix(1.3333333,0,0,-1.3333333,881.91013,159.31187)"
         clip-path="url(#clipPath6)" />
      <path
         id="path7"
         d="m 0,0 c 179.661,0 326.193,74.297 326.193,165.388 0,91.093 -146.532,165.388 -326.193,165.388 -179.66,0 -326.192,-74.295 -326.192,-165.388 C -326.192,74.297 -179.66,0 0,0"
         style="fill:#b0db19;fill-opacity:1;fill-rule:evenodd;stroke:none"
         transform="matrix(1.3333333,0,0,-1.3333333,446.98827,782.6068)"
         clip-path="url(#clipPath8)" />
      <path
         id="path9"
         d="m 0,0 2.333,-8.477 2.332,-8.476 H 0 -4.667 l 2.334,8.476 z"
         style="fill:#b0db19;fill-opacity:1;fill-rule:evenodd;stroke:none"
         transform="matrix(1.3333333,0,0,-1.3333333,253.3392,347.50973)"
         clip-path="url(#clipPath10)" />
      <path
         id="path11"
         d="m 0,0 5.657,-16.051 5.657,-16.05 H 0 -11.313 l 5.656,16.05 z"
         style="fill:#b0db19;fill-opacity:1;fill-rule:evenodd;stroke:none"
         transform="matrix(1.3333333,0,0,-1.3333333,274.19267,330.9544)"
         clip-path="url(#clipPath12)" />
      <path
         id="path13"
         d="m 0,0 1.724,-7.995 1.724,-7.993 H 0 -3.45 l 1.723,7.993 z"
         style="fill:#b0db19;fill-opacity:1;fill-rule:evenodd;stroke:none"
         transform="matrix(1.3333333,0,0,-1.3333333,293.47653,342.82427)"
         clip-path="url(#clipPath14)" />
      <path
         id="path15"
         d="M 0,0 3.322,-12.343 6.645,-24.686 H 0 -6.644 l 3.322,12.343 z"
         style="fill:#b0db19;fill-opacity:1;fill-rule:evenodd;stroke:none"
         transform="matrix(1.3333333,0,0,-1.3333333,311.20053,322.20827)"
         clip-path="url(#clipPath16)" />
      <path
         id="path17"
         d="m 0,0 2.586,-9.488 2.587,-9.487 H 0 -5.174 l 2.587,9.487 z"
         style="fill:#b0db19;fill-opacity:1;fill-rule:evenodd;stroke:none"
         transform="matrix(1.3333333,0,0,-1.3333333,451.99347,320.6472)"
         clip-path="url(#clipPath18)" />
      <path
         id="path19"
         d="m 0,0 5.781,-19.326 5.782,-19.327 H 0 -11.564 l 5.781,19.327 z"
         style="fill:#b0db19;fill-opacity:1;fill-rule:evenodd;stroke:none"
         transform="matrix(1.3333333,0,0,-1.3333333,466.20573,300.0312)"
         clip-path="url(#clipPath20)" />
      <path
         id="path21"
         d="m 0,0 4.209,-16.867 4.21,-16.866 H 0 -8.419 l 4.209,16.866 z"
         style="fill:#b0db19;fill-opacity:1;fill-rule:evenodd;stroke:none"
         transform="matrix(1.3333333,0,0,-1.3333333,489.4752,314.71293)"
         clip-path="url(#clipPath22)" />
      <path
         id="path23"
         d="m 0,0 2.538,-9.308 2.539,-9.308 H 0 -5.079 l 2.54,9.308 z"
         style="fill:#72962a;fill-opacity:1;fill-rule:evenodd;stroke:none"
         transform="matrix(1.3333333,0,0,-1.3333333,525.87507,333.14067)"
         clip-path="url(#clipPath24)" />
      <path
         id="path25"
         d="M 0,0 3.484,-17.716 6.968,-35.431 H 0 -6.969 l 3.486,17.715 z"
         style="fill:#b0db19;fill-opacity:1;fill-rule:evenodd;stroke:none"
         transform="matrix(1.3333333,0,0,-1.3333333,556.02213,305.32813)"
         clip-path="url(#clipPath26)" />
      <path
         id="path27"
         d="m 0,0 3.199,-9.334 3.197,-9.334 H 0 -6.396 l 3.199,9.334 z"
         style="fill:#72962a;fill-opacity:1;fill-rule:evenodd;stroke:none"
         transform="matrix(1.3333333,0,0,-1.3333333,581.62507,331.89187)"
         clip-path="url(#clipPath28)" />
      <path
         id="path29"
         d="M 0,0 H -500.635 V 402.642 C -220.757,396.019 3.217,236.318 3.217,40.247 3.217,26.642 2.1,13.217 0,0"
         style="fill:#97c222;fill-opacity:1;fill-rule:evenodd;stroke:none"
         transform="matrix(1.3333333,0,0,-1.3333333,670.7136,880)"
         clip-path="url(#clipPath30)" />
      <path
         id="path31"
         d="m 0,0 v -426.323 h -428.868 c -6.079,22.14 -9.3,44.987 -9.3,68.358 C -438.168,-177.5 -248.428,-27.849 0,0"
         style="fill:#88b227;fill-opacity:1;fill-rule:evenodd;stroke:none"
         transform="matrix(1.3333333,0,0,-1.3333333,881.91013,311.56907)"
         clip-path="url(#clipPath32)" />
      <path
         id="path33"
         d="M 0,0 V -297.026 H -530.925 C -451.372,-137.519 -246.971,-19.233 0,0"
         style="fill:#72962a;fill-opacity:1;fill-rule:evenodd;stroke:none"
         transform="matrix(1.3333333,0,0,-1.3333333,881.91013,483.9648)"
         clip-path="url(#clipPath34)" />
      <path
         id="path35"
         d="m 0,0 h -432.021 v 230.443 c 0.848,0.004 1.69,0.025 2.539,0.025 C -227.064,230.468 -55.965,133.389 0,0"
         style="fill:#7da529;fill-opacity:1;fill-rule:evenodd;stroke:none"
         transform="matrix(1.3333333,0,0,-1.3333333,579.22787,880)"
         clip-path="url(#clipPath36)" />
      <path
         id="path37"
         d="m 0,0 c 88.903,58.853 125.995,112.427 66.752,183.856 -48.639,58.645 -16.838,89.24 77.972,137.192 36.236,18.326 -16.56,61.632 -50.589,78.817 l 26.848,2.437 c 48.452,-11.144 99.117,-57.65 73.959,-85.666 -40.711,-45.334 -46.735,-55.649 21.785,-88.419 C 364.837,157.376 402.835,74.239 316.501,0 Z"
         style="fill:#6d4f39;fill-opacity:1;fill-rule:evenodd;stroke:none"
         transform="matrix(1.3333333,0,0,-1.3333333,226.472,880)"
         clip-path="url(#clipPath38)" />
      <path
         id="path39"
         d="m 0,0 16.838,-87.495 16.839,-87.497 H 0 -33.677 l 16.839,87.497 z"
         style="fill:#7da529;fill-opacity:1;fill-rule:evenodd;stroke:none"
         transform="matrix(1.3333333,0,0,-1.3333333,124.026,393.42453)"
         clip-path="url(#clipPath40)" />
      <path
         id="path41"
         d="m 0,0 13.853,-78.238 13.855,-78.237 H 0 -27.708 l 13.854,78.237 z"
         style="fill:#7da529;fill-opacity:1;fill-rule:evenodd;stroke:none"
         transform="matrix(1.3333333,0,0,-1.3333333,220.67453,416.35027)"
         clip-path="url(#clipPath42)" />
      <path
         id="path43"
         d="m 0,0 11.158,-68.169 11.159,-68.17 H 0 -22.316 l 11.157,68.17 z"
         style="fill:#7da529;fill-opacity:1;fill-rule:evenodd;stroke:none"
         transform="matrix(1.3333333,0,0,-1.3333333,186.49547,437.15293)"
         clip-path="url(#clipPath44)" />
      <path
         id="path45"
         d="m 0,0 5.579,-26.177 5.579,-26.18 H 0 -11.157 l 5.578,26.18 z"
         style="fill:#88b227;fill-opacity:1;fill-rule:evenodd;stroke:none"
         transform="matrix(1.3333333,0,0,-1.3333333,569.12107,357.19333)"
         clip-path="url(#clipPath46)" />
      <path
         id="path47"
         d="m 0,0 6.898,-34.964 6.897,-34.962 H 0 -13.796 l 6.897,34.962 z"
         style="fill:#88b227;fill-opacity:1;fill-rule:evenodd;stroke:none"
         transform="matrix(1.3333333,0,0,-1.3333333,600.66933,318.46093)"
         clip-path="url(#clipPath48)" />
      <path
         id="path49"
         d="m 0,0 7.304,-26.178 7.303,-26.18 H 0 -14.608 l 7.304,26.18 z"
         style="fill:#88b227;fill-opacity:1;fill-rule:evenodd;stroke:none"
         transform="matrix(1.3333333,0,0,-1.3333333,631.28,333.45373)"
         clip-path="url(#clipPath50)" />
      <path
         id="path51"
         d="m 0,0 7.032,-29.276 7.032,-29.275 H 0 -14.064 l 7.033,29.275 z"
         style="fill:#88b227;fill-opacity:1;fill-rule:evenodd;stroke:none"
         transform="matrix(1.3333333,0,0,-1.3333333,679.16933,302.21947)"
         clip-path="url(#clipPath52)" />
      <path
         id="path53"
         d="m 0,0 8.216,-37.774 8.218,-37.775 H 0 -16.433 l 8.217,37.775 z"
         style="fill:#88b227;fill-opacity:1;fill-rule:evenodd;stroke:none"
         transform="matrix(1.3333333,0,0,-1.3333333,719.04813,272.23307)"
         clip-path="url(#clipPath54)" />
      <path
         id="path55"
         d="m 0,0 7.304,-29.693 7.303,-29.693 H 0 -14.606 l 7.303,29.693 z"
         style="fill:#88b227;fill-opacity:1;fill-rule:evenodd;stroke:none"
         transform="matrix(1.3333333,0,0,-1.3333333,783.7044,278.47987)"
         clip-path="url(#clipPath56)" />
      <path
         id="path57"
         d="m 0,0 7.729,-31.363 7.732,-31.363 H 0 -15.46 l 7.73,31.363 z"
         style="fill:#88b227;fill-opacity:1;fill-rule:evenodd;stroke:none"
         transform="matrix(1.3333333,0,0,-1.3333333,698.18613,279.72853)"
         clip-path="url(#clipPath58)" />
      <path
         id="path59"
         d="M 0,0 4.677,-20.965 9.354,-41.929 H 0 -9.354 l 4.677,20.964 z"
         style="fill:#88b227;fill-opacity:1;fill-rule:evenodd;stroke:none"
         transform="matrix(1.3333333,0,0,-1.3333333,772.4948,304.09373)"
         clip-path="url(#clipPath60)" />
      <path
         id="path61"
         d="m 0,0 7.71,-31.45 7.709,-31.448 H 0 -15.419 l 7.71,31.448 z"
         style="fill:#88b227;fill-opacity:1;fill-rule:evenodd;stroke:none"
         transform="matrix(1.3333333,0,0,-1.3333333,822.43613,274.7324)"
         clip-path="url(#clipPath62)" />
      <path
         id="path63"
         d="M 0,0 7.742,-35.039 15.485,-70.08 H 0 -15.486 l 7.743,35.041 z"
         style="fill:#88b227;fill-opacity:1;fill-rule:evenodd;stroke:none"
         transform="matrix(1.3333333,0,0,-1.3333333,839.4088,242.87307)"
         clip-path="url(#clipPath64)" />
      <path
         id="path65"
         d="m 0,0 11.025,-57.111 11.026,-57.111 H 0 -22.051 l 11.026,57.111 z"
         style="fill:#72962a;fill-opacity:1;fill-rule:evenodd;stroke:none"
         transform="matrix(1.3333333,0,0,-1.3333333,649.18093,402.7604)"
         clip-path="url(#clipPath66)" />
      <path
         id="path67"
         d="m 0,0 16.003,-76.523 16.003,-76.525 H 0 -32.007 l 16.003,76.525 z"
         style="fill:#72962a;fill-opacity:1;fill-rule:evenodd;stroke:none"
         transform="matrix(1.3333333,0,0,-1.3333333,765.03907,388.70827)"
         clip-path="url(#clipPath68)" />
      <path
         id="path69"
         d="m 0,0 15.012,-91.714 15.013,-91.714 H 0 -30.027 l 15.013,91.714 z"
         style="fill:#72962a;fill-opacity:1;fill-rule:evenodd;stroke:none"
         transform="matrix(1.3333333,0,0,-1.3333333,715.61453,315.9616)"
         clip-path="url(#clipPath70)" />
      <path
         id="path71"
         d="m 0,0 7.101,-30.045 7.101,-30.044 H 0 -14.201 l 7.1,30.044 z"
         style="fill:#97c222;fill-opacity:1;fill-rule:evenodd;stroke:none"
         transform="matrix(1.3333333,0,0,-1.3333333,42.815067,281.60347)"
         clip-path="url(#clipPath72)" />
      <path
         id="path73"
         d="m 0,0 6.087,-23.719 6.086,-23.719 H 0 -12.172 l 6.086,23.719 z"
         style="fill:#97c222;fill-opacity:1;fill-rule:evenodd;stroke:none"
         transform="matrix(1.3333333,0,0,-1.3333333,80.9212,311.58987)"
         clip-path="url(#clipPath74)" />
      <path
         id="path75"
         d="m 0,0 7.811,-34.083 7.811,-34.086 H 0 -15.621 l 7.81,34.086 z"
         style="fill:#97c222;fill-opacity:1;fill-rule:evenodd;stroke:none"
         transform="matrix(1.3333333,0,0,-1.3333333,123.08853,275.98307)"
         clip-path="url(#clipPath76)" />
      <path
         id="path77"
         d="m 0,0 6.086,-20.908 6.087,-20.907 H 0 -12.172 l 6.086,20.907 z"
         style="fill:#97c222;fill-opacity:1;fill-rule:evenodd;stroke:none"
         transform="matrix(1.3333333,0,0,-1.3333333,163.38147,324.70773)"
         clip-path="url(#clipPath78)" />
      <path
         id="path79"
         d="m 0,0 6.647,-26.36 6.647,-26.359 H 0 -13.295 l 6.647,26.359 z"
         style="fill:#97c222;fill-opacity:1;fill-rule:evenodd;stroke:none"
         transform="matrix(1.3333333,0,0,-1.3333333,140.7468,307.83987)"
         clip-path="url(#clipPath80)" />
      <path
         id="path81"
         d="m 0,0 4.261,-15.99 4.26,-15.986 H 0 -8.52 l 4.26,15.986 z"
         style="fill:#97c222;fill-opacity:1;fill-rule:evenodd;stroke:none"
         transform="matrix(1.3333333,0,0,-1.3333333,206.48573,340.9492)"
         clip-path="url(#clipPath82)" />
      <path
         id="path83"
         d="m 0,0 8.42,-26.004 8.42,-26.001 H 0 -16.837 l 8.418,26.001 z"
         style="fill:#97c222;fill-opacity:1;fill-rule:evenodd;stroke:none"
         transform="matrix(1.3333333,0,0,-1.3333333,261.77013,345.94787)"
         clip-path="url(#clipPath84)" />
    </g>
  </g>
</svg>
