<?xml version="1.0" encoding="UTF-8" standalone="no"?>
<!-- Created with Inkscape (http://www.inkscape.org/) -->

<svg
   version="1.1"
   id="svg1"
   width="880"
   height="880"
   viewBox="0 0 880 880"
   sodipodi:docname="summer-vacation-publicdomainvectors.org.svg"
   inkscape:version="1.3.2 (091e20e, 2023-11-25, custom)"
   xmlns:inkscape="http://www.inkscape.org/namespaces/inkscape"
   xmlns:sodipodi="http://sodipodi.sourceforge.net/DTD/sodipodi-0.dtd"
   xmlns="http://www.w3.org/2000/svg"
   xmlns:svg="http://www.w3.org/2000/svg">
  <defs
     id="defs1">
    <clipPath
       clipPathUnits="userSpaceOnUse"
       id="clipPath4">
      <path
         d="M 0,660 H 660 V 0 H 0 Z"
         transform="translate(-0.69090002,-136.75101)"
         id="path4" />
    </clipPath>
    <clipPath
       clipPathUnits="userSpaceOnUse"
       id="clipPath6">
      <path
         d="M 0,660 H 660 V 0 H 0 Z"
         transform="translate(-477.62211,-338.10061)"
         id="path6" />
    </clipPath>
    <clipPath
       clipPathUnits="userSpaceOnUse"
       id="clipPath8">
      <path
         d="M 0,660 H 660 V 0 H 0 Z"
         id="path8" />
    </clipPath>
    <clipPath
       clipPathUnits="userSpaceOnUse"
       id="clipPath10">
      <path
         d="M 0,660 H 660 V 0 H 0 Z"
         transform="translate(-480.16701,-109.1514)"
         id="path10" />
    </clipPath>
    <clipPath
       clipPathUnits="userSpaceOnUse"
       id="clipPath12">
      <path
         d="M 0,660 H 660 V 0 H 0 Z"
         id="path12" />
    </clipPath>
    <clipPath
       clipPathUnits="userSpaceOnUse"
       id="clipPath14">
      <path
         d="M 0,660 H 660 V 0 H 0 Z"
         transform="translate(-661.43362,-48.912099)"
         id="path14" />
    </clipPath>
    <clipPath
       clipPathUnits="userSpaceOnUse"
       id="clipPath16">
      <path
         d="M 0,660 H 660 V 0 H 0 Z"
         id="path16" />
    </clipPath>
    <clipPath
       clipPathUnits="userSpaceOnUse"
       id="clipPath18">
      <path
         d="M 0,660 H 660 V 0 H 0 Z"
         id="path18" />
    </clipPath>
    <clipPath
       clipPathUnits="userSpaceOnUse"
       id="clipPath20">
      <path
         d="M 0,660 H 660 V 0 H 0 Z"
         id="path20" />
    </clipPath>
    <clipPath
       clipPathUnits="userSpaceOnUse"
       id="clipPath22">
      <path
         d="M 0,660 H 660 V 0 H 0 Z"
         transform="translate(-565.50292,-150.2256)"
         id="path22" />
    </clipPath>
    <clipPath
       clipPathUnits="userSpaceOnUse"
       id="clipPath24">
      <path
         d="M 0,660 H 660 V 0 H 0 Z"
         transform="translate(-393.88281,-158.1943)"
         id="path24" />
    </clipPath>
    <clipPath
       clipPathUnits="userSpaceOnUse"
       id="clipPath26">
      <path
         d="M 0,660 H 660 V 0 H 0 Z"
         transform="translate(-176.79591,-349.60601)"
         id="path26" />
    </clipPath>
    <clipPath
       clipPathUnits="userSpaceOnUse"
       id="clipPath28">
      <path
         d="M 0,660 H 660 V 0 H 0 Z"
         transform="translate(-176.79591,-391.78611)"
         id="path28" />
    </clipPath>
    <clipPath
       clipPathUnits="userSpaceOnUse"
       id="clipPath30">
      <path
         d="M 0,660 H 660 V 0 H 0 Z"
         transform="translate(-477.55661,-332.07911)"
         id="path30" />
    </clipPath>
    <clipPath
       clipPathUnits="userSpaceOnUse"
       id="clipPath32">
      <path
         d="M 0,660 H 660 V 0 H 0 Z"
         transform="translate(-392.42681,-286.84671)"
         id="path32" />
    </clipPath>
    <clipPath
       clipPathUnits="userSpaceOnUse"
       id="clipPath34">
      <path
         d="M 0,660 H 660 V 0 H 0 Z"
         transform="translate(-479.07421,-204.41991)"
         id="path34" />
    </clipPath>
    <clipPath
       clipPathUnits="userSpaceOnUse"
       id="clipPath36">
      <path
         d="M 0,660 H 660 V 0 H 0 Z"
         transform="translate(-480.16701,-332.34671)"
         id="path36" />
    </clipPath>
    <clipPath
       clipPathUnits="userSpaceOnUse"
       id="clipPath38">
      <path
         d="M 0,660 H 660 V 0 H 0 Z"
         transform="translate(-515.82322,-277.70211)"
         id="path38" />
    </clipPath>
    <clipPath
       clipPathUnits="userSpaceOnUse"
       id="clipPath40">
      <path
         d="M 0,660 H 660 V 0 H 0 Z"
         transform="translate(-477.59771,-335.97171)"
         id="path40" />
    </clipPath>
    <clipPath
       clipPathUnits="userSpaceOnUse"
       id="clipPath42">
      <path
         d="M 0,660 H 660 V 0 H 0 Z"
         transform="translate(-176.79591,-409.18601)"
         id="path42" />
    </clipPath>
  </defs>
  <sodipodi:namedview
     id="namedview1"
     pagecolor="#ffffff"
     bordercolor="#000000"
     borderopacity="0.25"
     inkscape:showpageshadow="2"
     inkscape:pageopacity="0.0"
     inkscape:pagecheckerboard="0"
     inkscape:deskcolor="#d1d1d1"
     inkscape:zoom="0.67272727"
     inkscape:cx="439.25676"
     inkscape:cy="440"
     inkscape:window-width="1440"
     inkscape:window-height="830"
     inkscape:window-x="-6"
     inkscape:window-y="-6"
     inkscape:window-maximized="1"
     inkscape:current-layer="g1">
    <inkscape:page
       x="0"
       y="0"
       inkscape:label="1"
       id="page1"
       width="880"
       height="880"
       margin="0 0 2.6906667 0.91983998"
       bleed="0" />
  </sodipodi:namedview>
  <g
     id="g1"
     inkscape:groupmode="layer"
     inkscape:label="1">
    <g
       id="group-MC0">
      <path
         id="path2"
         d="M 0.69,0 H 659.999 V 657.982 H 0.69 Z"
         style="fill:#87d8f5;fill-opacity:1;fill-rule:nonzero;stroke:none"
         transform="matrix(1.3333333,0,0,-1.3333333,0,880)" />
      <path
         id="path3"
         d="m 0,0 v 126.368 c 19.765,-1.175 35.431,-17.572 35.431,-37.632 0,-1.585 -0.099,-3.147 -0.289,-4.679 3.765,1.452 7.855,2.248 12.132,2.248 14.98,0 27.679,-9.766 32.08,-23.279 0.261,0.008 0.521,0.013 0.783,0.013 12.236,0 22.573,-8.126 25.912,-19.276 2.96,1.178 6.188,1.827 9.568,1.827 8.372,0 15.815,-3.977 20.546,-10.143 4.771,8.812 14.098,14.796 24.822,14.796 3.686,0 7.208,-0.709 10.438,-1.995 3.465,15.455 17.265,27.005 33.766,27.005 16.862,0 30.907,-12.061 33.982,-28.026 2.681,0.825 5.527,1.271 8.478,1.271 15.901,0 28.791,-12.89 28.791,-28.79 0,-15.902 -12.89,-28.793 -28.791,-28.793 -12.375,0 -22.924,7.809 -26.995,18.766 C 216,7.35 210.748,6.037 205.189,6.037 c -6.659,0 -12.878,1.884 -18.159,5.145 -4.251,-10.194 -14.312,-17.359 -26.045,-17.359 -9.689,0 -18.237,4.887 -23.315,12.328 -4.556,-7.395 -12.729,-12.328 -22.053,-12.328 -11.344,0 -20.982,7.299 -24.478,17.455 C 87.777,9.78 84.055,8.945 80.137,8.945 c -9.198,0 -17.322,4.594 -22.208,11.609 -3.349,-1.116 -6.931,-1.719 -10.655,-1.719 -3.283,0 -6.455,0.471 -9.456,1.346 C 33.369,7.862 21.575,-0.941 7.723,-0.941 5.06,-0.941 2.474,-0.614 0,0"
         style="fill:#e1f5fc;fill-opacity:1;fill-rule:evenodd;stroke:none"
         transform="matrix(1.3333333,0,0,-1.3333333,0.9212,697.66533)"
         clip-path="url(#clipPath4)" />
      <path
         id="path5"
         d="M 0,0 H 2.482 L 4.348,-171.935 H -1.864 Z"
         style="fill:#e1a04a;fill-opacity:1;fill-rule:evenodd;stroke:none"
         transform="matrix(1.3333333,0,0,-1.3333333,636.82947,429.1992)"
         clip-path="url(#clipPath6)" />
      <path
         id="path7"
         d="M 0.69,-2.762 H 661.434 V 157.185 H 0.69 Z"
         style="fill:#4ba5ce;fill-opacity:1;fill-rule:evenodd;stroke:none"
         transform="matrix(1.3333333,0,0,-1.3333333,0,880)"
         clip-path="url(#clipPath8)" />
      <path
         id="path9"
         d="M 0,0 Z M 0,0 Z M 0,0 1.388,28.852 H 4.802 L 1.696,1.211 Z M -0.038,-0.818 0,0 83.471,28.852 h 2.482 c 0.686,0 1.246,0.127 1.246,0.281 0,0.155 -0.56,0.28 -1.246,0.28 H 1.414 l 0.336,6.96 h 45.08 l 8.659,-1.127 h 41.027 l -11.18,5.828 H -74.901 l -38.949,-6.147 -63.849,-4.448 0.113,-0.144 c 3.037,-0.638 6.074,-1.276 9.109,-1.914 47.923,-0.795 97.859,-0.269 151.853,2.92 4.118,1.09 8.236,2.179 12.352,3.269 -3.703,-1.464 -7.406,-2.926 -11.11,-4.39 -4.262,-9.495 -3.12,-18.989 1.45,-28.483 3.775,-0.559 7.548,-1.118 11.322,-1.676 -70.201,5.882 -127.963,16.174 -174.976,30.274 l 64.178,4.203 h 92.748 l 14.095,1.835 h 2.21 l 1.786,-37.191 v -2.475 h 40.597 l -12.235,1.236 12.235,1.239 z"
         style="fill:#4297c1;fill-opacity:1;fill-rule:evenodd;stroke:none"
         transform="matrix(1.3333333,0,0,-1.3333333,640.22267,734.4648)"
         clip-path="url(#clipPath10)" />
      <path
         id="path11"
         d="m 0.69,-2.762 h 660.744 v 110.51 H 0.69 Z"
         style="fill:#f7af59;fill-opacity:1;fill-rule:evenodd;stroke:none"
         transform="matrix(1.3333333,0,0,-1.3333333,0,880)"
         clip-path="url(#clipPath12)" />
      <path
         id="path13"
         d="M 0,0 V -51.674 H -660.743 V 8.893 c 52.54,-17.362 101.94,-20.471 156.608,-9.908 l 23.097,4.46 c 46.321,8.952 87.46,8.746 133.69,-0.666 l 2.436,-0.496 c 69.869,-14.224 133.998,-15.037 200.901,-2.128 48.292,9.32 91.078,9.528 139.457,0.68 z"
         style="fill:#efa34d;fill-opacity:1;fill-rule:evenodd;stroke:none"
         transform="matrix(1.3333333,0,0,-1.3333333,881.91147,814.78387)"
         clip-path="url(#clipPath14)" />
      <path
         id="path15"
         d="m 0.69,105.856 h 660.744 v 13.165 H 0.69 Z"
         style="fill:#a3e2f9;fill-opacity:1;fill-rule:evenodd;stroke:none"
         transform="matrix(1.3333333,0,0,-1.3333333,0,880)"
         clip-path="url(#clipPath16)" />
      <path
         id="path17"
         d="m 0.69,105.858 h 660.744 v 6.619 H 0.69 Z"
         style="fill:#edf9fe;fill-opacity:1;fill-rule:evenodd;stroke:none"
         transform="matrix(1.3333333,0,0,-1.3333333,0,880)"
         clip-path="url(#clipPath18)" />
      <path
         id="path19"
         d="m 0.69,157.186 h 660.744 v 2.696 H 0.69 Z"
         style="fill:#96ddef;fill-opacity:1;fill-rule:evenodd;stroke:none"
         transform="matrix(1.3333333,0,0,-1.3333333,0,880)"
         clip-path="url(#clipPath20)" />
      <path
         id="path21"
         d="m 0,0 h -160.237 l -38.948,27.267 -63.85,19.716 0.114,0.634 64.177,-18.633 h 92.748 L -91.9,20.846 h 53.394 l 8.659,4.999 H 11.18 Z"
         style="fill:#ffffff;fill-opacity:1;fill-rule:evenodd;stroke:none"
         transform="matrix(1.3333333,0,0,-1.3333333,754.00387,679.6992)"
         clip-path="url(#clipPath22)" />
      <path
         id="path23"
         d="M 0,0 -11.387,7.972 H 178.516 L 175.067,0 Z"
         style="fill:#db5b1d;fill-opacity:1;fill-rule:evenodd;stroke:none"
         transform="matrix(1.3333333,0,0,-1.3333333,525.17707,669.07427)"
         clip-path="url(#clipPath24)" />
      <path
         id="path25"
         d="m 0,0 c 73.18,0 132.867,59.686 132.867,132.867 0,73.18 -59.687,132.868 -132.867,132.868 -73.18,0 -132.867,-59.688 -132.867,-132.868 C -132.867,59.686 -73.18,0 0,0"
         style="fill:#a4e2f8;fill-opacity:1;fill-rule:evenodd;stroke:none"
         transform="matrix(1.3333333,0,0,-1.3333333,235.72787,413.85867)"
         clip-path="url(#clipPath26)" />
      <path
         id="path27"
         d="m 0,0 c 49.949,0 90.686,40.738 90.686,90.687 0,49.949 -40.737,90.687 -90.686,90.687 -49.949,0 -90.687,-40.738 -90.687,-90.687 C -90.687,40.738 -49.949,0 0,0"
         style="fill:#e1f5fc;fill-opacity:1;fill-rule:evenodd;stroke:none"
         transform="matrix(1.3333333,0,0,-1.3333333,235.72787,357.61853)"
         clip-path="url(#clipPath28)" />
      <path
         id="path29"
         d="m 0,0 c -70.2,-26.085 -127.963,-71.716 -174.975,-134.236 3.037,2.828 6.074,5.657 9.109,8.486 47.923,3.528 97.858,1.201 151.852,-12.939 4.118,-4.834 8.237,-9.667 12.353,-14.501 -3.703,6.491 -7.406,12.98 -11.11,19.469 -4.262,42.095 -3.121,84.191 1.45,126.285 C -7.547,-4.957 -3.773,-2.48 0,0"
         style="fill:#ffffff;fill-opacity:1;fill-rule:evenodd;stroke:none"
         transform="matrix(1.3333333,0,0,-1.3333333,636.74213,437.22787)"
         clip-path="url(#clipPath30)" />
      <path
         id="path31"
         d="m 0,0 c -17.193,-12.303 -33.412,-26.136 -48.699,-41.432 25.272,3.131 49.549,3.269 72.963,0.828 15.591,-1.627 30.782,-4.406 45.616,-8.214 -0.337,13.348 -0.191,26.697 0.369,40.046 C 56.532,-5.633 42.536,-3.279 28.237,-1.788 18.962,-0.82 9.55,-0.218 0,0"
         style="fill:#db5b1d;fill-opacity:1;fill-rule:evenodd;stroke:none"
         transform="matrix(1.3333333,0,0,-1.3333333,523.23573,497.53773)"
         clip-path="url(#clipPath32)" />
      <path
         id="path33"
         d="m 0,0 h 87.046 c 0.685,0 1.246,-0.561 1.246,-1.245 0,-0.684 -0.561,-1.244 -1.246,-1.244 H 0 c -0.685,0 -1.245,0.56 -1.245,1.244 C -1.245,-0.561 -0.685,0 0,0"
         style="fill:#e1a04a;fill-opacity:1;fill-rule:evenodd;stroke:none"
         transform="matrix(1.3333333,0,0,-1.3333333,638.7656,607.44013)"
         clip-path="url(#clipPath34)" />
      <path
         id="path35"
         d="M 0,0 83.471,-127.927 H 4.802 L 1.696,-5.373 Z"
         style="fill:#ffffff;fill-opacity:1;fill-rule:evenodd;stroke:none"
         transform="matrix(1.3333333,0,0,-1.3333333,640.22267,436.87107)"
         clip-path="url(#clipPath36)" />
      <path
         id="path37"
         d="M 0,0 16.75,-25.672 H -32.06 L -32.712,0 Z"
         style="fill:#db5b1d;fill-opacity:1;fill-rule:evenodd;stroke:none"
         transform="matrix(1.3333333,0,0,-1.3333333,687.76427,509.73053)"
         clip-path="url(#clipPath38)" />
      <path
         id="path39"
         d="M 0,0 H 40.598 L 28.362,5.489 40.598,10.978 H 0 Z"
         style="fill:#db5b1d;fill-opacity:1;fill-rule:evenodd;stroke:none"
         transform="matrix(1.3333333,0,0,-1.3333333,636.79693,432.03773)"
         clip-path="url(#clipPath40)" />
      <path
         id="path41"
         d="m 0,0 c 40.365,0 73.287,32.922 73.287,73.287 0,40.365 -32.922,73.287 -73.287,73.287 -40.365,0 -73.287,-32.922 -73.287,-73.287 C -73.287,32.922 -40.365,0 0,0"
         style="fill:#ffffff;fill-opacity:1;fill-rule:evenodd;stroke:none"
         transform="matrix(1.3333333,0,0,-1.3333333,235.72787,334.41867)"
         clip-path="url(#clipPath42)" />
    </g>
  </g>
</svg>
