<?xml version="1.0" encoding="UTF-8" standalone="no"?>
<!-- Created with Inkscape (http://www.inkscape.org/) -->

<svg
   version="1.1"
   id="svg1"
   width="1298.6667"
   height="1573.3333"
   viewBox="0 0 1298.6667 1573.3333"
   sodipodi:docname="46c.svg"
   inkscape:version="1.3.2 (091e20ef0f, 2023-11-25)"
   xmlns:inkscape="http://www.inkscape.org/namespaces/inkscape"
   xmlns:sodipodi="http://sodipodi.sourceforge.net/DTD/sodipodi-0.dtd"
   xmlns="http://www.w3.org/2000/svg"
   xmlns:svg="http://www.w3.org/2000/svg">
  <defs
     id="defs1" />
  <sodipodi:namedview
     id="namedview1"
     pagecolor="#ffffff"
     bordercolor="#000000"
     borderopacity="0.25"
     inkscape:showpageshadow="2"
     inkscape:pageopacity="0.0"
     inkscape:pagecheckerboard="0"
     inkscape:deskcolor="#d1d1d1"
     showgrid="false"
     inkscape:zoom="0.33587572"
     inkscape:cx="803.86876"
     inkscape:cy="236.69469"
     inkscape:window-width="1920"
     inkscape:window-height="1011"
     inkscape:window-x="0"
     inkscape:window-y="0"
     inkscape:window-maximized="1"
     inkscape:current-layer="layer1" />
  <g
     inkscape:groupmode="layer"
     id="layer1"
     inkscape:label="Layer 1">
    <path
       style="fill:#000000"
       d="m 646.59341,1568.8155 c -0.62177,-0.6218 -41.02454,-11.2531 -69.26004,-18.2246 -5.5,-1.358 -13.3,-3.3753 -17.33333,-4.4829 -8.43934,-2.3176 -22.66524,-6.1308 -38.00001,-10.1857 -25.80888,-6.8245 -76.89058,-20.9227 -106.33334,-29.3472 -4.95,-1.4163 -13.05,-3.7212 -18,-5.122 -4.95,-1.4007 -16.5,-4.7594 -25.66667,-7.4637 -9.16666,-2.7043 -20.56666,-6.0435 -25.33333,-7.4204 -4.76667,-1.3769 -12.86667,-3.7671 -18,-5.3116 -5.13334,-1.5445 -12.03334,-3.6114 -15.33334,-4.5933 -3.3,-0.9818 -14.4,-4.2914 -24.66667,-7.3546 -10.26666,-3.0631 -21.36666,-6.3634 -24.66666,-7.334 -3.3,-0.9705 -10.2,-3.0619 -15.33334,-4.6475 -5.13333,-1.5856 -13.23333,-3.9911 -18,-5.3456 -10.54211,-2.9957 -19.02487,-5.5192 -31.33333,-9.3211 -5.13334,-1.5856 -13.23334,-3.9715 -18.00001,-5.3021 -9.00469,-2.5135 -22.35763,-6.4844 -44,-13.0847 -32.74549,-9.9864 -55.519468,-22.8247 -77.638648,-43.7672 -8.302871,-7.8611 -23.242178,-25.7701 -29.34144,-35.174 -7.732049,-11.9214 -19.164778,-37.1054 -22.6984099,-50 -1.8086504,-6.6 -4.0999991,-14.7 -5.0918858,-18 C 1.0605746,1272.3349 0.69430077,1165.2207 0.36879593,635.66663 L -0.02193391,0 H 649.32241 1298.6667 l -0.012,622.99997 c -0.01,396.77553 -0.4898,629.63093 -1.3284,641.26083 -4.9296,68.3629 -41.7288,127.6348 -95.9019,154.4677 -11.5685,5.7301 -19.9524,8.3345 -66.0913,20.5307 -18.3333,4.8462 -36.3333,9.6808 -40,10.7437 -3.6667,1.0629 -12.6667,3.4895 -20,5.3924 -7.3333,1.9029 -17.8333,4.6805 -23.3333,6.1724 -5.5,1.4919 -14.2,3.8028 -19.3334,5.1354 -5.1333,1.3325 -13.8333,3.6342 -19.3333,5.1149 -11.6185,3.128 -28.45928,7.6442 -38.00001,10.1906 -3.66666,0.9786 -10.56666,2.7489 -15.33333,3.934 -4.76667,1.1852 -10.46667,2.733 -12.66667,3.4397 -2.2,0.7066 -31.3,8.5025 -64.66667,17.3241 -33.36667,8.8216 -63.66667,16.9069 -67.33334,17.9675 -6.15073,1.779 -17.69195,4.8674 -43.33333,11.596 -5.5,1.4433 -14.2,3.7263 -19.33334,5.0734 -5.13333,1.347 -14.13333,3.7497 -20,5.3393 -19.77116,5.357 -23.96692,6.483 -34,9.1241 -19.99656,5.264 -31.48353,8.329 -38.66667,10.3173 -11.75795,3.2546 -12.66202,3.4361 -13.40663,2.6915 z"
       id="path1" />
    <path
       id="path2"
       style="display:inline;fill:#ff0000"
       d="M 25.296875 26.666016 L 25.712891 644.33398 L 26.128906 1262 L 28.869141 1273.334 C 41.05039 1323.7245 66.701033 1359.6492 107.80469 1383.8848 C 121.63617 1392.0402 127.92044 1394.205 193.33398 1413.3359 C 205.43396 1416.8747 227.33335 1423.3638 242 1427.7578 C 256.66664 1432.1519 270.76733 1436.36 273.33398 1437.1074 C 275.90065 1437.8548 281.89936 1439.6572 286.66602 1441.1133 C 294.12506 1443.3918 318.51478 1450.6827 338.66602 1456.6582 C 341.966 1457.6368 352.16733 1460.6647 361.33398 1463.3867 C 370.50064 1466.1086 379.86186 1468.615 382.13672 1468.957 C 384.41159 1469.299 393.71095 1467.7551 402.80273 1465.5254 C 422.6283 1460.6632 447.559 1455.6734 466.66602 1452.7441 C 474.366 1451.5636 483.66734 1450.0387 487.33398 1449.3555 C 491.00065 1448.6722 501.20002 1447.4558 510 1446.6523 C 518.79998 1445.8488 530.50002 1444.6317 536 1443.9473 C 541.49998 1443.2629 557.09937 1442.0891 570.66602 1441.3398 C 584.23265 1440.5906 603.434 1439.3954 613.33398 1438.6836 C 623.23396 1437.9719 644.23337 1436.9943 660 1436.5098 C 688.41712 1435.6364 688.70232 1435.5967 692.67383 1432.1465 C 694.87735 1430.2321 704.88664 1422.8085 714.91797 1415.6484 C 735.70463 1400.8116 741.17577 1395.1505 747.44141 1382 C 750.96071 1374.6136 752.23326 1369.6429 753.53711 1358.1719 L 755.18359 1343.6777 L 757.00586 1348.8379 C 758.21709 1352.2693 758.68924 1358.4955 758.41406 1367.4121 C 758.03553 1379.6779 757.60204 1381.6087 753.33398 1390.0215 C 747.27818 1401.9582 738.86964 1410.3543 720 1423.3105 C 700.59123 1436.637 685.73993 1451.2407 680.72461 1461.9316 C 673.91396 1476.4498 667.67993 1520 672.41211 1520 C 673.37195 1520 675.10775 1519.2506 676.26953 1518.334 C 677.6808 1517.2204 678.6232 1513.5697 679.11133 1507.334 C 680.51676 1489.3802 684.63596 1474.5587 691.94531 1461.1445 C 695.70817 1454.2389 700 1448.9921 700 1451.2969 C 700 1451.8227 697.93621 1458.3457 695.41406 1465.793 C 690.17172 1481.2725 686.05283 1503.4996 687.33984 1509.3594 C 688.33726 1513.9006 688.15697 1513.8129 692.43164 1511.8652 C 695.35882 1510.5315 695.73885 1509.3357 696.57227 1498.8652 C 697.07709 1492.5231 698.42302 1484.0334 699.5625 1480 C 702.12306 1470.9366 710.22114 1455.1226 712.81055 1454.1289 C 714.33082 1453.5455 714.44436 1453.9239 713.35938 1455.9512 C 708.07811 1465.8194 702.95744 1499.7072 706.42383 1501.8496 C 707.02364 1502.2203 709.06671 1501.0844 710.96289 1499.3262 C 713.78215 1496.712 714.41984 1494.8917 714.46289 1489.334 C 714.49189 1485.596 715.43622 1479.4161 716.5625 1475.6016 C 718.5853 1468.7508 723.6381 1459.1928 724.68359 1460.2383 C 724.98012 1460.5349 724.36943 1464.3532 723.32617 1468.7227 C 719.7037 1483.8947 721.60495 1489.8025 726.6543 1479.0605 C 728.2712 1475.6209 731.36923 1467.9754 733.53906 1462.0703 C 742.85219 1436.7252 751.59415 1424.4151 764.41211 1418.5957 C 769.14441 1416.4472 773.2525 1416.0541 791.25586 1416.0293 C 802.9462 1416.0133 819.26586 1415.3157 827.52344 1414.4785 L 842.53906 1412.9551 L 834.02539 1403.6289 C 824.86695 1393.5942 817.08624 1379.7685 813.97266 1368 C 809.77027 1352.1163 812.51078 1331.4116 821.19531 1313.4531 C 824.42557 1306.7733 826.74364 1299.7409 827.30273 1294.9238 C 829.0217 1280.1131 830.86949 1282.4804 830.22266 1298.666 C 829.7674 1310.0578 828.88622 1315.81 826.79492 1321.041 C 822.84956 1330.9095 820.59905 1352.118 822.4082 1362.3887 C 826.21296 1383.9887 845.86541 1408.3692 864.66602 1414.8125 C 868.2321 1416.0346 876.18468 1416.6202 888.66602 1416.5781 L 907.33398 1416.5137 L 947.33398 1406.1719 C 985.10125 1396.4061 1019.8906 1387.023 1064 1374.707 C 1084.9157 1368.8671 1122.3654 1359.3416 1142.666 1354.6973 C 1149.6327 1353.1035 1156.8327 1351.2823 1158.666 1350.6504 C 1160.4994 1350.0185 1167.1492 1347.9416 1173.4434 1346.0352 C 1182.4343 1343.3121 1185.9168 1341.5069 1189.6875 1337.6172 C 1195.5446 1331.5751 1197.0685 1326.5919 1193.998 1323.5215 C 1191.9604 1321.4838 1191.4998 1321.776 1187.5684 1327.5938 C 1181.912 1335.964 1169.0359 1342.922 1152 1346.8145 C 1140.4689 1349.4492 1137.1213 1349.6289 1114.666 1348.8184 C 1075.4976 1347.4048 1054.2751 1350.5288 1024.2812 1362.1211 C 990.4549 1375.1947 956.91081 1381.0299 941.48633 1376.5254 C 930.05854 1373.1881 923.89041 1363.0557 926.93164 1352.6133 L 928.46875 1347.334 L 929.33984 1352.2188 C 931.96054 1366.9305 943.27366 1371.2338 969.46289 1367.4805 C 987.4418 1364.9039 1000.4962 1361.3907 1019.1465 1354.1094 C 1051.8723 1341.3329 1070.2782 1338.3736 1113.5723 1338.9316 C 1147.6364 1339.3706 1152.8122 1338.6814 1167.6328 1331.7305 C 1175.7465 1327.9252 1181.334 1322.798 1181.334 1319.1543 C 1181.334 1317.7267 1178.0979 1317.3243 1166.334 1317.2891 C 1127.6276 1317.1732 1101.8497 1311.9977 1047.334 1293.4004 C 1021.0123 1284.4211 1011.2154 1280.9012 1006 1278.5488 C 999.87146 1275.7846 974.14822 1266.666 972.47852 1266.666 C 969.38563 1266.666 970.4749 1268.6473 975 1271.252 C 977.38333 1272.6238 982.50937 1276.4217 986.39062 1279.6914 C 990.88209 1283.4752 996.70524 1286.7398 1002.4102 1288.6699 C 1011.4519 1291.729 1034.4614 1296.5139 1048 1298.1523 C 1055.4937 1299.0592 1075.3361 1305.4329 1081.334 1308.8594 C 1083.7697 1310.2509 1083.9486 1310.5779 1082 1310.0723 C 1062.7982 1305.0899 1055.4225 1303.6601 1040.2383 1301.9766 L 1022.4258 1300.002 L 1019.998 1303 C 1016.1354 1307.7703 999.2217 1307.9717 981.33398 1303.4609 C 973.78318 1301.5568 966.50015 1300 965.14844 1300 C 963.79673 1300 958.33486 1301.4531 953.01172 1303.2285 C 947.68856 1305.0039 941.11583 1306.8252 938.40625 1307.2754 C 932.19732 1308.3071 912.6068 1305.9287 905.8125 1303.3184 C 901.35633 1301.6064 901.2019 1301.4218 904.66602 1301.9473 C 915.34403 1303.5672 926.66296 1304.1909 926.62305 1303.1562 C 926.59855 1302.5209 923.46589 1300.2 919.66211 1298 C 914.967 1295.2845 911.44934 1291.8924 908.70703 1287.4375 C 905.05859 1281.5106 904.66602 1279.8011 904.66602 1269.7715 C 904.66602 1263.664 904.36666 1258.8483 904 1259.0703 C 903.63333 1259.2923 900.93333 1260.5641 898 1261.8965 C 890.99834 1265.077 878.80705 1264.0294 868.62305 1259.3711 C 859.62992 1255.2576 848.00235 1253.4396 829.33398 1253.2285 C 821.63399 1253.1415 812.03333 1252.6434 808 1252.123 L 800.66602 1251.1777 L 807.33398 1249.9863 C 811.00065 1249.3311 824.50068 1248.7657 837.33398 1248.7305 C 860.26731 1248.6675 860.89912 1248.7436 874.27539 1253.123 C 886.39595 1257.0911 888.40724 1257.4062 892.65625 1256.0039 C 897.00302 1254.5693 902.57634 1248.799 901.07031 1247.293 C 900.72737 1246.95 897.79637 1246.1168 894.55664 1245.4414 C 891.31691 1244.766 881.76731 1242.7496 873.33398 1240.959 C 845.16865 1234.979 807.5286 1228.7262 791.33398 1227.3379 C 786.20067 1226.8978 778.10065 1225.9611 773.33398 1225.2559 C 753.06051 1222.2569 657.7665 1216.8337 638.83203 1217.6016 L 629.00977 1218 L 634.59961 1224.666 C 643.42959 1235.1952 648.66789 1246.8638 651.92578 1263.2598 C 654.36913 1275.5564 658.11699 1314.3283 656.97266 1315.4727 C 656.77521 1315.6701 650.01852 1313.5769 641.95898 1310.8223 C 620.37985 1303.4469 608.9621 1296.997 597.77148 1285.8574 C 587.58838 1275.7208 583.41136 1268.7008 575.63867 1248.6582 C 568.49404 1230.2351 563.90405 1221.3259 559.05664 1216.4785 C 550.33122 1207.753 549.33726 1207.5421 512 1206.4844 C 493.30004 1205.9547 474.4 1205.1097 470 1204.6074 C 464.25027 1203.951 459.96277 1204.3003 454.75781 1205.8477 C 449.58667 1207.3849 442.34194 1207.9828 429.42383 1207.9414 C 408.46094 1207.8744 410.99896 1208.3231 366 1196.7344 C 301.51299 1180.1269 295.47801 1178.5277 264.66602 1169.8711 C 214.70471 1155.8345 208.20498 1154.1137 189.33398 1149.9355 C 171.34074 1145.9518 169.15623 1145.3952 150.48242 1140.0488 C 131.06556 1134.4896 127.36072 1132.7651 120.83008 1126.2344 C 113.39353 1118.7979 110.76672 1110.3346 113.86719 1103.8008 C 116.35486 1098.5584 119.0482 1096.6725 129.21484 1093.0586 C 135.14978 1090.949 142.09297 1090.1921 163.33398 1089.3398 C 178.00063 1088.7512 194.50002 1087.3404 200 1086.2031 C 226.77502 1080.667 262.83137 1069.3031 309.08398 1051.8223 C 322.51322 1046.7467 337.31772 1041.3406 341.98438 1039.8086 C 348.56289 1037.6491 351.43004 1035.8276 354.74609 1031.7012 C 362.97761 1021.4582 380.7166 1016.9213 392.79688 1021.9688 C 397.17528 1023.798 398.69794 1023.6558 414.41992 1019.957 C 445.72978 1012.5909 470.14503 1007.5379 482 1005.9707 C 485.66667 1005.486 490.76734 1004.5662 493.33398 1003.9258 C 498.39612 1002.6629 519.89354 999.78057 547.33398 996.6875 C 556.86729 995.6129 570.06602 994.12051 576.66602 993.36914 C 583.266 992.61776 598.56604 991.39822 610.66602 990.66016 C 622.76599 989.92211 635.96667 989.01077 640 988.63477 C 644.03333 988.25877 658.88547 987.37028 673.00391 986.66016 L 698.67383 985.36914 L 705.00391 980.58398 C 708.48543 977.95252 716.41107 972.09466 722.61719 967.56641 C 735.59188 958.09948 745.53748 946.50684 749.29102 936.47461 C 750.72559 932.64034 752.6509 923.17052 753.57031 915.42969 L 755.24219 901.35547 L 756.93359 907.01172 C 757.86418 910.12245 758.6215 917.76669 758.61523 924 C 758.59083 948.21436 748.75538 961.34126 711.1582 987.33398 C 698.63659 995.9908 686.00758 1010.3785 679.55859 1023.334 C 674.38703 1033.7232 668.00338 1077.3812 671.66602 1077.3145 C 672.21602 1077.3045 674.01602 1076.9344 675.66602 1076.4922 C 678.32697 1075.7791 678.66602 1074.8404 678.66602 1068.1777 C 678.66602 1049.027 688.61881 1019.4798 698.05469 1010.6152 L 701.50781 1007.3711 L 698.95703 1013.3516 C 689.79293 1034.8344 683.86993 1070.666 689.48242 1070.666 C 694.1988 1070.666 695.61937 1067.9636 696.50781 1057.3105 C 697.00344 1051.3677 698.2907 1043.0923 699.36914 1038.9199 C 701.81223 1029.4678 708.34169 1015.9754 712.11914 1012.5703 L 714.96875 1010 L 712.73242 1015.334 C 706.54612 1030.0798 702.77413 1060 707.10156 1060 C 710.23187 1060 714.99517 1053.8012 714.08008 1050.918 C 712.7741 1046.8032 716.86893 1029.6912 720.74219 1023.082 C 722.66294 1019.8045 724.45712 1017.3458 724.72852 1017.6172 C 724.99992 1017.8886 724.36943 1021.6852 723.32617 1026.0547 C 721.15665 1035.1414 720.78584 1042.666 722.50977 1042.666 C 723.54719 1042.666 730.66602 1029.1359 730.66602 1027.1641 C 730.66602 1026.745 731.48765 1024.512 732.49023 1022.2012 C 733.49284 1019.8903 735.99861 1013.8608 738.05859 1008.8008 C 745.51232 990.49205 755.22964 979.75019 768.66602 974.97266 C 770.866 974.19041 787.85953 973.21201 806.42773 972.79688 C 824.99595 972.38173 840.76064 971.68672 841.46094 971.25391 C 842.16124 970.8211 839.95551 967.66296 836.55859 964.23438 C 825.8824 953.45865 818.22286 940.5366 814.16992 926.46094 C 809.70921 910.96902 812.5846 887.20831 820.66797 872.75391 C 823.69786 867.33595 825.73048 861.33284 826.79492 854.65625 C 829.36678 838.5245 830.80314 839.068 830.34961 856 C 830.05537 866.98524 829.31078 872.56998 827.72461 875.69336 C 822.02309 886.92044 820.12853 917.78924 824.44336 929.14648 C 830.64984 945.48289 845.97537 963.5233 859.10547 969.94727 C 869.64001 975.10133 893.30162 976.14477 912 972.2793 C 929.97069 968.56424 992.85011 952.24567 1046 937.50391 C 1079.9238 928.09472 1090.4402 925.23267 1104.666 921.53711 C 1113.466 919.25106 1127.5666 915.83639 1136 913.94922 C 1155.4041 909.60705 1177.8857 903.035 1184.207 899.85742 C 1193.207 895.33332 1198.3703 885.72673 1194.043 881.55469 C 1191.8906 879.4795 1191.639 879.50783 1190.2031 882 C 1186.24 888.8787 1177.4527 895.64958 1167.2305 899.70117 C 1151.8114 905.81255 1144.288 906.64827 1107.334 906.35352 C 1076.9313 906.11103 1072.7112 906.36153 1059.334 909.18945 C 1051.2673 910.89503 1038.9666 914.39807 1032 916.97461 C 1004.1118 927.28869 997.51719 929.38691 984.69141 932.03125 C 956.84107 937.77324 940.12693 936.90049 932.1582 929.28516 C 927.61298 924.94149 925.0963 917.51655 926.23633 911.81641 C 927.21846 906.90579 929.33398 905.47761 929.33398 909.72461 C 929.33398 914.36891 934.64948 921.63009 940.02734 924.33203 C 946.66328 927.66605 960.86161 927.32033 980.37109 923.35156 C 995.04068 920.36737 1003.0659 917.84633 1032 907.12891 C 1053.7811 899.06099 1069.503 897.03744 1112 896.83789 C 1147.0175 896.67346 1149.0864 896.52284 1158 893.45898 C 1163.1333 891.69451 1169.5673 888.84523 1172.2988 887.12891 C 1177.6695 883.75416 1182.2783 877.83696 1180.7402 876.29102 C 1180.2158 875.7639 1169.1846 874.95839 1156.2266 874.5 C 1143.2683 874.04162 1128.4673 872.97977 1123.334 872.14062 C 1095.9978 867.672 1051.5103 853.76114 992.66602 831.28125 C 982.29288 827.31807 972.17024 824 970.45508 824 C 967.79991 824 969.69442 826.34459 974.01367 828.4043 C 976.58761 829.63173 981.23633 832.9659 984.3457 835.8125 C 987.45509 838.6591 992.40066 842.19476 995.33398 843.66992 C 1001.0287 846.53376 1018.2075 851.08856 1031.334 853.21484 C 1059.109 857.71401 1074.0542 861.64644 1080.6309 866.18555 C 1084.0306 868.53196 1083.7253 868.49887 1072.6621 865.32031 C 1067.5311 863.84612 1056.134 861.76173 1047.334 860.68945 C 1038.534 859.61717 1029.1693 858.35818 1026.5254 857.89258 C 1022.4426 857.17358 1021.6134 857.45021 1021.0176 859.72852 C 1020.4865 861.75929 1018.4362 862.80259 1012.5742 864.01953 C 1003.6465 865.87292 998.48713 865.33983 979.01367 860.55664 L 964.91406 857.09375 L 952.12305 861.2207 C 944.78048 863.58975 936.49327 865.34393 932.66602 865.33984 C 924.13914 865.33084 905.14707 861.71859 903.36523 859.76758 C 902.3782 858.68681 902.73724 858.54353 904.66602 859.24609 C 906.13267 859.78032 911.834 860.48888 917.33398 860.82227 C 925.76275 861.33318 926.9445 861.16002 924.85742 859.71484 C 914.04091 852.22504 910.56127 848.71847 907.26562 841.98242 C 904.0817 835.4747 903.72645 833.47207 904.31055 825.30859 L 904.97461 816.03125 L 899.93359 818.86523 C 892.83617 822.85421 878.56012 821.83463 867.33398 816.53906 C 859.83271 813.00059 857.79494 812.6987 834.66602 811.67188 C 799.69334 810.11923 796.0484 808.96866 818.98633 806.72461 C 842.3443 804.43945 858.14935 805.48462 871.75195 810.21289 C 885.76681 815.08448 893.47686 815.12427 898.25195 810.35156 C 900.63931 807.9654 901.44954 806.25031 900.59375 805.39453 C 899.87408 804.67485 887.2962 801.68108 872.64258 798.74219 C 833.87043 790.96612 803.93312 786.75635 763.33398 783.37305 C 750.13402 782.27303 732.13398 780.76515 723.33398 780.02148 C 714.534 779.27784 689.9532 778.27004 668.71094 777.78125 L 630.08789 776.89258 L 635.7168 783.96094 C 648.0636 799.46788 653.62161 818.50172 655.95312 853.26562 C 656.6638 863.86209 657.08342 872.69588 656.88477 872.89453 C 655.91717 873.86213 630.50944 864.73195 620.33203 859.75977 C 611.21509 855.30566 606.55201 851.87923 598.06641 843.39648 C 586.65301 831.98696 582.60652 825.18288 574.65234 804.0332 C 566.12295 781.354 560.70702 773.12216 551.08789 768.21484 C 546.47268 765.86034 542.30709 765.44459 516.58594 764.76758 C 500.49691 764.3441 481.33331 763.51033 474 762.91602 C 463.91864 762.09899 459.20262 762.28353 454.66602 763.66992 C 451.36601 764.6784 442.06664 765.8273 434 766.22266 C 414.50574 767.1781 411.56953 766.56104 314.66602 741.18555 C 303.29937 738.20903 283.49932 732.78251 270.66602 729.12695 C 237.41695 719.65599 200.99445 709.9646 189.33398 707.48633 C 157.661 700.75466 135.13822 694.15631 127.30078 689.3125 C 117.42204 683.20711 110.77051 671.36719 112.76172 663.43359 C 115.3328 653.18959 129.54318 648.16229 156.66602 647.90234 C 191.46339 647.56884 217.7923 641.76264 276 621.58789 C 286.63331 617.90239 302.534 612.1036 311.33398 608.70117 C 320.13398 605.29876 332.734 600.66327 339.33398 598.40039 C 345.93399 596.13752 351.52925 593.78607 351.76758 593.17578 C 352.67922 590.84138 361.92233 582.4306 365.75391 580.44922 C 372.09531 577.16994 383.88473 576.63766 391.82031 579.27344 C 398.62659 581.53412 398.80828 581.51992 416.29297 577.36328 C 442.07625 571.23383 480.17338 563.84989 502.66602 560.62305 C 541.92633 554.99063 622.00916 548.17951 676.28906 545.85547 C 694.39555 545.08022 696.25052 544.76095 700.28906 541.72461 C 702.69631 539.91475 710.41659 534.33143 717.44336 529.31641 C 724.47013 524.30137 733.35228 516.77 737.18164 512.58008 C 747.46542 501.328 750.47909 494.37247 753.16992 475.67969 C 755.45434 459.81016 755.48986 459.70929 757.07031 464.98438 C 757.94791 467.91352 758.66602 475.52857 758.66602 481.9082 C 758.66602 492.30466 758.19295 494.53273 754.09766 503.39648 C 749.2162 513.96175 739.81738 525.05539 730.26953 531.51953 C 714.30635 542.32705 694.5789 557.85971 691.17969 562.29883 C 684.47613 571.0531 681.02521 576.50408 678.58203 582.19922 C 675.67714 588.97061 670.66602 618.22652 670.66602 628.41406 L 670.66602 635.86133 L 674.66602 634.4668 C 678.21631 633.22916 678.67838 632.45093 678.76953 627.53711 C 679.173 605.78425 688.61121 576.70768 698.10352 567.97266 C 701.09593 565.21896 701.47089 565.11292 700.34766 567.33398 C 697.20421 573.54985 691.98701 590.96956 689.42383 603.81055 C 686.31145 619.40291 686.08595 623.09098 688.02539 626.71484 C 689.15125 628.81854 689.91969 629.00842 692.50586 627.83008 C 695.30878 626.55298 695.71594 625.24533 696.50391 614.99414 C 697.81788 597.8997 703.63499 580.30219 710.7168 572 L 713.56055 568.66602 L 712.66602 572 C 712.17441 573.83333 710.32355 580.64876 708.55273 587.14648 C 704.8926 600.57674 704.10143 617.33398 707.12695 617.33398 C 710.85091 617.33398 713.97564 611.87633 714.22656 604.93359 C 714.36191 601.18886 715.2109 595.397 716.11328 592.0625 C 717.83399 585.70414 723.88568 574.10833 724.93555 575.1582 C 725.2718 575.49445 724.59813 579.46942 723.43945 583.99219 C 721.0281 593.40467 720.71828 600 722.68555 600 C 724.09839 600 728.15397 591.57571 733.2793 578 C 738.57399 563.97565 747.11147 547.64261 751.35352 543.42188 C 753.61374 541.173 758.73491 537.54961 762.73242 535.36914 L 770 531.4043 L 805.33398 530.48633 C 824.76728 529.98163 840.81667 529.51601 841 529.45117 C 842.33922 528.97755 840.86118 525.1537 838.77344 523.69141 C 834.92871 520.99846 824.90455 508.19342 820.89844 500.85742 C 809.33801 479.68798 809.22459 451.08718 820.61914 430.35547 C 823.70038 424.74933 825.84436 418.35323 827.13477 410.91602 C 828.1925 404.81976 829.4187 399.46997 829.86133 399.02734 C 830.30396 398.58471 830.66602 404.0041 830.66602 411.07031 C 830.66602 421.1747 829.95314 426.10649 827.32227 434.16602 C 822.59195 448.6569 820.63182 466.88027 822.59375 478.14648 C 825.9869 497.63133 842.34475 519.7202 859.55664 528.05859 C 865.1974 530.79129 868.4076 531.24286 885.33398 531.68555 L 904.66602 532.19141 L 946.66602 521.52344 C 983.02571 512.28966 1039.4415 497.24885 1060.666 491.12891 C 1079.9373 485.57216 1107.9002 478.16984 1120 475.42188 C 1168.1046 464.49684 1182.5833 459.90687 1189.3984 453.42383 C 1195.5449 447.57686 1197.3245 442.07354 1194.0977 438.88672 C 1191.9998 436.81483 1191.7632 436.81811 1190.5645 438.92969 C 1185.2667 448.26137 1177.2015 454.04478 1162.3379 459.17383 C 1147.8411 464.17632 1136.3494 465.28605 1108 464.41797 C 1070.7238 463.27654 1055.5923 465.75243 1021.4141 478.58984 C 993.57163 489.04752 974.42908 493.26583 954.61523 493.30859 C 939.50814 493.34119 932.73969 490.17001 928.14844 480.91016 C 925.23845 475.04118 925.11028 474.00716 926.65234 468.91016 L 928.33984 463.33398 L 929.96484 469.66797 C 932.12373 478.08677 935.01148 480.97081 943.85938 483.54297 C 950.69117 485.52903 952.41353 485.5219 966.625 483.43555 C 987.76416 480.33214 995.82618 478.20269 1020 469.33398 C 1046.0896 459.76244 1053.342 457.96132 1076.666 455.27344 C 1092.7573 453.41906 1097.7682 453.35614 1112.9844 454.80664 C 1128.5687 456.29221 1132.1196 456.22598 1143.3047 454.24414 C 1158.6754 451.52066 1171.1819 446.69913 1177 441.25391 C 1185.8116 433.00699 1184.1426 432.43019 1148.666 431.46875 C 1128.0869 430.91104 1122.2911 430.25187 1108 426.8418 C 1083.3787 420.96676 1047.0212 409.49881 1016.666 398.03125 C 1015.1994 397.47717 1005.6007 393.84158 995.33398 389.95312 C 974.33423 381.99954 969.33398 380.51479 969.33398 382.23438 C 969.33398 382.88908 971.28268 384.55425 973.66602 385.93555 C 976.04933 387.31684 981.44022 391.2958 985.64453 394.77539 C 995.7078 403.10398 1016.703 409.75938 1042 412.64258 C 1052.553 413.84536 1066.8377 417.6989 1076.334 421.9043 C 1084.6124 425.57034 1086.4453 427.23871 1080 425.24023 C 1077.8 424.5581 1074.2234 423.44772 1072.0508 422.77344 C 1068.1392 421.55945 1047.7038 418.35181 1030.334 416.22461 C 1023.292 415.36221 1021.334 415.49775 1021.334 416.84766 C 1021.334 422.95558 999.72162 423.67986 978.37109 418.28711 L 964.07617 414.67578 L 957.03711 417.25977 C 940.0994 423.48018 934.56234 424.20196 920.78125 421.98438 C 901.75383 418.92256 899.53379 417.33171 915.33398 418.08203 L 928.66602 418.71484 L 923.33203 416.2207 C 916.41092 412.98308 908.99491 404.69485 905.99805 396.84766 C 904.19436 392.12478 903.81207 388.55536 904.41602 382.08789 L 905.21289 373.55664 L 899.60547 376.76172 C 896.52214 378.52477 891.90065 379.96863 889.33398 379.96875 C 883.22039 379.96906 872.72212 377.11797 865.79102 373.57422 C 861.13028 371.19127 856.25508 370.50864 835.125 369.2832 C 821.30638 368.48179 808.49933 367.46414 806.66602 367.02148 C 800.38887 365.50589 814.22628 364.20333 837.70508 364.09961 C 859.11141 364.00501 860.60079 364.17261 872.21484 368 C 887.31518 372.97624 891.86073 373.06794 897.28711 368.50195 C 904.60249 362.34646 905.25125 362.60294 860.66602 353.97852 C 836.68388 349.33949 799.02214 343.57438 782.66602 342.03906 C 777.89935 341.59163 770.10065 340.64875 765.33398 339.94336 C 748.07607 337.38947 631.06375 331.15696 629.51172 332.70898 C 629.21796 333.00274 630.70801 335.27902 632.82227 337.76562 C 640.22279 346.46954 641.08764 347.77173 645.04688 356.1875 C 650.42933 367.62851 654.38946 387.39707 655.95117 410.62305 C 656.66281 421.20663 657.02181 430.08952 656.74805 430.36328 C 654.77261 432.33872 615.90729 416.5422 608.30078 410.67188 C 591.69359 397.85526 583.65026 385.85164 573.22656 358.33203 C 566.78486 341.32531 561.41198 332.87072 553.55273 327.375 L 547.77148 323.33398 L 513.55273 322.25195 C 461.56498 320.60793 457.38852 320.62616 447.33398 322.55078 C 433.23752 325.24908 410.89498 323.74523 392 318.82617 C 383.56669 316.63066 362.26598 311.14489 344.66602 306.63477 C 304.29044 296.28821 302.90412 295.9186 282 290.01172 C 272.46668 287.31788 261.66666 284.34935 258 283.41406 C 254.33333 282.47876 246.23331 280.16149 240 278.26367 C 229.20714 274.97767 202.18542 268.04482 189.33398 265.26562 C 172.92423 261.71692 154.01687 256.81095 142.19922 253.0332 C 126.71581 248.08363 117.67878 241.14989 113.9375 231.35352 C 109.70012 220.25813 114.04046 213.75998 129.01953 208.77148 C 137.8992 205.81429 141.67204 205.33168 156.00391 205.32227 C 177.53599 205.30817 192.66558 203.52101 213.31445 198.55078 C 237.36925 192.76076 276.65935 179.74192 321.2832 162.77539 C 331.15582 159.02169 341.49121 155.34248 344.25 154.59961 C 347.39691 153.75224 351.39051 150.9773 354.9668 147.1543 C 363.34854 138.1943 369.4283 135.41354 380.66602 135.40234 C 386.74962 135.39634 391.37145 136.14347 393.93945 137.54492 C 397.33462 139.39777 398.71698 139.46064 403.93945 138 C 440.89564 127.66403 501.6863 116.87171 554 111.36133 C 564.26665 110.27991 578.36733 108.75843 585.33398 107.97852 C 598.07617 106.55203 648.44717 103.27378 680.66602 101.77539 L 698 100.96875 L 710.66602 91.841797 C 717.63267 86.821737 724.83269 81.674335 726.66602 80.402344 C 740.76148 70.622688 751.32111 52.839891 752.83203 36.333984 L 753.7168 26.666016 L 389.50586 26.666016 L 25.296875 26.666016 z M 758.66602 26.666016 L 758.66602 38.617188 C 758.66602 60.507128 750.72354 73.880208 727.7168 90.724609 C 719.43898 96.78522 709.76285 103.9018 706.21484 106.53906 C 698.36118 112.37676 685.63917 127.10107 680.85742 135.88672 C 678.92165 139.44337 676.09959 148.27363 674.58594 155.50977 C 671.8675 168.50547 669.54681 193.33398 671.05078 193.33398 C 671.47745 193.33398 673.27919 192.78052 675.05469 192.10547 C 678.01273 190.98082 678.36184 189.91439 679.21875 179.35352 C 680.35252 165.3804 684.15449 149.88394 688.875 140 C 692.58702 132.22769 698.55895 123.44762 699.49609 124.38477 C 699.8041 124.69277 697.97834 131.18315 695.43945 138.80664 C 690.07152 154.92486 686.12345 176.02121 687.30078 182.29688 C 688.23028 187.25152 688.09352 187.17384 692.43164 185.19727 C 695.35882 183.86356 695.73885 182.66777 696.57227 172.19727 C 697.07709 165.85512 698.42302 157.36731 699.5625 153.33398 C 701.9013 145.05553 710.38659 128 712.16602 128 C 713.6366 128 713.85612 126.90287 709.89258 139.33398 C 706.48409 150.02419 704.19248 169.77062 705.85742 174.10938 C 706.64306 176.15672 707.19804 175.99002 710.67773 172.65625 C 713.98741 169.48538 714.58616 167.9108 714.46875 162.69922 C 714.30448 155.40824 717.48045 143.83054 721.37695 137.51562 C 722.89858 135.04959 724.35982 133.24959 724.62305 133.51562 C 724.88627 133.78166 724.14908 138.5478 722.98633 144.10547 C 721.82357 149.66312 721.32598 155.36249 721.88086 156.77148 C 722.73572 158.9422 723.39007 158.3583 726.16602 152.94336 C 727.96786 149.42855 731.25318 141.6279 733.46484 135.60938 C 743.00942 109.63611 751.5398 97.765902 765.09961 91.589844 C 770.74259 89.019648 774.62109 88.663119 806 87.832031 C 825.06665 87.32704 841.16599 86.858957 841.77539 86.791016 C 842.3848 86.723076 838.97554 82.385634 834.19922 77.152344 C 821.92226 63.700809 812.06989 42.908535 812.01562 30.333984 L 812 26.666016 L 785.33398 26.666016 L 758.66602 26.666016 z M 821.24219 26.666016 L 822.04883 33.666016 C 823.8885 49.609133 840.78472 74.876841 855.28906 83.376953 C 868.34061 91.025666 889.10127 92.522782 912.66602 87.511719 C 926.23272 84.62675 975.73556 72.128264 1000.666 65.294922 C 1006.5327 63.686894 1014.3333 61.597983 1018 60.652344 C 1027.0797 58.31066 1059.3179 49.387377 1082 42.9375 C 1092.2666 40.018067 1107.866 35.978224 1116.666 33.958984 C 1149.785 26.359531 1151.0489 26.767863 1095.334 27.064453 L 1044.666 27.333984 L 1024.666 34.998047 C 997.42888 45.436813 981.54396 49.344066 962.53711 50.279297 C 943.72746 51.204823 938.58063 50.346784 932.86914 45.332031 C 928.2905 41.311924 924.70555 32.520933 926.13086 28.806641 C 926.874 26.870064 922.87712 26.666016 883.99219 26.666016 L 841.03125 26.666016 L 841.92383 33 C 843.91548 47.121953 856.14877 63.934037 868.36523 69.337891 C 874.72244 72.149946 875.66956 74.666016 870.37109 74.666016 C 867.07269 74.666016 856.35859 68.057974 852.54492 63.671875 C 844.02565 53.87385 838.85437 43.458521 836.63477 31.626953 L 835.70312 26.666016 L 828.47266 26.666016 L 821.24219 26.666016 z M 974.33398 26.707031 C 949.58401 26.684731 929.33514 27.116016 929.33789 27.666016 C 929.34949 29.985827 934.76055 37.289428 937.5957 38.8125 C 944.71949 42.639474 950.23407 43.133324 965.36914 41.294922 C 983.18219 39.131236 1009.3569 32.371259 1017.334 27.875 C 1018.4553 27.243002 999.5625 26.729762 974.33398 26.707031 z M 969.57617 394.74805 C 968.49412 394.75265 968 395.47546 968 396.875 C 968 398.08912 966.52162 401.01985 964.71484 403.38867 L 961.42969 407.69531 L 969.71484 408.41602 C 974.27162 408.81182 982.79935 410.64745 988.66602 412.49609 C 1000.0568 416.08543 1003.1188 416.45004 1007.334 414.7168 C 1009.4106 413.86293 1009.5574 413.48858 1008 413.02539 C 995.29939 409.24819 986.54874 405.69479 982.86719 402.82031 C 975.85159 397.3427 971.64191 394.73925 969.57617 394.74805 z M 840.75781 419.85742 C 840.98798 419.89932 841.29826 420.43219 841.7168 421.33398 C 842.72378 423.50367 843.27596 433.9765 843.29883 451.33398 C 843.33373 477.86141 843.35273 478.03969 847.09766 485.66602 C 851.90982 495.46573 862.27269 506.81514 869.30078 509.98438 C 872.85058 511.5851 874.63308 513.19471 874.37305 514.56055 C 873.7849 517.64989 869.3729 517.64482 863.5625 514.54883 C 852.68128 508.751 841.6307 493.6973 837.85938 479.5332 C 835.46525 470.54154 835.53137 454.53119 838 445.33398 C 839.08259 441.30067 840.01318 433.49998 840.06836 428 C 840.12806 422.04807 840.25144 419.76534 840.75781 419.85742 z M 951.64258 436.19727 C 952.59891 436.11997 952.6745 437.34298 952.28711 439.98242 C 950.02619 455.38707 965.95952 459.69722 998.66602 452.52734 C 1007.0994 450.67862 1020.5994 447.72246 1028.666 445.95898 C 1044.7935 442.43331 1057.1248 442.01253 1067.334 444.63672 L 1074 446.34961 L 1061.334 446.51758 C 1046.8859 446.70891 1035.9281 449.07104 1008 458.01758 C 991.38701 463.3394 986.69608 464.29466 974.66602 464.80469 C 964.62277 465.23049 959.25023 464.86819 955.6543 463.51953 C 949.03002 461.03525 946.63463 458.91177 944.38477 453.5293 C 941.9951 447.81237 943.23074 442.13245 947.61523 438.68359 C 949.62177 437.10526 950.89876 436.25736 951.64258 436.19727 z M 969.47461 837.42383 C 968.48175 837.43701 968 838.01406 968 839.14648 C 968 840.14414 966.54873 843.09973 964.77539 845.71289 L 961.55078 850.46289 L 965.82422 849.76953 C 968.48662 849.33748 973.84944 850.32853 980.04883 852.39648 C 985.52174 854.22211 991.19935 856.00925 992.66602 856.36914 C 996.83813 857.3929 1007.4578 857.43086 1008.4629 856.42578 C 1008.9615 855.92718 1004.9538 854.24613 999.55664 852.68945 C 993.06709 850.81767 986.77122 847.73765 980.9668 843.5957 C 975.13072 839.43116 971.37007 837.39866 969.47461 837.42383 z M 840.71484 862.2793 C 840.95457 862.237 841.27547 862.62627 841.70703 863.33398 C 842.8467 865.20292 843.33398 874.1774 843.33398 893.33398 L 843.33398 920.66602 L 847.13867 928.41602 C 851.65177 937.60702 863.21876 949.91889 870.00391 952.75391 C 873.29639 954.12959 874.703 955.49816 874.40625 957.03906 C 873.75712 960.4097 870.63857 960.4046 864.59766 957.02344 C 855.64925 952.01479 855.25256 951.65878 848.22852 942.33984 C 836.82922 927.21618 833.16669 907.46429 838.02734 887.33398 C 839.08976 882.934 839.98577 875.13332 840.01953 870 C 840.05533 864.55054 840.18744 862.3724 840.71484 862.2793 z M 951.04102 878.82422 C 952.22543 878.94401 952.51986 880.75706 952.21875 884.54297 C 951.60952 892.20305 954.58905 895.24072 964.78516 897.35742 C 974.68305 899.41222 989.34654 897.62101 1014.3379 891.30273 C 1034.3224 886.25032 1053.5693 884.39493 1064.666 886.45117 L 1071.334 887.68555 L 1065.334 888.01562 C 1047.2076 889.00881 1039.8275 890.41985 1018.666 896.94727 C 989.29438 906.00719 986.81691 906.60132 975.33398 907.32617 C 967.97127 907.79095 962.41312 907.36747 957.39062 905.95703 C 948.34523 903.41685 946.07179 901.39689 944.02539 894.08789 C 942.29299 887.90039 943.45298 883.77762 947.88477 880.375 C 949.2989 879.28925 950.33036 878.75234 951.04102 878.82422 z M 970.07422 1279.3047 C 969.17505 1279.3006 968.71229 1280.1295 967.95508 1282.1211 C 967.21042 1284.0797 965.46467 1287.2766 964.07617 1289.2266 L 961.55078 1292.7715 L 965.77539 1292.3262 C 968.09883 1292.0806 973.30066 1292.8517 977.33398 1294.041 C 996.2453 1299.6175 1002.6678 1300.6226 1007.334 1298.7324 C 1009.5566 1297.8321 1009.1113 1297.4829 1004.666 1296.6367 C 997.31657 1295.2375 986.08161 1290.1421 980.22266 1285.5508 C 977.53347 1283.4434 973.97724 1281.0077 972.32031 1280.1387 C 971.30941 1279.6085 970.61372 1279.3071 970.07422 1279.3047 z M 840.71289 1304.9434 C 840.95386 1304.9014 841.27511 1305.2917 841.70703 1306 C 842.8467 1307.869 843.33398 1316.8434 843.33398 1336 L 843.33398 1363.334 L 847.82031 1371.6055 C 854.10013 1383.1842 859.9312 1389.5375 867.79883 1393.3711 C 872.02494 1395.4303 874.58287 1397.5422 874.61523 1399 C 874.68823 1402.2901 868.53242 1402.0435 862.66602 1398.5215 C 855.86635 1394.4393 852.3295 1390.9164 846.5957 1382.5195 C 836.4812 1367.7074 833.39917 1348.941 837.97266 1330 C 839.03508 1325.6 839.94377 1317.7993 839.99219 1312.666 C 840.04359 1307.2121 840.18276 1305.0349 840.71289 1304.9434 z M 950.54883 1321.334 C 952.25216 1321.334 952.59302 1322.5105 952.22461 1327.1426 C 951.83263 1332.0711 952.27381 1333.3548 955.14258 1335.6113 C 957.0024 1337.0743 962.07642 1339.0259 966.41797 1339.9473 C 973.39654 1341.4282 976.22475 1341.2838 990.80273 1338.6973 C 999.87209 1337.0882 1007.6404 1335.5563 1008.0664 1335.293 C 1008.4924 1335.0297 1015.6329 1333.2799 1023.9336 1331.4062 C 1035.1456 1328.8754 1042.4917 1328.0341 1052.5117 1328.1328 C 1072.1127 1328.326 1075.6853 1329.9946 1058.666 1331.0078 C 1044.5413 1331.8487 1038.5485 1333.2304 1002.666 1343.918 C 985.54407 1349.0178 970.41036 1351.2613 962.66602 1349.8477 C 952.83633 1348.0533 948.17471 1345.2037 945.27734 1339.2188 C 943.30097 1335.1361 942.67943 1332.1207 943.30078 1329.6309 C 944.42817 1325.1133 947.73044 1321.334 950.54883 1321.334 z " />
    <path
       id="path3"
       style="display:inline;fill:#0066ff"
       d="M 1226.0469 26.666016 C 1190.4257 26.666016 1178.8096 27.083756 1174.3809 28.521484 C 1160.3959 33.061578 1145.4455 36.912816 1122.666 41.84375 C 1113.9488 43.730728 1096.3196 48.418225 1059.334 58.681641 C 1048.334 61.734098 1036.3327 65.035977 1032.666 66.019531 C 1028.9994 67.003086 1020.3007 69.38319 1013.334 71.308594 C 996.35391 76.001445 972.25668 82.318233 960 85.291016 C 954.50002 86.625005 943.04559 89.546187 934.54492 91.78125 C 901.4949 100.47101 882.9635 101.76806 863.76758 96.736328 C 857.61829 95.124451 853.00264 94.987 839.10156 96.003906 C 829.6957 96.691974 812.21639 97.273532 800.25781 97.294922 C 788.29923 97.316312 775.99856 97.973602 772.92383 98.755859 C 759.18541 102.25112 753.4049 109.91759 741.13672 140.91602 C 727.95989 174.21034 712.21498 188.8709 676.45312 201.14258 C 669.73562 203.44769 663.58626 205.33398 662.78711 205.33398 C 660.97728 205.33398 660.80529 181.57933 662.54883 172.39844 C 663.2172 168.87901 664.49098 161.49998 665.37891 156 C 667.79048 141.06212 671.43416 132.45627 680.19922 121 L 688.10547 110.66602 L 681.05273 110.74023 C 668.29648 110.87177 601.74173 115.36129 583.33398 117.33203 C 513.90248 124.76537 488.98292 128.39423 446.66602 137.23828 C 413.05845 144.26211 412.30805 144.65704 420.10156 151.21484 C 425.59754 155.8394 431.37489 155.61081 446.05859 150.19141 C 457.5785 145.93968 472.58707 144.93254 496 146.83789 C 514.2438 148.32258 516.86241 148.78296 511.33398 149.53125 C 507.66733 150.02755 498.95075 150.48654 491.96484 150.55078 C 473.47855 150.72079 458.07047 152.98744 448.80273 156.90234 C 437.91024 161.5036 425.6541 162.48432 418.62891 159.31641 C 415.71624 158.00297 413.33398 156.41882 413.33398 155.79688 C 413.33398 155.17492 412.74838 154.66602 412.0332 154.66602 C 411.18831 154.66602 411.18831 155.86372 412.0332 158.08594 C 414.35878 164.20266 413.52507 174.87286 410.16406 182 C 406.44981 189.87626 402.50451 193.77548 393.76367 198.21289 L 387.33398 201.47852 L 400.66602 200.76758 C 416.4099 199.9294 414.15367 201.74798 396.54102 204.0918 C 383.22053 205.86443 378.0552 205.29908 363.18945 200.44141 L 352.37891 196.91016 L 338.23047 200.45508 C 328.4022 202.91783 320.58937 204 312.64648 204 C 302.26079 204 300.9089 203.69796 297.91406 200.70312 C 294.68791 197.47697 294.38132 197.43366 283.64258 198.75195 C 264.9908 201.04164 247.89869 204.06702 241.6875 206.17578 C 232.64096 209.24716 233.48555 207.46046 242.94922 203.50781 C 252.16084 199.66045 263.98034 196.72646 281.33398 193.98047 C 311.15885 189.26109 322.68089 185.30823 332.53906 176.41211 C 336.27566 173.04016 341.28268 169.46092 343.66602 168.45703 C 349.64077 165.94038 349.33964 163.45157 343.19922 164.60352 C 340.5587 165.09889 336.5087 166.33285 334.19922 167.3457 C 331.88975 168.35855 325.79933 170.75208 320.66602 172.66406 C 315.53268 174.57605 310.13266 176.6683 308.66602 177.31445 C 299.5756 181.31928 238.22182 201.7164 224.66602 205.24023 C 200.34414 211.56274 187.4689 213.4214 162.21094 214.25391 C 134.34609 215.17235 132.7296 215.77497 139.41211 222.75 C 144.13631 227.68103 151.59692 231.31573 164.16992 234.81445 C 172.92226 237.25 177.56161 237.53528 206.46484 237.41992 C 254.13164 237.22966 259.77692 238.15159 300 252.69336 C 325.73905 261.99875 340.82272 265.41384 360.15234 266.31055 C 371.17006 266.82167 373.7213 266.52281 378.30273 264.18555 C 383.77092 261.39589 388 254.94199 388 249.38672 C 388 245.14183 390.23335 247.27005 391.20312 252.43945 C 392.24422 257.98896 389.57185 264.71055 384.34375 269.69141 C 378.14249 275.59939 367.9631 276.76111 346.4082 274.01758 C 336.68044 272.77942 327.8082 271.29705 326.69336 270.72461 C 325.57852 270.15218 322.52185 269.29848 319.90039 268.82617 C 317.27892 268.35386 307.97956 265.23033 299.23438 261.88672 C 261.61918 247.50505 253.65946 246.1524 206 246.02344 C 168.19159 245.92113 165.30445 245.57155 148.83984 239.13281 C 138.84393 235.22376 132.92945 230.68368 129.20703 224.06055 C 126.72603 219.64621 125.85215 219.00824 123.79102 220.11133 C 118.64754 222.86404 122.83694 233.68194 130.98828 238.69727 C 137.33892 242.60465 156.06774 248.30956 183.33398 254.64258 C 196.53397 257.70848 208.234 260.43028 209.33398 260.68945 C 210.43398 260.94862 216.13336 262.45007 222 264.02734 C 227.86665 265.60464 235.66733 267.69776 239.33398 268.67773 C 243.00065 269.65773 250.20067 271.66045 255.33398 273.12891 C 295.81833 284.70994 388.66489 309.05287 407.33398 312.98047 C 418.72537 315.37699 437.87528 315.57514 448.66602 313.4082 C 473.06363 308.5088 496 277.31247 496 249.02734 C 496 238.44402 491.7301 217.03839 488.92578 213.56055 C 486.89087 211.0369 485.83432 180.66275 487.82422 181.89258 C 488.65377 182.40526 489.33972 185.33873 489.34766 188.41211 C 489.36646 195.7114 491.91767 203.83462 497.80469 215.33398 C 503.86276 227.16755 506.36911 245.20959 504.06055 260.38086 C 502.0069 273.87678 493.93944 289.58096 482.97656 301.42188 C 478.21775 306.56183 474.64917 311.09252 475.04688 311.49023 C 475.44457 311.88794 490.97079 312.51644 509.55078 312.88672 C 547.98928 313.65276 552.40029 314.4947 561.92969 322.88281 C 569.70848 329.72999 574.48896 336.86786 579.19922 348.66602 C 581.24863 353.79933 583.4158 359.19935 584.01367 360.66602 C 584.61153 362.13266 586.41677 366.67428 588.02734 370.75781 C 589.63794 374.84137 592.07863 379.64072 593.44922 381.42383 L 595.94141 384.66602 L 595.9707 378.62305 C 595.987 375.29954 595.14924 369.30177 594.10938 365.29297 C 593.06951 361.28414 592.40016 357.82055 592.62305 357.59766 C 593.43431 356.7864 598.45005 366.1607 600.53125 372.37891 C 601.70568 375.88785 602.66602 382.22572 602.66602 386.46289 C 602.66602 393.16311 603.15384 394.634 606.40625 397.75 C 608.46304 399.72054 610.64205 401.33398 611.24805 401.33398 C 611.85405 401.33398 612.05509 395.18266 611.69531 387.66602 C 611.08225 374.85783 609.10443 365.71711 604.55273 354.66602 L 602.62891 350 L 606.58789 354.54297 C 613.73331 362.74624 619.55675 379.98103 621.03516 397.29688 C 621.90994 407.54269 622.30905 408.74641 625.32227 410.24609 C 628.29725 411.72678 628.76313 411.59306 629.77344 408.95117 C 632.52039 401.76805 626.48898 372.34615 617.96289 351.33398 C 616.91833 348.75972 616.97477 348.7485 619.57812 351.0293 C 627.29302 357.78825 635.23893 379.71051 637.56836 400.66602 C 639.21654 415.49287 639.96115 417.27561 644.52734 417.3125 C 646.88953 417.3316 647.00271 416.48505 646.27344 404.33398 C 645.36787 389.24521 641.11245 368.62045 637.125 360 C 630.99007 346.7369 623.99993 339.85074 597.17383 320.64062 C 575.21164 304.91357 570.40019 300.05173 563.81836 286.9375 C 559.50698 278.34713 559.33678 277.42954 559.44531 263.33398 C 559.50741 255.26733 560.17884 247.16731 560.9375 245.33398 C 562.12638 242.46104 562.45006 243.38114 563.26953 252 C 563.79246 257.49998 565.08173 265.84205 566.13672 270.53711 C 569.53349 285.65393 581.66584 299.49111 606.23242 316.27539 L 615.41797 322.55273 L 640.70898 323.30859 C 699.22903 325.0553 770.8495 330.55138 813.33398 336.55664 C 842.30018 340.65107 888.29308 349.53925 911.16406 355.46289 C 918.32649 357.31798 919.46532 357.29976 924.49805 355.24219 C 937.25904 350.025 950.96981 353.44949 961.76172 364.54883 C 965.99306 368.90072 969.74 371.10034 977.33398 373.69336 C 982.83398 375.57137 994.53403 379.91632 1003.334 383.34766 C 1032.1349 394.57783 1080.2101 410.68015 1096.666 414.60938 C 1103.266 416.18526 1112.5673 418.42403 1117.334 419.58398 C 1122.7526 420.90259 1136.2447 422.06351 1153.334 422.68164 C 1176.2167 423.50932 1181.9581 424.13396 1188.5957 426.51953 C 1199.0388 430.27275 1201.9088 432.28335 1203.9863 437.29883 C 1206.1035 442.41028 1204.1543 450.35209 1199.1582 456.9707 C 1191.8001 466.71861 1178.8448 471.21959 1117.334 485.4043 C 1105.1963 488.20329 1101.0096 489.31413 1074 496.89453 C 1067.4 498.74686 1059.0007 501.05268 1055.334 502.01953 C 1051.6673 502.98638 1045.3673 504.76097 1041.334 505.96289 C 1037.3007 507.16482 1029.646 509.2969 1024.3242 510.70117 C 1019.0024 512.10545 1010.3017 514.40544 1004.9902 515.81055 C 978.97673 522.69216 914.70641 539.13236 910 540.10938 C 900.59559 542.06165 873.26888 541.522 864.61328 539.21289 C 858.68383 537.63105 853.79029 537.31848 845.33398 537.97852 C 839.10066 538.46505 819.59996 539.27522 802 539.7793 L 770 540.69531 L 764.38086 544.49414 C 755.06078 550.79352 751.68213 556.38177 741.30859 582.66602 C 738.26967 590.366 733.90496 599.96667 731.60938 604 C 725.39793 614.91339 711.63819 627.80794 699.91406 633.70117 C 691.24079 638.06087 665.12072 648 662.33789 648 C 658.82697 648 663.36871 601.42544 668.5957 583.82422 C 670.5843 577.12788 676.13112 566.37874 679.85742 562 C 686.73356 553.91997 687.48484 554.39053 669.24219 555.33594 C 612.09697 558.29744 579.32961 560.808 540 565.23828 C 496.93819 570.08901 479.76079 572.91527 434 582.67969 C 413.23994 587.10945 413.48792 586.94106 419.27344 592.72656 C 423.72541 597.17854 432.48866 597.0892 445.43359 592.45898 C 454.65331 589.16124 456.88899 588.91649 478 588.88477 C 497.87048 588.85487 514.49507 589.99733 513.12305 591.29883 C 512.87251 591.5365 500.3673 592.46405 485.33398 593.35938 C 459.69527 594.8863 457.42071 595.23754 448.66602 599.02539 C 433.39521 605.63252 422.37349 605.60718 414.43945 598.94727 C 410.82567 595.91377 410.31567 595.76142 411.25391 598 C 413.58332 603.55781 413.71118 615.95814 411.5 621.74805 C 408.75629 628.93232 400.96274 637.02687 393.66602 640.27148 C 390.54935 641.65736 388 643.15032 388 643.58789 C 388 644.02546 393.55066 644.03088 400.33398 643.60156 C 413.98195 642.73762 411.85226 643.96822 394.96094 646.70508 C 384.975 648.32308 383.00085 648.25945 374.29297 646.04883 C 368.99819 644.70468 363.97965 643.07405 363.14062 642.42383 C 360.4226 640.31742 348.78185 639.65587 343.3125 641.29688 C 325.6356 646.60055 311.90123 647.91952 302.25977 645.24219 C 299.46923 644.46728 296.82873 642.90419 296.39258 641.76758 C 295.74303 640.07489 294.12861 639.85783 287.4668 640.57031 C 269.29111 642.51421 250.41773 645.65371 242.51367 648.04688 C 237.90701 649.44165 233.91552 650.36082 233.64453 650.08984 C 232.47166 648.91696 256.1858 640.91093 265.95508 639.18164 C 271.84667 638.13875 282.06602 636.33313 288.66602 635.16992 C 302.13941 632.79532 317.56976 628.61122 322.82812 625.90625 C 324.75011 624.91756 329.84881 621.09068 334.16016 617.40039 C 338.47149 613.71011 342.67703 610.68425 343.50391 610.67773 C 345.54214 610.66163 348.40057 607.07146 347.04297 606.23242 C 345.84579 605.49253 335.39032 609.00623 316 616.66406 C 280.28751 630.76804 225.06104 648.22668 199.33398 653.54492 C 195.66733 654.30288 180.53606 655.32677 165.70898 655.82031 C 135.77048 656.81684 133.57238 657.44161 138.20898 663.66211 C 141.69441 668.33815 146.53184 671.14664 158.82227 675.62695 C 168.62891 679.20185 168.81264 679.2169 207.33398 679.32617 C 242.4351 679.42577 247.29097 679.71619 260 682.49023 C 273.90561 685.52548 277.22492 686.57896 306.66602 697.28906 C 323.02233 703.23917 327.19449 704.30669 346 707.36328 C 372.9996 711.75169 385.37685 707.81356 387.57812 694.13477 L 388.45898 688.66602 L 390.28711 693.13477 C 393.48456 700.94364 388.1744 711.40286 378.87695 715.60547 C 366.65821 721.12852 327.76388 715.68246 299.82227 704.53711 C 263.19053 689.92537 250.03409 687.74285 202 688.30664 C 168.10219 688.70451 162.31053 687.83098 145.69336 679.8125 C 138.12957 676.16265 126.66602 665.69094 126.66602 662.43164 C 126.66602 661.77575 125.46666 661.88109 124 662.66602 C 122.53333 663.45094 121.33398 665.35103 121.33398 666.88867 C 121.33398 671.03101 126.20909 678.17011 131.06641 681.13867 C 136.32321 684.35139 161.43229 692.07341 179.33398 695.98242 C 203.78642 701.32187 225.13142 706.86319 267 718.74219 C 272.31664 720.25064 279.66733 722.28758 283.33398 723.26758 C 287.00065 724.24757 294.79935 726.37606 300.66602 727.99805 C 311.72664 731.05603 313.02519 731.39444 356 742.43359 C 370.29998 746.10691 388.00066 750.72698 395.33398 752.69922 C 413.19691 757.50329 438.42395 758.74377 450.08203 755.39258 C 465.65409 750.91627 477.74268 740.27518 488.01953 722 C 498.24994 703.80739 498.63972 683.23397 489.27344 655.66211 C 486.45533 647.36637 485.35059 619.90032 488 624 C 488.71088 625.1 489.30127 628.47553 489.3125 631.5 C 489.3363 637.91476 491.49824 644.51198 497.91992 657.76367 C 506.78791 676.06353 507.17517 701.76288 498.85938 720.18359 C 494.57102 729.68291 484.95527 743.04665 478.03906 749.11914 L 473.4668 753.13477 L 481.73242 753.92188 C 486.27924 754.35492 503.20068 755.1792 519.33398 755.75195 C 548.33393 756.78148 548.74865 756.83729 555.8125 760.6875 C 567.71035 767.17249 574.75182 777.67077 583.9668 802.66602 C 587.55406 812.39632 593.77226 825.33398 594.86328 825.33398 C 596.6132 825.33398 596.21128 816.0621 594.10938 807.95898 C 591.94183 799.60286 592.22526 798.40177 595.26758 803.04492 C 599.22767 809.08881 602.66602 821.17586 602.66602 829.04883 C 602.66602 836.12636 603.02474 837.09687 606.61328 839.75 C 608.78359 841.35458 610.96902 842.66602 611.4707 842.66602 C 613.68246 842.66602 610.74591 815.02157 607.50781 805.36133 C 605.6695 799.87705 604.36224 795.19245 604.60352 794.95117 C 605.24826 794.30641 609.91878 801.20269 612.99023 807.33398 C 617.23594 815.80932 620.08277 827.34798 620.94531 839.57031 C 621.68825 850.09776 621.97984 850.97746 625.0957 852.16211 C 629.96009 854.01155 630.93691 851.62185 629.99805 840.16406 C 629.08104 828.97282 626.58142 818.17158 621.7832 804.66602 C 616.71575 790.40257 616.55204 789.33848 620.03906 793.32031 C 628.07086 802.49183 635.56556 823.59151 637.56641 842.66602 C 639.0384 856.69906 640.47727 860 645.12305 860 C 649.64476 860 643.52465 814.80215 637.36914 802.73633 C 633.74339 795.62929 625.93928 785.40911 620.22266 780.2793 C 617.5331 777.86581 608.81543 771.33188 600.84961 765.75977 C 583.03021 753.29505 570.56613 741.79517 565.96094 733.57031 C 559.0873 721.29404 557.01957 706.14593 560.25 691.73242 L 561.83398 684.66602 L 562.74219 690.66602 C 563.24173 693.966 564.01357 700.0629 564.45703 704.21289 C 566.6453 724.69109 575.12334 736.2501 601.90234 755.26758 L 619.33398 767.64648 L 662.66602 768.49609 C 686.49929 768.96319 712.30001 769.93465 720 770.6543 C 727.69998 771.37395 742.39938 772.58081 752.66602 773.33594 C 805.60912 777.22994 856.3777 784.97162 909.24219 797.21484 C 919.56324 799.60517 920.81216 799.64824 924.49805 797.74219 C 929.86202 794.96837 943.17699 795.10568 950.35547 798.00781 C 953.55724 799.30223 958.41647 803.00284 961.4707 806.47266 C 965.42665 810.96684 968.76183 813.23583 973.78125 814.84961 C 977.56809 816.0671 988.16733 819.90355 997.33398 823.375 C 1055.0794 845.24338 1092.8282 857.2569 1119.334 862.20117 C 1125.2007 863.29552 1141.9994 864.65978 1156.666 865.23242 C 1182.5586 866.24336 1183.5946 866.39168 1192.3105 870.375 C 1199.4508 873.6382 1201.747 875.44336 1203.5371 879.19727 C 1205.5422 883.40193 1205.5823 884.53926 1203.9102 889.625 C 1201.6516 896.4946 1194.601 904.64634 1188.0898 907.91602 C 1181.4058 911.27261 1158.787 918.37935 1145.334 921.34961 C 1119.5369 927.04528 1114.9413 928.08995 1106.666 930.14453 C 1101.8994 931.32799 1095.3 933.09057 1092 934.06055 C 1088.7 935.03054 1075.8007 938.61994 1063.334 942.03711 C 1050.8673 945.45429 1035.8666 949.66894 1030 951.40234 C 1024.1333 953.13576 1010.9327 956.72267 1000.666 959.37305 C 990.39947 962.02342 969.10063 967.52124 953.33398 971.5918 C 937.56736 975.66233 920.76666 979.89243 916 980.99219 C 904.748 983.58822 876.74852 983.86803 864.61719 981.50586 C 856.94896 980.01273 850.46521 979.95314 829.12109 981.17383 C 814.75789 981.99527 796.00495 982.66602 787.44922 982.66602 C 769.76262 982.66602 764.85817 984.30013 757.54883 992.625 C 752.18927 998.72918 749.16749 1004.7138 741.77539 1023.8594 C 733.60114 1045.0308 729.65336 1051.4243 717.81055 1062.6738 C 706.93674 1073.0029 694.97538 1079.613 675.72656 1085.9316 C 670.37673 1087.6878 664.94933 1089.5365 663.66602 1090.0391 C 661.53816 1090.8724 661.33398 1089.7743 661.33398 1077.5801 C 661.33398 1063.6181 665.28372 1035.8915 668.82812 1024.9824 C 670.4749 1019.9138 679.54355 1005.5637 686.7793 996.57422 C 688.74896 994.12715 645.93092 996.58706 568 1003.3984 C 549.57126 1005.0091 500.6807 1011.6512 480.66602 1015.2637 C 458.67033 1019.2337 418.94874 1027.6695 417.22266 1028.7363 C 415.21178 1029.9791 415.81475 1031.9358 419.27344 1035.3945 C 423.79939 1039.9205 431.32728 1039.691 446.87891 1034.5527 C 459.31488 1030.4439 459.36788 1030.4383 483.33398 1031.0312 C 496.53396 1031.3579 508.83269 1032.2706 510.66602 1033.0605 C 513.80969 1034.415 513.69591 1034.5067 508.66602 1034.6562 C 505.73269 1034.7432 493.43396 1035.2882 481.33398 1035.8672 C 460.59097 1036.8596 458.77296 1037.167 449.52734 1041.2363 C 435.99196 1047.1936 424.23526 1047.6043 416.36328 1042.3965 L 410.91602 1038.7949 L 412.2793 1043.7305 C 414.09927 1050.3213 412.85434 1062.7465 409.89648 1067.498 C 404.88927 1075.5419 396.72891 1082.4741 389.92773 1084.4629 C 388.50087 1084.8802 393.49171 1085.0373 401.01953 1084.8125 C 408.54735 1084.5877 414.54552 1084.566 414.34766 1084.7637 C 414.1498 1084.9616 409.90229 1086.0707 404.91016 1087.2285 C 390.54495 1090.56 378.41269 1089.9985 364.54688 1085.3594 L 352.66602 1081.3848 L 336.38477 1085.3594 C 327.42931 1087.5454 317.29721 1089.334 313.87109 1089.334 C 305.58672 1089.334 297.49271 1086.7907 295.81836 1083.6621 C 295.01788 1082.1664 293.63886 1081.4422 292.45508 1081.8965 C 291.35141 1082.32 282.63806 1083.5798 273.0918 1084.6953 C 257.75648 1086.4874 243.50384 1089.5045 235.33398 1092.6875 C 233.58764 1093.3679 233.12683 1093.2749 234 1092.4199 C 237.73762 1088.7602 262.27896 1081.2671 276.66602 1079.3926 C 287.62427 1077.9649 309.57805 1073.2609 316 1070.9648 C 323.56003 1068.2618 330.37634 1064.0252 334.66602 1059.3633 C 336.49933 1057.3708 340.25 1054.586 343 1053.1758 C 347.77893 1050.7252 349.64022 1048 346.53516 1048 C 345.72978 1048 336.27976 1051.3489 325.53516 1055.4414 C 289.20838 1069.2778 253.22647 1081.6716 233.33398 1087.2012 C 226.36733 1089.1378 218.866 1091.2729 216.66602 1091.9453 C 204.91211 1095.5373 180.31237 1098.6679 163.72852 1098.6816 C 141.93483 1098.6996 136 1099.5408 136 1102.6094 C 136 1108.1511 150.14755 1115.9757 167.62891 1120.1035 C 178.20529 1122.6009 181.77492 1122.7804 204.66602 1121.9727 C 244.18765 1120.5781 263.06752 1123.4084 295.25 1135.5488 C 316.43809 1143.5417 325.64708 1146.1739 343.5625 1149.3555 C 362.10285 1152.648 368.87341 1152.6784 376.22266 1149.5059 C 383.66972 1146.2911 386.12917 1143.3855 387.65039 1136 L 388.88477 1130 L 390.62695 1135.5781 C 392.23017 1140.7125 392.11491 1141.666 389.18359 1147.5781 C 383.39976 1159.2432 369.5919 1162.6206 344 1158.6289 C 328.19307 1156.1634 298.20513 1147.2493 286 1141.3887 C 281.30461 1139.134 265.03154 1134.8524 252.7168 1132.6309 C 243.86137 1131.0335 230.91255 1130.4021 202.7168 1130.1953 C 165.47141 1129.9222 164.47937 1129.844 155.83984 1126.5195 C 142.59767 1121.4239 134.89903 1116.4087 130.29492 1109.877 C 125.736 1103.4092 125.09167 1103.0785 122.68164 1105.9824 C 120.70615 1108.3627 121.8237 1113.7382 125.31445 1118.6406 C 130.07128 1125.3209 148.89307 1131.6599 192.66602 1141.3242 C 205.38848 1144.1331 230.40347 1150.7524 266.66602 1160.9062 C 303.71338 1171.2799 325.16708 1176.963 371.72656 1188.7363 C 387.34256 1192.685 400.63543 1196.2363 401.26758 1196.627 C 401.89972 1197.0177 408.34117 1197.9445 415.58203 1198.6875 C 433.08772 1200.4839 450.74467 1198.6985 459.52148 1194.2324 C 472.70232 1187.5318 487.65926 1168.4989 493.95898 1150.4121 C 498.00731 1138.7892 496.12734 1117.4891 489.36523 1098.3672 C 487.35124 1092.672 486.67227 1087.4233 486.6875 1077.6992 C 486.7015 1068.7918 487.11666 1065.2991 488 1066.666 C 488.71088 1067.766 489.30127 1070.6751 489.3125 1073.1289 C 489.3421 1079.5897 493.06736 1091.4316 497.35938 1098.7109 C 503.36366 1108.8942 506.34766 1129.2424 504.10938 1144.7344 C 501.90253 1160.0087 493.66764 1175.5778 480.82617 1188.752 L 474 1195.7559 L 480.66602 1196.4961 C 484.33266 1196.9041 500.83401 1197.616 517.33398 1198.0762 C 545.52411 1198.8624 547.75201 1199.11 554.28516 1202.1973 C 566.24694 1207.85 574.66972 1220.0544 583.94336 1245.168 C 588.81037 1258.3482 593.53679 1268 595.12305 1268 C 596.6563 1268 595.25486 1251.0534 593.29492 1245.8984 C 590.5933 1238.7926 593.15857 1241.319 597.40625 1249.9473 C 600.81459 1256.8706 601.87119 1260.9428 602.36133 1269.041 C 602.91115 1278.1255 603.39655 1279.6798 606.49219 1282.2852 C 608.42133 1283.9088 610.52771 1285.2588 611.17383 1285.2852 C 613.58851 1285.3842 610.99755 1258.2706 607.56836 1247.5625 C 604.58612 1238.25 604.49173 1237.365 606.69336 1239.3574 C 612.88773 1244.9632 619.66128 1265.1219 620.86719 1281.5391 C 621.64962 1292.1911 621.97322 1293.1962 625.07031 1294.6074 C 629.90503 1296.8102 630.95294 1294.4523 630.11523 1283.2598 C 629.15595 1270.443 621.73788 1241.5747 618.50195 1238.0664 C 617.85938 1237.3697 617.35449 1235.871 617.38086 1234.7344 C 617.45186 1231.6735 623.50185 1239.3648 627.29102 1247.334 C 632.82429 1258.9713 636.07027 1270.9173 637.61719 1285.334 C 638.4434 1293.034 639.46708 1299.716 639.89258 1300.1836 C 640.31807 1300.6512 642.10784 1301.47 643.86914 1302.0039 L 647.07227 1302.9746 L 646.29492 1289.8203 C 645.21203 1271.4813 640.88165 1252.0281 635.73242 1242.3672 C 629.76268 1231.1668 622.20438 1223.2463 607.28125 1212.5527 C 575.83626 1190.0201 569.5463 1183.945 563.11914 1169.9062 C 558.77479 1160.4171 557.66347 1147.5942 560.10352 1135.1074 L 561.88281 1126 L 562.85742 1133.334 C 563.39307 1137.3673 564.14179 1143.366 564.52148 1146.666 C 565.58561 1155.9149 568.56978 1164.4102 573.03516 1170.9004 C 578.49007 1178.8289 591.93625 1191.213 603.74609 1199.1836 C 609.05614 1202.7673 613.72213 1206.2167 614.11328 1206.8496 C 614.50443 1207.4825 622.73874 1208.0311 632.41211 1208.0684 C 663.04463 1208.1866 758.1482 1213.306 768 1215.3672 C 769.83333 1215.7507 779.1327 1216.935 788.66602 1218 C 807.7929 1220.1367 834.5284 1224.0359 852 1227.2363 C 864.69746 1229.5621 909.16037 1239.2577 915.33398 1241.0469 C 918.32865 1241.9148 920.81589 1241.5524 925.23047 1239.6055 C 933.90499 1235.78 945.16248 1236.9457 954.39258 1242.625 C 958.24981 1244.9984 962.27701 1248.6246 963.3418 1250.6836 C 964.97606 1253.8439 967.62115 1255.2018 980.30664 1259.3926 C 988.57175 1262.1231 995.93269 1264.786 996.66602 1265.3105 C 998.71474 1266.776 1058.0859 1287.9302 1074.9766 1293.2129 C 1087.6225 1297.1681 1111.1048 1303.0002 1124 1305.3887 C 1128.0333 1306.1358 1142.134 1307.0881 1155.334 1307.5039 C 1174.343 1308.1027 1181.1356 1308.8314 1188 1311.0078 C 1197.4729 1314.0114 1203.3213 1318.4486 1204.6191 1323.6191 C 1206.1287 1329.6338 1201.7245 1339.4582 1194.8984 1345.3008 C 1187.1194 1351.959 1174.0638 1356.6288 1142.666 1363.9844 C 1120.5027 1369.1767 1085.3184 1378.1946 1064.666 1383.9766 C 1024.3412 1395.2663 1019.9666 1396.4581 988 1404.8652 C 930.7338 1419.9261 914.5716 1423.836 902.66602 1425.5117 C 891.02988 1427.1494 871.38138 1426.1243 862.43555 1423.4121 C 857.37519 1421.8778 852.98896 1421.7745 839.10156 1422.8691 C 829.69562 1423.6105 810.00063 1424.6273 795.33398 1425.127 C 768.7855 1426.0314 768.64034 1426.0517 762.94531 1429.8965 C 755.88775 1434.6612 750.35658 1444.2218 741.2793 1467.3398 C 737.60672 1476.6931 733.41558 1486.0103 731.9668 1488.0449 C 730.51802 1490.0795 729.33398 1492.2689 729.33398 1492.9102 C 729.33398 1494.7503 713.29109 1509.8834 706.66602 1514.293 C 699.07561 1519.3452 690.7391 1523.0552 674.33398 1528.6797 L 661.33398 1533.1367 L 661.33398 1520.5469 C 661.33398 1506.0469 665.51148 1477.6865 669.36914 1466 C 670.82157 1461.6 673.80651 1455.3 676.00195 1452 L 679.99219 1446 L 674.51562 1445.582 C 663.96803 1444.7786 553.09661 1450.837 534 1453.2598 C 528.13336 1454.0041 516.43332 1455.2525 508 1456.0352 C 499.56669 1456.818 489.66667 1458.0342 486 1458.7363 C 482.33333 1459.4385 468.83331 1461.8037 456 1463.9941 C 425.26851 1469.2396 416.96676 1471.0997 416.37695 1472.8691 C 416.1081 1473.6756 417.75986 1475.9096 420.04688 1477.834 C 425.38188 1482.3232 431.0995 1482.3334 443.33398 1477.877 C 454.68114 1473.7432 473.7098 1472.4521 499.41602 1474.0703 C 513.75655 1474.9731 515.65359 1475.3236 510.66602 1476.1465 C 507.36602 1476.6911 499.69218 1477.1801 493.61328 1477.2344 C 476.61232 1477.3864 457.34295 1479.9268 450.33398 1482.9395 C 446.85067 1484.4368 444 1486.1152 444 1486.668 C 444 1487.2208 447.44936 1488.581 451.66602 1489.6914 C 455.88267 1490.8018 468.33402 1494.2105 479.33398 1497.2656 C 502.75064 1503.7692 509.34577 1505.5404 572 1522.1602 C 605.86036 1531.1419 645.99779 1541.1435 648.56055 1541.2383 C 649.969 1541.2903 679.36972 1533.8318 713.89453 1524.6621 C 748.41935 1515.4925 778.46602 1507.4164 780.66602 1506.7129 C 784.62588 1505.4468 807.97878 1499.2227 826 1494.6309 C 831.13332 1493.323 838.934 1491.2589 843.33398 1490.0449 C 847.73398 1488.8308 858.23269 1486.0425 866.66602 1483.8477 C 892.08398 1477.2328 976.19208 1454.7616 983.33398 1452.6777 C 987.00065 1451.6078 996.00064 1449.1764 1003.334 1447.2734 C 1021.2705 1442.6191 1041.9668 1437.1291 1066.666 1430.4746 C 1072.166 1428.9928 1081.166 1426.6093 1086.666 1425.1777 C 1092.166 1423.7461 1099.6673 1421.7468 1103.334 1420.7363 C 1107.0007 1419.7259 1114.5 1417.7224 1120 1416.2832 C 1156.4094 1406.7559 1168.2553 1403.53 1175.2617 1401.2363 C 1226.1869 1384.5646 1264.0082 1332.0565 1270.6777 1268.7715 C 1271.4699 1261.2543 1271.9622 1023.6189 1271.9766 641.66797 L 1272 26.666016 L 1226.0469 26.666016 z M 347.39453 176.34375 C 346.82569 176.36177 343.87437 178.28809 340.53906 180.83398 C 333.1381 186.48327 320.19263 192.67519 312.94336 194.03516 C 310.22422 194.54528 308 195.49672 308 196.14844 C 308 198.577 322.56677 197.25474 332.83008 193.89453 C 338.60701 192.00316 345.88334 190.35382 349 190.22852 C 352.11665 190.10322 354.66601 189.88086 354.66602 189.73633 C 354.66607 189.30105 347.98294 176.8716 347.47656 176.36523 C 347.46042 176.34909 347.43245 176.34255 347.39453 176.34375 z M 477.22852 200.66602 L 477.28125 210.05273 C 477.30995 215.21532 478.234 222.89596 479.33398 227.11914 C 483.39002 242.6913 480.88 264.21569 473.65234 275.85742 C 464.87917 289.98856 450.73311 301.15892 444.33398 299.00586 C 440.95608 297.86932 442.82793 294.82566 448.63672 292.01367 C 466.69692 283.27088 478.59223 257.32727 474.87109 234.79492 C 472.77916 222.12773 472.93927 210.54666 475.28125 205.15234 L 477.22852 200.66602 z M 366.47656 218.8125 C 367.4231 218.8515 369.06413 220.21321 371.32031 222.89453 C 374.2595 226.38755 374.73242 227.95184 374.03711 231.89453 C 372.68851 239.54156 369.30388 242.98361 360.55859 245.60156 C 350.26189 248.68396 340.74468 248.43923 326 244.71289 C 319.40002 243.04491 306.19933 239.17384 296.66602 236.11133 C 283.58188 231.90814 275.41503 230.16381 263.35156 228.99414 C 245.54325 227.26746 246.7064 225.7905 266 225.63086 C 278.21667 225.52978 282.5749 226.28807 312 233.63086 C 332.41894 238.72622 352.41963 239.5458 359.72461 235.58594 C 364.82027 232.82368 366.93346 228.33135 365.80078 222.66797 C 365.2788 220.05805 365.53003 218.77353 366.47656 218.8125 z M 347.85156 619.15039 C 346.00193 619.07449 342.547 620.96197 338 624.64453 C 335.06667 627.02019 329.96601 630.17541 326.66602 631.65625 C 320.67063 634.3466 318.60591 635.0225 311.61133 636.58203 C 309.3674 637.08233 308.25114 637.99469 308.79883 638.88086 C 310.10814 640.99937 324.354 639.35329 333.79883 635.99219 C 338.08787 634.46586 344.53684 633.09287 348.13086 632.94141 C 355.29877 632.63935 355.90437 631.65747 352 626.66602 C 350.56595 624.83269 349.37959 622.2429 349.36328 620.91016 C 349.34933 619.76857 348.82042 619.19015 347.85156 619.15039 z M 477.2168 642 L 477.27539 652.05273 C 477.30759 657.58199 478.234 665.56197 479.33398 669.78516 C 481.83757 679.39706 481.89046 696.07047 479.44336 704.13281 C 474.64612 719.93802 463.65941 734.21557 451.93359 739.88086 C 448.76186 741.41329 446.12762 742.61844 446.08203 742.56055 C 446.03643 742.50265 445.25065 742.15308 444.33398 741.7832 C 440.91845 740.40499 442.66248 736.53729 447.48633 734.79297 C 458.91762 730.65935 470.32504 715.16751 474.11719 698.62891 C 476.06903 690.11641 476.17824 687.10476 474.86719 677.93164 C 472.82386 663.63494 472.96159 653.81074 475.29492 647.33398 L 477.2168 642 z M 364.06641 659.79297 L 368.33203 662.28516 C 374.24724 665.73981 375.77057 671.54314 372.49414 678.13867 C 368.05281 687.0792 364.52875 688.61137 347.57812 688.96484 C 334.23613 689.24307 331.26418 688.84693 319.33398 685.20312 C 294.6384 677.66042 292.69938 677.10473 280 673.91992 C 271.96264 671.90428 262.94833 670.67184 255.33398 670.54883 L 243.33398 670.35547 L 250.66602 669.07227 C 259.11529 667.59391 284.09732 668.46422 290 670.44336 C 311.39117 677.61568 345.60072 681.85513 357.05273 678.75195 C 364.386 676.76487 367.87614 670.71885 365.54688 664.03711 L 364.06641 659.79297 z M 347.26758 1061.3477 C 346.49764 1061.3377 342.199 1064.0023 337.7168 1067.2637 C 330.9446 1072.1915 320.93574 1076.5556 309.37109 1079.623 C 307.64314 1080.0814 307.64314 1080.3019 309.37109 1081.4688 C 312.18855 1083.3713 321.71854 1082.0593 333.83594 1078.0996 C 339.61287 1076.2119 346.7144 1074.666 349.61523 1074.666 C 352.51607 1074.666 354.65154 1074.216 354.36133 1073.666 C 354.07112 1073.116 352.6709 1070.1229 351.25 1067.0137 C 349.82909 1063.9045 348.03752 1061.3552 347.26758 1061.3477 z M 476.6875 1086.4023 C 477.13819 1086.1685 477.17583 1088.507 477.24805 1094.666 C 477.31255 1100.166 478.25141 1107.9667 479.33398 1112 C 483.19291 1126.377 481.39033 1145.5457 475.00781 1158 C 467.48217 1172.685 448.37911 1187.9358 443.55469 1183.1113 C 441.48147 1181.0381 442.97752 1178.7716 447.375 1177.3203 C 453.8922 1175.1694 464.97547 1163.549 469.42578 1154.2012 C 474.81381 1142.8838 476.83519 1130.031 474.88867 1119.4668 C 472.8705 1108.5138 473.06727 1095.2201 475.33398 1089.334 C 475.9981 1087.6094 476.41709 1086.5427 476.6875 1086.4023 z M 365.52734 1102.834 C 366.27851 1102.877 367.65178 1103.7237 369.71875 1105.3496 C 374.11625 1108.8087 375.34152 1114.4847 372.92578 1120.1953 C 370.27917 1126.4515 367.08982 1128.803 358.93359 1130.5156 C 349.15949 1132.5678 338.45422 1132.1939 326.66602 1129.3867 C 321.16602 1128.077 307.66598 1124.183 296.66602 1120.7344 C 279.09571 1115.226 274.74675 1114.3724 260.86133 1113.6973 C 240.38321 1112.7016 243.38593 1110.3355 265.19141 1110.2852 C 278.16266 1110.2552 283.36485 1110.9235 297.33398 1114.418 C 326.01412 1121.5926 331.87369 1122.666 342.37109 1122.666 C 360.49109 1122.666 369.05451 1116.769 365.54688 1106.707 C 364.6215 1104.0525 364.56152 1102.779 365.52734 1102.834 z " />
    <path
       id="path4"
       style="display:inline;fill:#00ffff"
       d="m 380.63867,143.54883 c -4.12719,-0.0132 -8.35395,0.93279 -12.29883,2.94531 -6.43536,3.28309 -9.12877,6.82835 -11.71679,15.42774 -1.55653,5.17195 -1.5397,6.99579 0.10937,12.54882 2.48393,8.36425 5.85383,12.55018 12.91406,16.04492 6.7547,3.34351 12.63313,3.57092 19.39649,0.75 14.36868,-5.99299 20.17547,-21.19575 13.33008,-34.90234 -4.05563,-8.1206 -12.65454,-12.78539 -21.73438,-12.81445 z m 559.36914,217.86133 c -1.30624,-0.0178 -2.81686,0.0462 -4.66797,0.16406 -7.09752,0.45194 -9.44253,1.24526 -13.62304,4.60742 -6.88114,5.53413 -9.05078,10.30625 -9.05078,19.91602 0,6.54126 0.68458,9.12975 3.55859,13.47265 6.44868,9.74462 20.92862,13.9433 30.8418,8.94336 6.93999,-3.50032 11.38935,-8.52228 13.69336,-15.45898 2.35564,-7.09223 1.95079,-10.51198 -2.29883,-19.40625 -1.84869,-3.86922 -4.60674,-6.79291 -8.63282,-9.15235 -3.83219,-2.24581 -5.90159,-3.03249 -9.82031,-3.08593 z M 380.63477,585.42773 c -9.10775,-0.11952 -17.78346,4.86562 -22.38086,13.72461 -5.65573,10.89832 -1.95781,25.22294 8.16797,31.64454 5.02968,3.18972 7.54161,3.86914 14.30664,3.86914 7.04242,0 9.00514,-0.57965 13.85351,-4.0918 15.3938,-11.15121 13.60485,-34.4163 -3.27539,-42.58789 -3.47825,-1.6838 -7.10798,-2.51183 -10.67187,-2.5586 z m 555.82226,217.94336 c -7.19921,-0.0337 -8.82858,0.46366 -13.24609,4.03907 -8.88167,7.18853 -10.54793,10.4123 -10.51367,20.35351 0.0249,7.21122 0.65378,9.83373 3.3125,13.80078 7.09898,10.59241 21.94026,14.3502 33.30664,8.4336 7.91929,-4.12229 14.33955,-16.97418 12.59765,-25.2168 -1.46284,-6.92211 -6.10436,-13.88315 -11.8125,-17.71875 -4.433,-2.97877 -6.94761,-3.66002 -13.64453,-3.69141 z M 381.14062,1027.6211 c -2.42153,-0.028 -4.93181,0.3144 -7.48242,1.082 -8.22066,2.4741 -14.63426,8.9889 -17.05859,17.3281 -1.72493,5.9335 -1.72277,7.5284 0.0176,13.3887 4.31954,14.5455 19.62623,21.7483 33.71093,15.8633 6.61181,-2.7626 9.58498,-5.6055 12.49805,-11.9492 7.89651,-17.1962 -4.73472,-35.5159 -21.68555,-35.7129 z m 554.82422,217.8125 c -8.21243,0.2547 -16.32452,4.5 -20.86523,13.1094 -3.74214,7.0952 -3.94867,14.8128 -0.5918,22.123 2.9966,6.5257 6.71503,9.9689 13.95899,12.9258 6.97225,2.846 8.52358,2.8813 15.69336,0.3516 7.809,-2.7552 13.98601,-9.024 16.57617,-16.8223 1.94624,-5.8595 1.94899,-7.0416 0.0215,-13.6719 -3.50989,-12.0736 -14.23412,-18.343 -24.79297,-18.0156 z" />
    <path
       id="path5"
       style="display:inline;fill:#241c1c"
       d="M 380.99805 148.16406 C 380.26747 148.17694 379.51923 148.21943 378.75391 148.29297 C 368.53832 149.27456 363.71714 154.3881 362.94531 165.05859 C 362.41612 172.37453 362.66834 173.24319 366.65625 177.78516 C 369.01048 180.46648 372.82594 183.2143 375.13477 183.89062 C 387.26855 187.44498 399.27038 178.20921 399.07812 165.46484 C 398.91305 154.5228 391.9567 147.97087 380.99805 148.16406 z M 936.39062 365.33984 C 931.68946 365.3852 926.99062 367.06016 923.81641 370.23438 C 914.44398 379.60681 917.7162 396.14087 930 401.48047 C 931.46667 402.11801 935.34451 402.40603 938.61719 402.11914 C 943.52262 401.68913 945.45425 400.64647 949.61719 396.18359 C 954.01498 391.46892 954.66358 389.94549 954.64648 384.38477 C 954.62191 376.4037 952.5804 372.28725 946.64648 368.25391 C 943.70467 366.25432 940.04708 365.30457 936.39062 365.33984 z M 381.42383 589.41797 C 376.83728 589.35719 372.15179 591.53376 367.75586 595.92969 C 363.24275 600.44279 362.66815 601.75516 362.68555 607.50977 C 362.71003 615.59464 364.73268 619.69986 370.68555 623.74609 C 377.27799 628.22705 387.69431 627.40297 393.38477 621.95117 C 401.29874 614.3691 401.16331 602.72687 393.07031 594.81445 C 389.44102 591.26615 385.47078 589.4716 381.42383 589.41797 z M 936.13086 807.44727 C 934.53439 807.48322 932.88021 807.74308 931.15039 808.2207 C 926.1533 809.60047 918.75364 817.47044 918.46484 821.71289 C 917.80741 831.3703 920.47185 838.01586 926.49805 841.75586 C 928.57243 843.04327 932.91804 843.94384 937.15625 843.96484 C 943.71289 843.99734 944.7479 843.56655 949.49023 838.82422 C 954.30763 834.00681 954.66602 833.11393 954.66602 825.95117 C 954.66602 818.73619 954.34054 817.94431 949.45508 813.29688 C 945.19399 809.24339 940.92027 807.3394 936.13086 807.44727 z M 381.20117 1032.1895 C 378.97465 1032.1984 376.60026 1032.5979 374.10742 1033.4668 C 360.03218 1038.3728 358.4674 1058.3494 371.50586 1066.6895 C 375.87617 1069.4849 384.13062 1070.0442 388.42188 1067.834 C 407.56169 1057.9764 399.33145 1032.1162 381.20117 1032.1895 z M 935.55664 1249.9648 C 919.90612 1250.3193 911.28909 1270.5552 924.80469 1282.334 C 929.07975 1286.0597 930.77465 1286.666 936.88867 1286.666 C 943.40728 1286.666 944.44509 1286.2229 949.33398 1281.334 C 954.20876 1276.4592 954.66602 1275.3945 954.66602 1268.9629 C 954.66602 1259.1639 950.49329 1253.3532 941.61328 1250.7871 C 939.50707 1250.1785 937.47863 1249.9213 935.55664 1249.9648 z " />
    <path
       id="path6"
       style="display:inline;fill:#ffff00"
       d="M 388 159.33398 C 385.07197 159.33398 384.61366 159.98116 384.23438 164.66602 C 383.99689 167.59934 382.85481 171.05066 381.69531 172.33398 C 379.7383 174.49998 379.84218 174.66602 383.14648 174.66602 C 385.7249 174.66602 387.44353 173.47289 389.38086 170.33398 C 393.04075 164.40415 392.40404 159.33398 388 159.33398 z M 929.83594 375.93164 C 928.89385 375.9523 927.81808 376.61309 926.68164 377.98242 C 923.35882 381.98617 929.86091 393.33398 935.47852 393.33398 C 937.59053 393.33398 937.59658 393.16591 935.54102 390.89453 C 934.32736 389.55346 933.33398 386.6035 933.33398 384.33789 C 933.33398 378.93704 931.90852 375.88619 929.83594 375.93164 z M 387.72461 600.48633 C 385.64403 600.55774 384 603.35433 384 607.72461 C 384 610.32707 383.00663 613.55345 381.79297 614.89453 C 379.73644 617.16698 379.74259 617.33398 381.88086 617.33398 C 383.14273 617.33398 385.31443 616.72381 386.70703 615.97852 C 388.09964 615.23322 389.96293 612.20687 390.84766 609.25391 C 392.22607 604.65315 392.14699 603.57669 390.29492 601.72461 C 389.41942 600.84911 388.53875 600.45838 387.72461 600.48633 z M 929.63867 817.79883 C 928.82242 817.76641 927.93342 818.16228 927.03906 819.05664 C 922.86472 823.231 929.33967 836 935.63086 836 C 936.56769 836 937.33398 835.47362 937.33398 834.83008 C 937.33398 834.18654 936.43398 832.91292 935.33398 832 C 934.20597 831.06382 933.33398 828.15788 933.33398 825.33398 C 933.33398 820.7697 931.72466 817.88167 929.63867 817.79883 z M 387.32227 1042.7871 C 385.36828 1042.7469 384 1045.0823 384 1049.1953 C 384 1052.1108 383.10437 1055.3723 382 1056.4766 C 379.33918 1059.1375 379.47917 1060 382.57031 1060 C 383.98375 1060 386.39582 1058.4017 387.93164 1056.4492 C 391.89092 1051.4158 392.77311 1046.8689 390.27539 1044.3711 C 389.2184 1043.3141 388.21044 1042.8054 387.32227 1042.7871 z M 930.20117 1260.2148 C 929.65366 1260.2124 929.04085 1260.4212 928.37109 1260.8496 C 923.0786 1264.2352 928.42974 1277.334 935.10547 1277.334 C 937.57948 1277.334 937.60821 1277.1788 935.54102 1274.8945 C 934.32736 1273.5535 933.32373 1270.4035 933.3125 1267.8945 C 933.29023 1262.9227 932.15656 1260.2236 930.20117 1260.2148 z " />
  </g>
</svg>
